<?xml version="1.0" encoding="UTF-8"?>
<svg id="Components" xmlns="http://www.w3.org/2000/svg" version="1.1" viewBox="0 0 76.1 63">
  <!-- Generator: Adobe Illustrator 29.4.0, SVG Export Plug-In . SVG Version: 2.1.0 Build 152)  -->
  <defs>
    <style>
      .st0 {
        fill: #ff4026;
      }
    </style>
  </defs>
  <g id="_x30_0e85d84-9c7f-4f40-b52c-0a4097024550_x40_4">
    <g>
      <g>
        <path class="st0" d="M7.5,34.7l-.2-1.6h-.9l-.2,1.6h-.9l1-6.4h1.1l1,6.4h-.9ZM7,30.5c0-.5-.1-1.2-.1-1.2h0s0,.8-.1,1.2l-.2,1.9h.7l-.2-1.9Z"/>
        <path class="st0" d="M12.8,34.7v-.4c-.3.3-.6.4-1,.4-.8,0-1.2-.5-1.2-1.4v-3.8c0-.9.5-1.4,1.3-1.4s1.3.5,1.3,1.4v.7h-.8v-.7c0-.5-.2-.7-.5-.7s-.5.2-.5.7v3.7c0,.5.2.6.5.6s.5-.2.5-.6v-1.2h-.5v-.7h1.3v3.3h-.4Z"/>
        <path class="st0" d="M17.2,34.8c-.8,0-1.4-.5-1.4-1.4v-3.8c0-.9.5-1.4,1.4-1.4s1.4.5,1.4,1.4v3.8c0,.9-.5,1.4-1.4,1.4M17.7,29.7c0-.5-.2-.7-.5-.7s-.5.2-.5.7v3.7c0,.5.2.7.5.7s.5-.2.5-.7v-3.7Z"/>
        <g>
          <path class="st0" d="M34.5,32.2h-.5v2.5h-.8v-6.4h1.3c1,0,1.4.6,1.4,1.4v1.1c0,.8-.4,1.4-1.4,1.4M35,29.8c0-.4-.2-.7-.5-.7h-.5v2.4h.5c.4,0,.5-.3.5-.7v-1Z"/>
          <path class="st0" d="M40.2,34.7v-2.2c0-.4-.2-.7-.5-.7h-.5v2.8s-.8,0-.8,0v-6.4h1.3c1,0,1.4.6,1.4,1.4v.8c0,.4-.2.8-.5,1,.4.1.5.6.5,1.1v2.2h-.8ZM40.2,29.8c0-.4-.2-.7-.5-.7h-.5v2.1h.5c.4,0,.5-.3.5-.7v-.8Z"/>
          <path class="st0" d="M44.9,34.8c-.8,0-1.4-.5-1.4-1.4v-3.8c0-.9.5-1.4,1.4-1.4s1.4.5,1.4,1.4v3.8c0,.9-.5,1.4-1.4,1.4M45.5,29.7c0-.5-.2-.7-.5-.7s-.5.2-.5.7v3.7c0,.5.2.7.5.7s.5-.2.5-.7v-3.7Z"/>
          <path class="st0" d="M50,34.8c-.8,0-1.3-.5-1.3-1.4v-.7h.8v.7c0,.5.2.7.5.7s.5-.2.5-.7v-5.1h.8v5.1c0,.9-.5,1.4-1.3,1.4"/>
          <polygon class="st0" points="54 34.7 54 28.3 56.1 28.3 56.1 29.1 54.8 29.1 54.8 31 55.9 31 55.9 31.8 54.8 31.8 54.8 34 56.1 34 56.1 34.7 54 34.7"/>
          <path class="st0" d="M59.8,34.8c-.8,0-1.3-.5-1.3-1.4v-3.8c0-.9.5-1.4,1.3-1.4s1.3.5,1.3,1.4v.7h-.8v-.7c0-.5-.2-.7-.5-.7s-.5.2-.5.7v3.7c0,.5.2.7.5.7s.5-.2.5-.7v-.7h.8v.7c0,.9-.5,1.4-1.3,1.4"/>
          <polygon class="st0" points="65 29.1 65 34.7 64.1 34.7 64.1 29.1 63.2 29.1 63.2 28.3 65.9 28.3 65.9 29.1 65 29.1"/>
          <path class="st0" d="M69.3,34.8c-.8,0-1.4-.5-1.4-1.4v-.7h.8v.7c0,.5.2.7.5.7s.6-.3.6-.7,0-.7-.4-1l-.9-1c-.5-.5-.6-.9-.6-1.5s.4-1.5,1.4-1.5,1.4.5,1.4,1.4v.7h-.8v-.7c0-.5-.2-.7-.5-.7s-.5.3-.5.7,0,.7.4,1l1,1c.4.5.6.9.6,1.5s-.5,1.5-1.4,1.5"/>
        </g>
      </g>
      <path class="st0" d="M25.8,29.1c.3,0,.6.2.6.6s-.3.6-.6.6-.6-.2-.6-.6.3-.6.6-.6ZM25.8,32.7c.3,0,.6.2.6.6s-.3.6-.6.6-.6-.2-.6-.6.3-.6.6-.6Z"/>
    </g>
  </g>
</svg>