<?xml version="1.0" encoding="UTF-8"?>
<svg id="Layer_1" xmlns="http://www.w3.org/2000/svg" version="1.1" viewBox="0 0 2974.9 232.6">
  <!-- Generator: Adobe Illustrator 29.4.0, SVG Export Plug-In . SVG Version: 2.1.0 Build 152)  -->
  <defs>
    <style>
      .st0 {
        fill: #ff4026;
      }
    </style>
  </defs>
  <path class="st0" d="M1862.7,99.8c0,4.5-3.7,8.3-8.3,8.3s-8-3.9-8-8.3c0,4.5-3.9,8.3-8.3,8.3s-8.3-3.9-8.3-8.3c0,4.5-3.5,8.3-8.2,8.3s-8.3-3.9-8.3-8.3,3.7-8.2,8.3-8.2c-4.6,0-8.3-3.7-8.3-8.3s3.7-8.2,8.3-8.2,8.1-3.7,8.1-8.1,3.7-8.4,8.4-8.4,8.3,3.7,8.3,8.3,3.5,8.2,8,8.2,8.3,3.5,8.3,8.2-3.7,8.3-8.3,8.3c4.6,0,8.3,3.5,8.3,8.2M1887.5,174c-4.6,0-8.3-3.7-8.3-8.4s3.7-8.2,8.3-8.2,8.2-3.5,8.2-8.1-3.9-8.3-8.1-8.3-8.3-3.5-8.3-8.2,3.7-8.3,8.3-8.3c-4.6,0-8.3-3.7-8.3-8s3.7-8.3,8.3-8.3c-4.6,0-8.3-3.9-8.3-8.3s-3.7-8.2-8.3-8.2c4.6,0,8.3-3.7,8.3-8.3s-3.7-8.1-8.3-8.1-8.2-3.7-8.2-8.2-3.7-8.3-8.3-8.3-8-3.5-8-8.2-3.9-8.3-8.3-8.3-8.3,3.7-8.3,8.3-3.5,8.2-8.2,8.2-8.3,3.7-8.3,8.3-3.5,8.2-8,8.2-8.3,3.5-8.3,8.1,3.7,8.3,8.3,8.3c-4.6,0-8.3,3.5-8.3,8.2s-3.9,8.3-8.3,8.3c4.4,0,8.3,3.7,8.3,8.3s-3.9,8-8.3,8c4.4,0,8.3,3.9,8.3,8.3s-3.9,8.2-8.3,8.2-8.2,3.7-8.2,8.3,3.7,8.1,8.1,8.1,8.4,3.7,8.4,8.2-3.9,8.4-8.3,8.4-8.2,3.5-8.2,8.1,3.7,8.3,8.1,8.3,8.3-3.7,8.3-8.3c0,4.6,3.7,8.3,8.3,8.3s8-3.7,8-8.3-3.5-8.1-8-8.1c4.4,0,8-3.7,8-8.4s-3.5-8.1-8-8.1-8.3-3.5-8.3-8.2,3.7-8.3,8.3-8.3,8-3.5,8-8.1-3.5-8.3-8-8.3c4.4,0,8-3.7,8-8,0,4.3,3.7,8,8.3,8s8.1-3.7,8.1-8c0,4.3,3.7,8,8.4,8s8.3-3.7,8.3-8c0,4.3,3.5,8,8,8s8.3-3.7,8.3-8c0,4.3,3.5,8,8.1,8-4.6,0-8.1,3.9-8.1,8.3s3.5,8.1,8.1,8.1,8.3,3.7,8.3,8.3-3.7,8.2-8.3,8.2-8.1,3.7-8.1,8.1,3.5,8.3,8.1,8.3c-4.6,0-8.1,3.5-8.1,8.2s3.5,8.3,8.1,8.3,8.3-3.7,8.3-8.3c0,4.6,3.7,8.3,8.3,8.3s8.1-3.7,8.1-8.3-3.9-8.1-8.2-8.1M1764.9,75c4.4,0,8.2,3.7,8.2,8.3s-3.7,8.2-8.2,8.2-8.3-3.7-8.3-8.2-3.5-8.3-8.1-8.3c4.6,0,8.1-3.5,8.1-8.1s-3.5-8.1-8.1-8.1-8.1,3.5-8.1,8.1c0-4.6-3.9-8.1-8.5-8.1s-8.1,3.5-8.1,8.1c0-4.6-3.7-8.1-8.2-8.1s-8.3,3.5-8.3,8.1,3.7,8.1,8.3,8.1c-4.6,0-8.3,3.7-8.3,8.3s-3.5,8.2-8.1,8.2c4.6,0,8.1,3.9,8.1,8.3s3.7,8.3,8.3,8.3c-4.6,0-8.3,3.5-8.3,8.2s-3.5,8.2-8.1,8.2c4.6,0,8.1,3.7,8.1,8.3s3.7,8.2,8.3,8.2c-4.6,0-8.3,3.7-8.3,8.2s-3.5,8.3-8.1,8.3c4.6,0,8.1,3.7,8.1,8.3s3.7,8.1,8.3,8.1,8.2,3.7,8.2,8.3-3.7,8.2-8.2,8.2-8.3-3.7-8.3-8.2c0,4.4-3.5,8.2-8.1,8.2s-8.1-3.7-8.1-8.2c0,4.4-3.7,8.2-8.3,8.2s-8.1-3.7-8.1-8.2,3.7-8.3,8.1-8.3,8.3-3.9,8.3-8.1-3.7-8.3-8.3-8.3c4.6,0,8.3-3.7,8.3-8.3s3.5-8.2,8.2-8.2c-4.6,0-8.2-3.7-8.2-8.2s-3.7-8.3-8.3-8.3c4.6,0,8.3-3.5,8.3-8.2s3.5-8.2,8.2-8.2c-4.6,0-8.2-3.7-8.2-8.3s-3.7-8.3-8.3-8.3c4.6,0,8.3-3.7,8.3-8.2s3.5-8.3,8.2-8.3c-4.6,0-8.2-3.5-8.2-8.1s-3.7-8.1-8.3-8.1-8.1,3.5-8.1,8.1c0-4.6-3.9-8.1-8.3-8.1s-8.3,3.5-8.3,8.1c0-4.6-3.5-8.1-8.2-8.1s-8.1,3.5-8.1,8.1,3.5,8.1,8.1,8.1c-4.6,0-8.1,3.7-8.1,8.3s-3.7,8.2-8.3,8.2-8.1-3.7-8.1-8.2,3.7-8.3,8.1-8.3c-4.4,0-8.1-3.5-8.1-8.1s3.7-8.1,8.1-8.1c-4.4,0-8.1-3.7-8.1-8.3s3.7-8.2,8.1-8.2,8.3,3.7,8.3,8.2c0-4.4,3.5-8.2,8.2-8.2s8.2,3.7,8.2,8.2c0-4.4,3.7-8.2,8.3-8.2s8.3,3.7,8.3,8.2c0-4.4,3.7-8.2,8.1-8.2s8.3,3.7,8.3,8.2c0-4.4,3.5-8.2,8.1-8.2s8.2,3.7,8.2,8.2c0-4.4,3.7-8.2,8.3-8.2s8.2,3.7,8.2,8.2c0-4.4,3.7-8.2,8.1-8.2s8.5,3.7,8.5,8.2c0-4.4,3.5-8.2,8.1-8.2s8.2,3.7,8.2,8.2c0-4.4,3.7-8.2,8.3-8.2s8.2,3.7,8.2,8.2-3.7,8.3-8.2,8.3c4.4,0,8.2,3.5,8.2,8.1s-3.7,8.1-8.2,8.1M1526.8,75.2c4.8,0,8.3,4.6,8.3,8.2s3.5,8.3,8.1,8.3c-4.6,0-8.1,4.6-8.1,8.1s3.5,8.3,8.1,8.3,8.3-3.5,8.3-8.3c0,4.8,3.5,8.3,8.2,8.3s8.3-3.5,8.3-8.3,3.5-8.2,8.2-8.2,8.2,4.6,8.2,8.2-3.5,8.3-8.2,8.3c4.6,0,8.2,4.6,8.2,8.1s-3.5,8.1-8.2,8.1c4.6,0,8.2,4.8,8.2,8.3s-3.5,8.2-8.2,8.2-8.2-3.5-8.2-8.2-3.5-8.3-8.3-8.3-8.1-3.5-8.1-8.2c0,4.6-3.5,8.2-8.3,8.2s-8.1,4.8-8.1,8.3,3.5,8.1,8.1,8.1c-4.6,0-8.1,4.8-8.1,8.3s-3.5,8.2-8.3,8.2c4.8,0,8.3,4.8,8.3,8.3s3.5,8.1,8.1,8.1,8.3-3.5,8.3-8.1c0,4.6,3.5,8.1,8.2,8.1s8.3-3.5,8.3-8.1c0,4.6,3.5,8.1,8.2,8.1s8.1-3.5,8.1-8.1c0,4.6,3.5,8.1,8.3,8.1s8.1-3.5,8.1-8.1,3.5-8.3,8.3-8.3,8.2,4.8,8.2,8.3-3.5,8.1-8.2,8.1c4.6,0,8.2,4.8,8.2,8.3s-3.5,8.2-8.2,8.2-8.3-3.5-8.3-8.2c0,4.6-3.5,8.2-8.2,8.2s-8.3-3.5-8.3-8.2c0,4.6-3.5,8.2-8.1,8.2s-8.2-3.5-8.2-8.2c0,4.6-3.5,8.2-8.3,8.2s-8.2-3.5-8.2-8.2c0,4.6-3.5,8.2-8.3,8.2s-8.2-3.5-8.2-8.2c0,4.6-3.5,8.2-8.3,8.2s-8.2-3.5-8.2-8.2c0,4.6-3.5,8.2-8.3,8.2s-8.2-3.5-8.2-8.2,3.5-8.3,8.2-8.3,8.3-3.5,8.3-8.1-3.5-8.3-8.3-8.3c4.8,0,8.3-3.5,8.3-8.2s3.5-8.3,8.1-8.3c-4.6,0-8.1-3.5-8.1-8.1s-3.5-8.3-8.3-8.3c4.8,0,8.3-3.5,8.3-8.2s3.5-8.2,8.1-8.2c-4.6,0-8.1-3.5-8.1-8.3s3.5-8.1,8.1-8.1c-4.6,0-8.1-3.5-8.1-8.3s-3.5-8.2-8.3-8.2c4.8,0,8.3-3.5,8.3-8.3s-3.5-8.1-8.3-8.1-8.2-3.5-8.2-8.3,3.5-8.2,8.2-8.2,8.3,4.6,8.3,8.2c0-3.5,3.5-8.2,8.2-8.2s8.3,4.6,8.3,8.2c0-3.5,3.5-8.2,8.1-8.2s8.3,4.6,8.3,8.2c0-3.5,3.5-8.2,8.1-8.2s8.3,4.6,8.3,8.2c0-3.5,3.5-8.2,8.1-8.2s8.2,4.6,8.2,8.2c0-3.5,3.5-8.2,8.3-8.2s8.2,4.6,8.2,8.2c0-3.5,3.5-8.2,8.3-8.2s8.2,4.6,8.2,8.2-3.5,8.3-8.2,8.3c4.6,0,8.2,4.6,8.2,8.1s-3.5,8.3-8.2,8.3-8.3-3.5-8.3-8.3-3.5-8.1-8.1-8.1-8.3,4.6-8.3,8.1c0-3.5-3.5-8.1-8.2-8.1s-8.1,4.6-8.1,8.1c0-3.5-3.5-8.1-8.3-8.1s-8.1,4.6-8.1,8.1c0-3.5-3.5-8.1-8.3-8.1s-8.1,4.6-8.1,8.1-3.5,8.3-8.3,8.3M1494.7,182.3c0,4.6-3.5,8.2-8.2,8.2s-8.3-3.5-8.3-8.2c0,4.6-3.5,8.2-8.1,8.2s-8.3-3.5-8.3-8.2,4.8-8.3,8.3-8.3c-3.5,0-8.3-3.5-8.3-8.2s4.8-8.3,8.3-8.3c-3.5,0-8.3-3.5-8.3-8.1s-3.5-8.3-8.1-8.3-8.3-3.5-8.3-8.2-3.5-8.3-8.2-8.3-8.2-3.5-8.2-8.1-3.5-8.1-8.3-8.1-8.2-3.5-8.2-8.3-3.5-8.2-8.3-8.2-8.1,3.5-8.1,8.2-3.5,8.3-8.3,8.3c4.8,0,8.3,3.5,8.3,8.1s4.6,8.2,8.1,8.2c-3.5,0-8.1,3.5-8.1,8.3s-3.5,8.2-8.3,8.2c4.8,0,8.3,3.5,8.3,8.3s4.6,8.2,8.1,8.2c-3.5,0-8.1,3.5-8.1,8.3s-3.5,8.1-8.3,8.1c4.8,0,8.3,3.5,8.3,8.3s-3.5,8.2-8.3,8.2-8.2-3.5-8.2-8.2c0,4.6-3.5,8.2-8.3,8.2s-8.2-3.5-8.2-8.2,4.6-8.3,8.2-8.3,8.3-3.5,8.3-8.2,4.6-8.3,8.2-8.3c-3.5,0-8.2-3.5-8.2-8.1s-3.5-8.3-8.3-8.3c4.8,0,8.3-3.5,8.3-8.2s4.6-8.3,8.2-8.3c-3.5,0-8.2-3.5-8.2-8.1s-3.5-8.2-8.3-8.2c4.8,0,8.3-3.5,8.3-8.3s4.6-8.1,8.2-8.1c-3.5,0-8.2-3.5-8.2-8.3s-3.5-8.2-8.3-8.2c4.8,0,8.3-3.5,8.3-8.3s-3.5-8.1-8.3-8.1-8.2-3.5-8.2-8.3,4.6-8.2,8.2-8.2,8.3,3.5,8.3,8.2,4.6,8.3,8.2,8.3,8.3,3.5,8.3,8.1,4.6,8.3,8.1,8.3,8.3,3.5,8.3,8.2,4.6,8.3,8.2,8.3,8.3,3.5,8.3,8.1,4.6,8.3,8.2,8.3,8.2,3.5,8.2,8.1,4.8,8.1,8.3,8.1,8.1,3.5,8.1,8.3c0-4.8,4.8-8.3,8.3-8.3-3.5,0-8.3-3.5-8.3-8.1s-3.5-8.1-8.1-8.1c4.6,0,8.1-3.5,8.1-8.3s4.8-8.1,8.3-8.1c-3.5,0-8.3-3.5-8.3-8.3s-3.5-8.2-8.1-8.2c4.6,0,8.1-3.5,8.1-8.3s4.8-8.1,8.3-8.1c-3.5,0-8.3-3.5-8.3-8.3s4.8-8.2,8.3-8.2,8.1,3.5,8.1,8.2c0-4.6,4.8-8.2,8.3-8.2s8.2,3.5,8.2,8.2-3.5,8.3-8.2,8.3-8.3,3.5-8.3,8.1-3.5,8.3-8.1,8.3c4.6,0,8.1,3.5,8.1,8.2s4.8,8.3,8.3,8.3c-3.5,0-8.3,3.5-8.3,8.2s-3.5,8.3-8.1,8.3c4.6,0,8.1,3.5,8.1,8.1s4.8,8.2,8.3,8.2c-3.5,0-8.3,3.5-8.3,8.3s-3.5,8.2-8.1,8.2c4.6,0,8.1,3.5,8.1,8.3s4.8,8.2,8.3,8.2c-3.5,0-8.3,3.5-8.3,8.3s4.8,8.1,8.3,8.1,8.2,3.5,8.2,8.3M1264.9,75.2c4.8,0,8.3,4.6,8.3,8.2s3.5,8.3,8.1,8.3c-4.6,0-8.1,4.6-8.1,8.1s3.5,8.3,8.1,8.3,8.3-3.5,8.3-8.3c0,4.8,3.5,8.3,8.2,8.3s8.3-3.5,8.3-8.3,3.5-8.2,8.2-8.2,8.2,4.6,8.2,8.2-3.5,8.3-8.2,8.3c4.6,0,8.2,4.6,8.2,8.1s-3.5,8.1-8.2,8.1c4.6,0,8.2,4.8,8.2,8.3s-3.5,8.2-8.2,8.2-8.2-3.5-8.2-8.2-3.5-8.3-8.3-8.3-8.1-3.5-8.1-8.2c0,4.6-3.5,8.2-8.3,8.2s-8.1,4.8-8.1,8.3,3.5,8.1,8.1,8.1c-4.6,0-8.1,4.8-8.1,8.3s-3.5,8.2-8.3,8.2c4.8,0,8.3,4.8,8.3,8.3s3.5,8.1,8.1,8.1,8.3-3.5,8.3-8.1c0,4.6,3.5,8.1,8.2,8.1s8.3-3.5,8.3-8.1c0,4.6,3.5,8.1,8.2,8.1s8.1-3.5,8.1-8.1c0,4.6,3.5,8.1,8.3,8.1s8.1-3.5,8.1-8.1,3.5-8.3,8.3-8.3,8.2,4.8,8.2,8.3-3.5,8.1-8.2,8.1c4.6,0,8.2,4.8,8.2,8.3s-3.5,8.2-8.2,8.2-8.3-3.5-8.3-8.2c0,4.6-3.5,8.2-8.2,8.2s-8.3-3.5-8.3-8.2c0,4.6-3.5,8.2-8.1,8.2s-8.2-3.5-8.2-8.2c0,4.6-3.5,8.2-8.3,8.2s-8.2-3.5-8.2-8.2c0,4.6-3.5,8.2-8.3,8.2s-8.2-3.5-8.2-8.2c0,4.6-3.5,8.2-8.3,8.2s-8.1-3.5-8.1-8.2c0,4.6-3.5,8.2-8.3,8.2s-8.2-3.5-8.2-8.2,3.5-8.3,8.2-8.3,8.3-3.5,8.3-8.1-3.5-8.3-8.3-8.3c4.8,0,8.3-3.5,8.3-8.2s3.5-8.3,8.1-8.3c-4.6,0-8.1-3.5-8.1-8.1s-3.5-8.3-8.3-8.3c4.8,0,8.3-3.5,8.3-8.2s3.5-8.2,8.1-8.2c-4.6,0-8.1-3.5-8.1-8.3s3.5-8.1,8.1-8.1c-4.6,0-8.1-3.5-8.1-8.3s-3.5-8.2-8.3-8.2c4.8,0,8.3-3.5,8.3-8.3s-3.5-8.1-8.3-8.1-8.2-3.5-8.2-8.3,3.5-8.2,8.2-8.2,8.3,4.6,8.3,8.2c0-3.5,3.5-8.2,8.1-8.2s8.3,4.6,8.3,8.2c0-3.5,3.5-8.2,8.1-8.2s8.3,4.6,8.3,8.2c0-3.5,3.5-8.2,8.1-8.2s8.4,4.6,8.4,8.2c0-3.5,3.5-8.2,8.1-8.2s8.2,4.6,8.2,8.2c0-3.5,3.5-8.2,8.3-8.2s8.2,4.6,8.2,8.2c0-3.5,3.5-8.2,8.3-8.2s8.2,4.6,8.2,8.2-3.5,8.3-8.2,8.3c4.6,0,8.2,4.6,8.2,8.1s-3.5,8.3-8.2,8.3-8.3-3.5-8.3-8.3-3.5-8.1-8.1-8.1-8.3,4.6-8.3,8.1c0-3.5-3.5-8.1-8.2-8.1s-8.1,4.6-8.1,8.1c0-3.5-3.5-8.1-8.3-8.1s-8.1,4.6-8.1,8.1c0-3.5-3.5-8.1-8.3-8.1s-8.1,4.6-8.1,8.1-3.5,8.3-8.3,8.3M1232.8,50.5c0,4.4-3.7,8.2-8.3,8.2s-8.1,3.7-8.1,8.3-3.7,8.1-8.3,8.1c4.6,0,8.3,3.7,8.3,8.2s-3.7,8.2-8.3,8.2-8.2,3.7-8.2,8.3,3.7,8.1,8.2,8.1c-4.4,0-8.2,3.7-8.2,8.3s-3.7,8.2-8.2,8.2c4.4,0,8.2,3.7,8.2,8.3s3.7,8.3,8.2,8.3c-4.4,0-8.2,3.5-8.2,8.2s-3.7,8.2-8.2,8.2-8.1,3.7-8.1,8.2-3.7,8.3-8.3,8.3-8.2,3.7-8.2,8.2-3.7,8.3-8.3,8.3-8.3-3.7-8.3-8.3-3.5-8.2-8.2-8.2-8.3-3.7-8.3-8.3-3.5-8.2-8.2-8.2-8.2-3.7-8.2-8.2-3.7-8.2-8.2-8.2c4.4,0,8.2-3.7,8.2-8.3s3.7-8.3,8.2-8.3c-4.4,0-8.2-3.5-8.2-8.1s-3.7-8.3-8.2-8.3c4.4,0,8.2-3.5,8.2-8.1s-3.7-8.3-8.2-8.3-8.3-3.7-8.3-8.2,3.7-8.2,8.3-8.2c-4.6,0-8.3-3.7-8.3-8.1s-3.7-8.3-8.2-8.3-8.3-3.7-8.3-8.2,3.7-8.3,8.3-8.3,8.2,3.7,8.2,8.3c0-4.6,3.7-8.3,8.3-8.3s8.2,3.7,8.2,8.3-3.7,8.2-8.2,8.2c4.4,0,8.2,3.7,8.2,8.3s3.7,8.2,8.2,8.2c-4.4,0-8.2,3.7-8.2,8.1s3.7,8.1,8.2,8.1,8.2,3.7,8.2,8.4-3.5,8.2-8.2,8.2c4.6,0,8.2,3.7,8.2,8.3s3.7,8.2,8.3,8.2c-4.6,0-8.3,3.7-8.3,8.3s-3.5,8.3-8.2,8.3c4.6,0,8.2,3.5,8.2,8.2s3.7,8.2,8.3,8.2,8.2,3.7,8.2,8.2,3.7,8.3,8.3,8.3,8.3-3.7,8.3-8.3,3.5-8.2,8.2-8.2,8.3-3.7,8.3-8.1,3.5-8.2,8.1-8.2c-4.6,0-8.1-3.7-8.1-8.3s-3.7-8.3-8.3-8.3c4.6,0,8.3-3.5,8.3-8.2s3.5-8.3,8.1-8.3c-4.6,0-8.1-3.5-8.1-8.2s3.5-8.4,8.1-8.4,8.2-3.7,8.2-8.1-3.7-8.1-8.2-8.1c4.4,0,8.2-3.7,8.2-8.2s3.7-8.3,8.2-8.3c-4.4,0-8.2-3.7-8.2-8.2s3.7-8.3,8.2-8.3,8.3,3.7,8.3,8.3c0-4.6,3.7-8.3,8.1-8.3s8.3,3.7,8.3,8.3M933,99.8c0,4.5-3.7,8.3-8.3,8.3s-8-3.9-8-8.3c0,4.5-3.9,8.3-8.3,8.3s-8.3-3.9-8.3-8.3c0,4.5-3.5,8.3-8.2,8.3s-8.4-3.9-8.4-8.3,3.7-8.2,8.4-8.2c-4.6,0-8.4-3.7-8.4-8.3s3.7-8.2,8.4-8.2,8.1-3.7,8.1-8.1,3.7-8.4,8.3-8.4,8.3,3.7,8.3,8.3,3.5,8.2,8,8.2,8.3,3.5,8.3,8.2-3.7,8.3-8.3,8.3c4.6,0,8.3,3.5,8.3,8.2M957.8,174c-4.6,0-8.3-3.7-8.3-8.4s3.7-8.2,8.3-8.2,8.2-3.5,8.2-8.1-3.9-8.3-8.1-8.3-8.3-3.5-8.3-8.2,3.7-8.3,8.3-8.3c-4.6,0-8.3-3.7-8.3-8s3.7-8.3,8.3-8.3c-4.6,0-8.3-3.9-8.3-8.3s-3.7-8.2-8.3-8.2c4.6,0,8.3-3.7,8.3-8.3s-3.7-8.1-8.3-8.1-8.2-3.7-8.2-8.2-3.7-8.3-8.3-8.3-8-3.5-8-8.2-3.9-8.3-8.3-8.3-8.3,3.7-8.3,8.3-3.5,8.2-8.2,8.2-8.3,3.7-8.3,8.3-3.5,8.2-8,8.2-8.3,3.5-8.3,8.1,3.7,8.3,8.3,8.3c-4.6,0-8.3,3.5-8.3,8.2s-3.9,8.3-8.3,8.3c4.4,0,8.3,3.7,8.3,8.3s-3.9,8-8.3,8c4.4,0,8.3,3.9,8.3,8.3s-3.9,8.2-8.3,8.2-8.1,3.7-8.1,8.3,3.7,8.1,8.1,8.1,8.3,3.7,8.3,8.2-3.9,8.4-8.3,8.4-8.1,3.5-8.1,8.1,3.7,8.3,8.1,8.3,8.3-3.7,8.3-8.3c0,4.6,3.7,8.3,8.3,8.3s8-3.7,8-8.3-3.5-8.1-8-8.1c4.4,0,8-3.7,8-8.4s-3.5-8.1-8-8.1-8.3-3.5-8.3-8.2,3.7-8.3,8.3-8.3,8-3.5,8-8.1-3.5-8.3-8-8.3c4.4,0,8-3.7,8-8,0,4.3,3.7,8,8.4,8s8.1-3.7,8.1-8c0,4.3,3.7,8,8.3,8s8.3-3.7,8.3-8c0,4.3,3.5,8,8,8s8.3-3.7,8.3-8c0,4.3,3.5,8,8.1,8-4.6,0-8.1,3.9-8.1,8.3s3.5,8.1,8.1,8.1,8.3,3.7,8.3,8.3-3.7,8.2-8.3,8.2-8.1,3.7-8.1,8.1,3.5,8.3,8.1,8.3c-4.6,0-8.1,3.5-8.1,8.2s3.5,8.3,8.1,8.3,8.3-3.7,8.3-8.3c0,4.6,3.7,8.3,8.3,8.3s8.1-3.7,8.1-8.3-3.9-8.1-8.2-8.1M818.5,108.2c-4.8,0-8.3,3.5-8.3,8,0-4.4-3.5-8-8-8s-8.3-4.8-8.3-8.3c0,3.5-3.5,8.3-8.3,8.3s-8.1,3.5-8.1,8c0-4.4-3.5-8-8.3-8s-8.2-4.8-8.2-8.3,3.5-8.4,8.2-8.4c-4.6,0-8.2-4.6-8.2-8.1s-3.5-8.3-8.1-8.3c4.6,0,8.1-4.8,8.1-8.3s3.5-8,8.2-8,8.3,3.5,8.3,8c0-4.5,3.5-8,8.1-8s8.3,3.5,8.3,8c0-4.5,3.5-8,8.3-8s8,3.5,8,8c0-4.5,3.5-8,8.3-8s8.3,3.5,8.3,8-3.5,8.3-8.3,8.3c4.8,0,8.3,3.5,8.3,8.3s-3.5,8.2-8.3,8.2c4.8,0,8.3,3.5,8.3,8.3s-3.5,8.3-8.3,8.3M843.3,83.3c0-4.8-3.5-8.3-8.3-8.3,4.8,0,8.3-4.8,8.3-8.3s-3.5-8-8.3-8-8.2-4.8-8.2-8.3-3.5-8.2-8.3-8.2-8.3,3.5-8.3,8.1c0-4.6-3.5-8.1-8-8.1s-8.3,3.5-8.3,8.1c0-4.6-3.5-8.1-8.4-8.1s-8.1,3.5-8.1,8.1c0-4.6-3.5-8.1-8.3-8.1s-8.2,3.5-8.2,8.1c0-4.6-3.5-8.1-8.1-8.1s-8.3,3.5-8.3,8.1c0-4.6-3.5-8.1-8.2-8.1s-8.3,3.5-8.3,8.1,3.5,8.3,8.3,8.3,8.2,3.5,8.2,8-3.5,8.3-8.1,8.3c4.6,0,8.1,3.5,8.1,8.3s3.5,8.1,8.3,8.1c-4.8,0-8.3,3.5-8.3,8.4s3.5,8.3,8.3,8.3c-4.8,0-8.3,3.5-8.3,8s3.5,8.3,8.3,8.3c-4.8,0-8.3,3.5-8.3,8.3s-3.5,8.2-8.1,8.2c4.6,0,8.1,3.5,8.1,8.3s3.5,8.2,8.3,8.2c-4.8,0-8.3,3.5-8.3,8.2s-3.5,8.3-8.1,8.3-8.3,3.5-8.3,8.1,3.5,8.3,8.3,8.3,8.2-4.8,8.2-8.3c0,3.5,3.5,8.3,8.3,8.3s8.1-4.8,8.1-8.3c0,3.5,3.5,8.3,8.2,8.3s8.3-4.8,8.3-8.3-3.5-8.1-8.3-8.1-8.2-4.6-8.2-8.3,3.5-8.2,8.2-8.2c-4.6,0-8.2-4.6-8.2-8.2s-3.5-8.3-8.1-8.3c4.6,0,8.1-4.6,8.1-8.2s3.5-8.3,8.2-8.3,8.3,3.5,8.3,8.3c0-4.8,3.5-8.3,8.1-8.3s8.3-4.6,8.3-8.3c0,3.7,3.5,8.3,8.3,8.3s8,3.5,8,8.3c0-4.8,3.5-8.3,8.3-8.3s8.3-4.6,8.3-8.3,3.5-8,8.2-8,8.3-4.8,8.3-8.3-3.5-8.3-8.3-8.3c4.8,0,8.3-4.7,8.3-8.2M712.3,173.9c4.6,0,8.2,3.5,8.2,8.3s-3.5,8.2-8.2,8.2-8.3-3.5-8.3-8.2c0,4.6-3.5,8.2-8.2,8.2s-8.3-3.5-8.3-8.2,3.5-8.3,8.3-8.3,8.2-3.5,8.2-8.1-3.5-8.3-8.2-8.3-8.3-3.5-8.3-8.2-3.5-8.3-8.1-8.3c4.6,0,8.1-3.5,8.1-8.1s-3.5-8.3-8.1-8.3c4.6,0,8.1-3.5,8.1-8.2s-3.5-8.1-8.1-8.1c4.6,0,8.1-3.5,8.1-8.3s-3.5-8.1-8.1-8.1-8.3,3.5-8.3,8.1-3.5,8.3-8.2,8.3-8.4,3.5-8.4,8.2-3.5,8.2-8.1,8.2-8.1-3.5-8.1-8.2-3.5-8.2-8.3-8.2-8.2-3.5-8.2-8.3-3.5-8.1-8.3-8.1-8.1,3.5-8.1,8.1,3.5,8.3,8.1,8.3c-4.6,0-8.1,3.5-8.1,8.2s3.5,8.1,8.1,8.1c-4.6,0-8.1,3.5-8.1,8.3s3.5,8.1,8.1,8.1c-4.6,0-8.1,3.5-8.1,8.3s-3.5,8.2-8.3,8.2-8.2,3.5-8.2,8.3,3.5,8.1,8.2,8.1,8.3,3.5,8.3,8.3-3.5,8.2-8.3,8.2-8.2-3.5-8.2-8.2c0,4.6-3.5,8.2-8.3,8.2s-8.2-3.5-8.2-8.2,3.5-8.3,8.2-8.3c-4.6,0-8.2-3.5-8.2-8.2s3.5-8.3,8.2-8.3,8.3-3.5,8.3-8.1-3.5-8.3-8.3-8.3c4.8,0,8.3-3.5,8.3-8.2s3.5-8.3,8.2-8.3c-4.6,0-8.2-3.5-8.2-8.1s3.5-8.2,8.2-8.2c-4.6,0-8.2-3.5-8.2-8.3s3.5-8.1,8.2-8.1c-4.6,0-8.2-3.5-8.2-8.3s-3.5-8.2-8.3-8.2c4.8,0,8.3-3.5,8.3-8.3s-3.5-8.1-8.3-8.1-8.2-3.5-8.2-8.3,3.5-8.2,8.2-8.2,8.3,3.5,8.3,8.2,3.5,8.3,8.2,8.3,8.3,3.5,8.3,8.1,3.5,8.3,8.1,8.3,8.3,3.5,8.3,8.2,3.5,8.3,8.2,8.3,8.3,3.5,8.3,8.1,3.5,8.3,8.1,8.3,8.1-3.5,8.1-8.3,3.5-8.1,8.4-8.1,8.2-3.5,8.2-8.3,3.5-8.2,8.3-8.2,8.1-3.5,8.1-8.3,3.5-8.1,8.3-8.1,8.2-3.5,8.2-8.3,3.5-8.2,8.3-8.2,8.2,3.5,8.2,8.2-3.5,8.3-8.2,8.3-8.3,3.5-8.3,8.1,3.5,8.3,8.3,8.3c-4.8,0-8.3,3.5-8.3,8.2s-3.5,8.3-8.2,8.3c4.6,0,8.2,3.5,8.2,8.1s-3.5,8.3-8.2,8.3c4.6,0,8.2,3.5,8.2,8.1s-3.5,8.1-8.2,8.1c4.6,0,8.2,3.5,8.2,8.3s3.5,8.2,8.3,8.2c-4.8,0-8.3,3.5-8.3,8.3s3.5,8.1,8.3,8.1,8.2,3.5,8.2,8.3-3.5,8.2-8.2,8.2M531.8,99.8c0,4.5-3.7,8.3-8.3,8.3s-8-3.9-8-8.3c0,4.5-3.9,8.3-8.3,8.3s-8.3-3.9-8.3-8.3c0,4.5-3.5,8.3-8.2,8.3s-8.3-3.9-8.3-8.3,3.7-8.2,8.3-8.2c-4.6,0-8.3-3.7-8.3-8.3s3.7-8.2,8.3-8.2,8.1-3.7,8.1-8.1,3.7-8.4,8.3-8.4,8.3,3.7,8.3,8.3,3.5,8.2,8,8.2,8.3,3.5,8.3,8.2-3.7,8.3-8.3,8.3c4.6,0,8.3,3.5,8.3,8.2M556.7,174c-4.6,0-8.3-3.7-8.3-8.4s3.7-8.2,8.3-8.2,8.2-3.5,8.2-8.1-3.9-8.3-8.1-8.3-8.3-3.5-8.3-8.2,3.7-8.3,8.3-8.3c-4.6,0-8.3-3.7-8.3-8s3.7-8.3,8.3-8.3c-4.6,0-8.3-3.9-8.3-8.3s-3.7-8.2-8.3-8.2c4.6,0,8.3-3.7,8.3-8.3s-3.7-8.1-8.3-8.1-8.2-3.7-8.2-8.2-3.7-8.3-8.3-8.3-8-3.5-8-8.2-3.9-8.3-8.3-8.3-8.3,3.7-8.3,8.3-3.5,8.2-8.2,8.2-8.3,3.7-8.3,8.3-3.5,8.2-8,8.2-8.3,3.5-8.3,8.1,3.7,8.3,8.3,8.3c-4.6,0-8.3,3.5-8.3,8.2s-3.9,8.3-8.3,8.3c4.4,0,8.3,3.7,8.3,8.3s-3.9,8-8.3,8c4.4,0,8.3,3.9,8.3,8.3s-3.9,8.2-8.3,8.2-8.2,3.7-8.2,8.3,3.7,8.1,8.1,8.1,8.3,3.7,8.3,8.2-3.9,8.4-8.3,8.4-8.2,3.5-8.2,8.1,3.7,8.3,8.1,8.3,8.3-3.7,8.3-8.3c0,4.6,3.7,8.3,8.3,8.3s8-3.7,8-8.3-3.5-8.1-8-8.1c4.4,0,8-3.7,8-8.4s-3.5-8.1-8-8.1-8.3-3.5-8.3-8.2,3.7-8.3,8.3-8.3,8-3.5,8-8.1-3.5-8.3-8-8.3c4.4,0,8-3.7,8-8,0,4.3,3.7,8,8.3,8s8.1-3.7,8.1-8c0,4.3,3.7,8,8.3,8s8.3-3.7,8.3-8c0,4.3,3.5,8,8,8s8.3-3.7,8.3-8c0,4.3,3.5,8,8.1,8-4.6,0-8.1,3.9-8.1,8.3s3.5,8.1,8.1,8.1,8.3,3.7,8.3,8.3-3.7,8.2-8.3,8.2-8.1,3.7-8.1,8.1,3.5,8.3,8.1,8.3c-4.6,0-8.1,3.5-8.1,8.2s3.5,8.3,8.1,8.3,8.3-3.7,8.3-8.3c0,4.6,3.7,8.3,8.3,8.3s8.1-3.7,8.1-8.3-3.9-8.1-8.2-8.1M442.1,182.3c0,4.6-3.5,8.2-8.2,8.2s-8.3-3.5-8.3-8.2c0,4.6-3.5,8.2-8.1,8.2s-8.3-3.5-8.3-8.2,4.8-8.3,8.3-8.3c-3.5,0-8.3-3.5-8.3-8.2s4.8-8.3,8.3-8.3c-3.5,0-8.3-3.5-8.3-8.1s-3.5-8.3-8.1-8.3-8.3-3.5-8.3-8.2-3.5-8.3-8.2-8.3-8.2-3.5-8.2-8.1-3.5-8.1-8.3-8.1-8.2-3.5-8.2-8.3-3.5-8.2-8.3-8.2-8.1,3.5-8.1,8.2-3.5,8.3-8.3,8.3c4.8,0,8.3,3.5,8.3,8.1s4.6,8.2,8.1,8.2c-3.5,0-8.1,3.5-8.1,8.3s-3.5,8.2-8.3,8.2c4.8,0,8.3,3.5,8.3,8.3s4.6,8.2,8.1,8.2c-3.5,0-8.1,3.5-8.1,8.3s-3.5,8.1-8.3,8.1c4.8,0,8.3,3.5,8.3,8.3s-3.5,8.2-8.3,8.2-8.2-3.5-8.2-8.2c0,4.6-3.5,8.2-8.3,8.2s-8.2-3.5-8.2-8.2,4.6-8.3,8.2-8.3,8.3-3.5,8.3-8.2,4.6-8.3,8.2-8.3c-3.5,0-8.2-3.5-8.2-8.1s-3.5-8.3-8.3-8.3c4.8,0,8.3-3.5,8.3-8.2s4.6-8.3,8.2-8.3c-3.5,0-8.2-3.5-8.2-8.1s-3.5-8.2-8.3-8.2c4.8,0,8.3-3.5,8.3-8.3s4.6-8.1,8.2-8.1c-3.5,0-8.2-3.5-8.2-8.3s-3.5-8.2-8.3-8.2c4.8,0,8.3-3.5,8.3-8.3s-3.5-8.1-8.3-8.1-8.2-3.5-8.2-8.3,4.6-8.2,8.2-8.2,8.3,3.5,8.3,8.2,4.6,8.3,8.2,8.3,8.3,3.5,8.3,8.1,4.6,8.3,8.1,8.3,8.3,3.5,8.3,8.2,4.6,8.3,8.2,8.3,8.3,3.5,8.3,8.1,4.6,8.3,8.2,8.3,8.2,3.5,8.2,8.1,4.8,8.1,8.3,8.1,8.1,3.5,8.1,8.3c0-4.8,4.8-8.3,8.3-8.3-3.5,0-8.3-3.5-8.3-8.1s-3.5-8.1-8.1-8.1c4.6,0,8.1-3.5,8.1-8.3s4.8-8.1,8.3-8.1c-3.5,0-8.3-3.5-8.3-8.3s-3.5-8.2-8.1-8.2c4.6,0,8.1-3.5,8.1-8.3s4.8-8.1,8.3-8.1c-3.5,0-8.3-3.5-8.3-8.3s4.8-8.2,8.3-8.2,8.1,3.5,8.1,8.2c0-4.6,4.8-8.2,8.3-8.2s8.2,3.5,8.2,8.2-3.5,8.3-8.2,8.3-8.3,3.5-8.3,8.1-3.5,8.3-8.1,8.3c4.6,0,8.1,3.5,8.1,8.2s4.8,8.3,8.3,8.3c-3.5,0-8.3,3.5-8.3,8.2s-3.5,8.3-8.1,8.3c4.6,0,8.1,3.5,8.1,8.1s4.8,8.2,8.3,8.2c-3.5,0-8.3,3.5-8.3,8.3s-3.5,8.2-8.1,8.2c4.6,0,8.1,3.5,8.1,8.3s4.8,8.2,8.3,8.2c-3.5,0-8.3,3.5-8.3,8.3s4.8,8.1,8.3,8.1,8.2,3.5,8.2,8.3M303,182.3c0,4.6-3.5,8.2-8.2,8.2s-8.2-3.5-8.2-8.2c0,4.6-3.5,8.2-8.3,8.2s-8.1-3.5-8.1-8.2c0,4.6-3.5,8.2-8.3,8.2s-8.2-3.5-8.2-8.2c0,4.6-3.5,8.2-8.3,8.2s-8.2-3.5-8.2-8.2c0,4.6-3.5,8.2-8.3,8.2s-8.2-3.5-8.2-8.2,3.5-8.3,8.2-8.3,8.3-3.5,8.3-8.1c0,4.6,3.5,8.1,8.1,8.1s8.3-3.5,8.3-8.1-3.5-8.3-8.3-8.3c4.8,0,8.3-3.5,8.3-8.2s3.5-8.3,8.2-8.3c-4.6,0-8.2-3.5-8.2-8.2s-3.5-8.3-8.3-8.3c4.8,0,8.3-3.5,8.3-8.2s3.5-8.2,8.2-8.2c-4.6,0-8.2-3.5-8.2-8.3s-3.5-8.2-8.3-8.2c4.8,0,8.3-3.5,8.3-8.3s3.5-8.2,8.2-8.2c-4.6,0-8.2-3.5-8.2-8.3s-3.5-8.1-8.3-8.1-8.1,3.5-8.1,8.1c0-4.6-3.5-8.1-8.3-8.1s-8.2-3.5-8.2-8.3,3.5-8.2,8.2-8.2,8.3,3.5,8.3,8.2c0-4.6,3.5-8.2,8.2-8.2s8.3,3.5,8.3,8.2c0-4.6,3.5-8.2,8.1-8.2s8.3,3.5,8.3,8.2c0-4.6,3.5-8.2,8.1-8.2s8.3,3.5,8.3,8.2c0-4.6,3.5-8.2,8.2-8.2s8.2,3.5,8.2,8.2-3.5,8.3-8.2,8.3-8.2,3.5-8.2,8.1c0-4.6-3.5-8.1-8.3-8.1s-8.1,3.5-8.1,8.1,3.5,8.3,8.1,8.3c-4.6,0-8.1,3.5-8.1,8.2s-3.5,8.3-8.3,8.3c4.8,0,8.3,3.5,8.3,8.2s3.5,8.3,8.1,8.3c-4.6,0-8.1,3.5-8.1,8.2s-3.5,8.2-8.3,8.2c4.8,0,8.3,3.5,8.3,8.3s3.5,8.2,8.1,8.2c-4.6,0-8.1,3.5-8.1,8.3s-3.5,8.2-8.3,8.2c4.8,0,8.3,3.5,8.3,8.3s3.5,8.1,8.1,8.1,8.3-3.5,8.3-8.1c0,4.6,3.5,8.1,8.2,8.1s8.2,3.5,8.2,8.3M196.8,132.8c0,4.6,3.5,8.1,8.3,8.1-4.8,0-8.3,3.5-8.3,8.3s3.5,8.1,8.3,8.1c-4.8,0-8.3,3.5-8.3,8.3s3.5,8.1,8.3,8.1,8.2,3.5,8.2,8.3-3.5,8.2-8.2,8.2-8.3-3.5-8.3-8.2c0,4.6-3.5,8.2-8.1,8.2s-8.3-3.5-8.3-8.2,3.5-8.3,8.3-8.3c-4.8,0-8.3-3.5-8.3-8.2s3.5-8.3,8.3-8.3c-4.8,0-8.3-3.5-8.3-8.1s3.5-8.3,8.3-8.3c-4.8,0-8.3-3.5-8.3-8.1s3.5-8.3,8.3-8.3,8.1-3.5,8.1-8.1-3.5-8.1-8.1-8.1-8.3,3.5-8.3,8.1-3.5,8.2-8.2,8.2-8.2-3.5-8.2-8.2c0,4.6-3.5,8.2-8.3,8.2s-8.2-3.5-8.2-8.2c0,4.6-3.5,8.2-8.3,8.2s-8.2-3.5-8.2-8.2-3.5-8.1-8.3-8.1-8.1,3.5-8.1,8.1,3.5,8.1,8.1,8.1,8.3,3.5,8.3,8.3-3.5,8.2-8.3,8.2c4.8,0,8.3,3.5,8.3,8.3s-3.5,8.2-8.3,8.2c4.8,0,8.3,3.5,8.3,8.3s-3.5,8.2-8.3,8.2c4.8,0,8.3,3.5,8.3,8.3s-3.5,8.2-8.3,8.2-8.1-3.5-8.1-8.2c0,4.6-3.5,8.2-8.3,8.2s-8.2-3.5-8.2-8.2,3.5-8.3,8.2-8.3,8.3-3.5,8.3-8.1-3.5-8.3-8.3-8.3c4.8,0,8.3-3.5,8.3-8.2s-3.5-8.3-8.3-8.3c4.8,0,8.3-3.5,8.3-8.2s-3.5-8.3-8.3-8.3-8.2-3.5-8.2-8.2,3.5-8.2,8.2-8.2,8.3-3.5,8.3-8.3-3.5-8.1-8.3-8.1c4.8,0,8.3-3.5,8.3-8.3s-3.5-8.1-8.3-8.1c4.8,0,8.3-3.5,8.3-8.3s-3.5-8.1-8.3-8.1-8.2-3.5-8.2-8.3,3.5-8.2,8.2-8.2,8.3,3.5,8.3,8.2c0-4.6,3.5-8.2,8.2-8.2s8.3,3.5,8.3,8.2-3.5,8.3-8.3,8.3c4.8,0,8.3,3.5,8.3,8.1s-3.5,8.3-8.3,8.3c4.8,0,8.3,3.5,8.3,8.1s-3.5,8.3-8.3,8.3c4.8,0,8.3,3.5,8.3,8.1s3.5,8.3,8.1,8.3,8.3-3.5,8.3-8.3c0,4.8,3.5,8.3,8.2,8.3s8.3-3.5,8.3-8.3c0,4.8,3.5,8.3,8.2,8.3s8.1-3.5,8.1-8.3,3.5-8.2,8.3-8.2c-4.8,0-8.3-3.5-8.3-8.3s3.5-8.2,8.3-8.2c-4.8,0-8.3-3.5-8.3-8.3s3.5-8.1,8.3-8.1c-4.8,0-8.3-3.5-8.3-8.3s3.5-8.2,8.3-8.2,8.1,3.5,8.1,8.2c0-4.6,3.5-8.2,8.3-8.2s8.2,3.5,8.2,8.2-3.5,8.3-8.2,8.3-8.3,3.5-8.3,8.1,3.5,8.3,8.3,8.3c-4.8,0-8.3,3.5-8.3,8.2s3.5,8.3,8.3,8.3c-4.8,0-8.3,3.5-8.3,8.2s3.5,8.3,8.3,8.3,8.2,3.5,8.2,8.2-3.5,8.2-8.2,8.2-8.3,3.5-8.3,8.3M90.6,165.8c0,4.4-3.7,8.2-8.2,8.2s-8.3,3.7-8.3,8.1-3.7,8.3-8.2,8.3-8.3-3.7-8.3-8.3c0,4.6-3.7,8.3-8.1,8.3s-8.3-3.7-8.3-8.3c0,4.6-3.7,8.3-8.2,8.3s-8.2-3.7-8.2-8.3-3.9-8.1-8.3-8.1-8.2-3.7-8.2-8.2S4.4,157.4,0,157.4c4.4,0,8.3-3.7,8.3-8.2s3.7-8.3,8.2-8.3c-4.4,0-8.2-3.7-8.2-8.2S4.4,124.4,0,124.4c4.4,0,8.3-3.7,8.3-8.1S4.4,108.2,0,108.2c4.4,0,8.3-3.9,8.3-8.3s3.7-8.2,8.2-8.2c-4.4,0-8.2-3.9-8.2-8.3S4.4,75.2,0,75.2c4.4,0,8.3-3.7,8.3-8.3s3.7-8.1,8.2-8.1,8.3-3.7,8.3-8.2,3.7-8.3,8.2-8.3,8.2,3.9,8.2,8.3c0-4.4,3.9-8.3,8.3-8.3s8.1,3.9,8.1,8.3c0-4.4,3.9-8.3,8.3-8.3s8.2,3.9,8.2,8.3,3.9,8.1,8.3,8.1,8.2,3.7,8.2,8.2-3.7,8.3-8.2,8.3-8.3-3.7-8.3-8.3-3.7-8.2-8.1-8.2-8.3,3.7-8.3,8.2c0-4.4-3.7-8.2-8.2-8.2s-8.3,3.7-8.3,8.2c0-4.4-3.7-8.1-8.2-8.1s-8.1,3.7-8.1,8.1-3.9,8.3-8.3,8.3c4.4,0,8.3,3.7,8.3,8.2s3.7,8.3,8.1,8.3c-4.4,0-8.1,3.7-8.1,8.2s-3.9,8.3-8.3,8.3c4.4,0,8.3,3.7,8.3,8.1s-3.9,8.1-8.3,8.1c4.4,0,8.3,3.9,8.3,8.3s3.7,8.2,8.1,8.2c-4.4,0-8.1,3.9-8.1,8.3s-3.9,8.2-8.3,8.2c4.4,0,8.3,3.7,8.3,8.3s3.7,8.2,8.1,8.2,8.1-3.7,8.1-8.2c0,4.5,3.9,8.2,8.3,8.2s8.1-3.7,8.1-8.2c0,4.4,3.9,8.2,8.3,8.2s8.1-3.7,8.1-8.2,3.9-8.3,8.3-8.3,8.2,3.7,8.2,8.3"/>
</svg>