<?xml version="1.0" encoding="UTF-8"?>
<svg id="Layer_1" xmlns="http://www.w3.org/2000/svg" version="1.1" viewBox="0 0 3669.6 1222.5">
  <!-- Generator: Adobe Illustrator 29.4.0, SVG Export Plug-In . SVG Version: 2.1.0 Build 152)  -->
  <defs>
    <style>
      .st0 {
        fill: #ff4026;
      }
    </style>
  </defs>
  <path class="st0" d="M2890.1,812.9c16.2,0,29.3,13.1,29.3,29.3s-13.1,29.3-29.3,29.3-29.3-13.1-29.3-29.3-13.1-29.3-29.3-29.3c16.2,0,29.3-13.1,29.3-29.3s-13.1-29.3-29.3-29.3-29.3,13.1-29.3,29.3c0-16.2-13.1-29.3-29.3-29.3s-29.3,13.1-29.3,29.3c0-16.2-13.1-29.3-29.3-29.3s-29.3,13.1-29.3,29.3,13.1,29.3,29.3,29.3c-16.2,0-29.3,13.1-29.3,29.3s-13.1,29.3-29.3,29.3c16.2,0,29.3,13.1,29.3,29.3s13.1,29.3,29.3,29.3c-16.2,0-29.3,13.1-29.3,29.3s-13.1,29.3-29.3,29.3c16.2,0,29.3,13.1,29.3,29.3s13.1,29.3,29.3,29.3c-16.2,0-29.3,13.1-29.3,29.3s-13.1,29.3-29.3,29.3c16.2,0,29.3,13.1,29.3,29.3s13.1,29.3,29.3,29.3,29.3,13.1,29.3,29.3-13.1,29.3-29.3,29.3-29.3-13.1-29.3-29.3c0,16.2-13.1,29.3-29.3,29.3s-29.3-13.1-29.3-29.3c0,16.2-13.1,29.3-29.3,29.3s-29.3-13.1-29.3-29.3,13.1-29.3,29.3-29.3,29.3-13.1,29.3-29.3-13.1-29.3-29.3-29.3c16.2,0,29.3-13.1,29.3-29.3s13.1-29.3,29.3-29.3c-16.2,0-29.3-13.1-29.3-29.3s-13.1-29.3-29.3-29.3c16.2,0,29.3-13.1,29.3-29.3s13.1-29.3,29.3-29.3c-16.2,0-29.3-13.1-29.3-29.3s-13.1-29.3-29.3-29.3c16.2,0,29.3-13.1,29.3-29.3s13.1-29.3,29.3-29.3c-16.2,0-29.3-13.1-29.3-29.3s-13.1-29.3-29.3-29.3-29.3,13.1-29.3,29.3c0-16.2-13.1-29.3-29.3-29.3s-29.3,13.1-29.3,29.3c0-16.2-13.1-29.3-29.3-29.3s-29.3,13.1-29.3,29.3,13.1,29.3,29.3,29.3c-16.2,0-29.3,13.1-29.3,29.3s-13.1,29.3-29.3,29.3-29.3-13.1-29.3-29.3,13.1-29.3,29.3-29.3c-16.2,0-29.3-13.1-29.3-29.3s13.1-29.3,29.3-29.3c-16.2,0-29.3-13.1-29.3-29.3s13.1-29.3,29.3-29.3,29.3,13.1,29.3,29.3c0-16.2,13.1-29.3,29.3-29.3s29.3,13.1,29.3,29.3c0-16.2,13.1-29.3,29.3-29.3s29.3,13.1,29.3,29.3c0-16.2,13.1-29.3,29.3-29.3s29.3,13.1,29.3,29.3c0-16.2,13.1-29.3,29.3-29.3s29.3,13.1,29.3,29.3c0-16.2,13.1-29.3,29.3-29.3s29.3,13.1,29.3,29.3c0-16.2,13.1-29.3,29.3-29.3s29.3,13.1,29.3,29.3c0-16.2,13.1-29.3,29.3-29.3s29.3,13.1,29.3,29.3c0-16.2,13.1-29.3,29.3-29.3s29.3,13.1,29.3,29.3-13.1,29.3-29.3,29.3c16.2,0,29.3,13.1,29.3,29.3s-13.1,29.3-29.3,29.3"/>
  <path class="st0" d="M984.3,812.9c16.2,0,29.3,13.1,29.3,29.3s13.1,29.3,29.3,29.3c-16.2,0-29.3,13.1-29.3,29.3s13.1,29.3,29.3,29.3,29.3-13.1,29.3-29.3c0,16.2,13.1,29.3,29.3,29.3s29.3-13.1,29.3-29.3,13.1-29.3,29.3-29.3,29.3,13.1,29.3,29.3-13.1,29.3-29.3,29.3c16.2,0,29.3,13.1,29.3,29.3s-13.1,29.3-29.3,29.3c16.2,0,29.3,13.1,29.3,29.3s-13.1,29.3-29.3,29.3-29.3-13.1-29.3-29.3-13.1-29.3-29.3-29.3-29.3-13.1-29.3-29.3c0,16.2-13.1,29.3-29.3,29.3s-29.3,13.1-29.3,29.3,13.1,29.3,29.3,29.3c-16.2,0-29.3,13.1-29.3,29.3s-13.1,29.3-29.3,29.3c16.2,0,29.3,13.1,29.3,29.3s13.1,29.3,29.3,29.3,29.3-13.1,29.3-29.3c0,16.2,13.1,29.3,29.3,29.3s29.3-13.1,29.3-29.3c0,16.2,13.1,29.3,29.3,29.3s29.3-13.1,29.3-29.3c0,16.2,13.1,29.3,29.3,29.3s29.3-13.1,29.3-29.3,13.1-29.3,29.3-29.3,29.3,13.1,29.3,29.3-13.1,29.3-29.3,29.3c16.2,0,29.3,13.1,29.3,29.3s-13.1,29.3-29.3,29.3-29.3-13.1-29.3-29.3c0,16.2-13.1,29.3-29.3,29.3s-29.3-13.1-29.3-29.3c0,16.2-13.1,29.3-29.3,29.3s-29.3-13.1-29.3-29.3c0,16.2-13.1,29.3-29.3,29.3s-29.3-13.1-29.3-29.3c0,16.2-13.1,29.3-29.3,29.3s-29.3-13.1-29.3-29.3c0,16.2-13.1,29.3-29.3,29.3s-29.3-13.1-29.3-29.3c0,16.2-13.1,29.3-29.3,29.3s-29.3-13.1-29.3-29.3,13.1-29.3,29.3-29.3,29.3-13.1,29.3-29.3-13.1-29.3-29.3-29.3c16.2,0,29.3-13.1,29.3-29.3s13.1-29.3,29.3-29.3c-16.2,0-29.3-13.1-29.3-29.3s-13.1-29.3-29.3-29.3c16.2,0,29.3-13.1,29.3-29.3s13.1-29.3,29.3-29.3c-16.2,0-29.3-13.1-29.3-29.3s13.1-29.3,29.3-29.3c-16.2,0-29.3-13.1-29.3-29.3s-13.1-29.3-29.3-29.3c16.2,0,29.3-13.1,29.3-29.3s-13.1-29.3-29.3-29.3-29.3-13.1-29.3-29.3,13.1-29.3,29.3-29.3,29.3,13.1,29.3,29.3c0-16.2,13.1-29.3,29.3-29.3s29.3,13.1,29.3,29.3c0-16.2,13.1-29.3,29.3-29.3s29.3,13.1,29.3,29.3c0-16.2,13.1-29.3,29.3-29.3s29.3,13.1,29.3,29.3c0-16.2,13.1-29.3,29.3-29.3s29.3,13.1,29.3,29.3c0-16.2,13.1-29.3,29.3-29.3s29.3,13.1,29.3,29.3c0-16.2,13.1-29.3,29.3-29.3s29.3,13.1,29.3,29.3-13.1,29.3-29.3,29.3c16.2,0,29.3,13.1,29.3,29.3s-13.1,29.3-29.3,29.3-29.3-13.1-29.3-29.3-13.1-29.3-29.3-29.3-29.3,13.1-29.3,29.3c0-16.2-13.1-29.3-29.3-29.3s-29.3,13.1-29.3,29.3c0-16.2-13.1-29.3-29.3-29.3s-29.3,13.1-29.3,29.3c0-16.2-13.1-29.3-29.3-29.3s-29.3,13.1-29.3,29.3-13.1,29.3-29.3,29.3"/>
  <path class="st0" d="M2004.1,812.9c16.2,0,29.3,13.1,29.3,29.3s13.1,29.3,29.3,29.3c-16.2,0-29.3,13.1-29.3,29.3s13.1,29.3,29.3,29.3,29.3-13.1,29.3-29.3c0,16.2,13.1,29.3,29.3,29.3s29.3-13.1,29.3-29.3,13.1-29.3,29.3-29.3,29.3,13.1,29.3,29.3-13.1,29.3-29.3,29.3c16.2,0,29.3,13.1,29.3,29.3s-13.1,29.3-29.3,29.3c16.2,0,29.3,13.1,29.3,29.3s-13.1,29.3-29.3,29.3-29.3-13.1-29.3-29.3-13.1-29.3-29.3-29.3-29.3-13.1-29.3-29.3c0,16.2-13.1,29.3-29.3,29.3s-29.3,13.1-29.3,29.3,13.1,29.3,29.3,29.3c-16.2,0-29.3,13.1-29.3,29.3s-13.1,29.3-29.3,29.3c16.2,0,29.3,13.1,29.3,29.3s13.1,29.3,29.3,29.3,29.3-13.1,29.3-29.3c0,16.2,13.1,29.3,29.3,29.3s29.3-13.1,29.3-29.3c0,16.2,13.1,29.3,29.3,29.3s29.3-13.1,29.3-29.3c0,16.2,13.1,29.3,29.3,29.3s29.3-13.1,29.3-29.3,13.1-29.3,29.3-29.3,29.3,13.1,29.3,29.3-13.1,29.3-29.3,29.3c16.2,0,29.3,13.1,29.3,29.3s-13.1,29.3-29.3,29.3-29.3-13.1-29.3-29.3c0,16.2-13.1,29.3-29.3,29.3s-29.3-13.1-29.3-29.3c0,16.2-13.1,29.3-29.3,29.3s-29.3-13.1-29.3-29.3c0,16.2-13.1,29.3-29.3,29.3s-29.3-13.1-29.3-29.3c0,16.2-13.1,29.3-29.3,29.3s-29.3-13.1-29.3-29.3c0,16.2-13.1,29.3-29.3,29.3s-29.3-13.1-29.3-29.3c0,16.2-13.1,29.3-29.3,29.3s-29.3-13.1-29.3-29.3,13.1-29.3,29.3-29.3,29.3-13.1,29.3-29.3-13.1-29.3-29.3-29.3c16.2,0,29.3-13.1,29.3-29.3s13.1-29.3,29.3-29.3c-16.2,0-29.3-13.1-29.3-29.3s-13.1-29.3-29.3-29.3c16.2,0,29.3-13.1,29.3-29.3s13.1-29.3,29.3-29.3c-16.2,0-29.3-13.1-29.3-29.3s13.1-29.3,29.3-29.3c-16.2,0-29.3-13.1-29.3-29.3s-13.1-29.3-29.3-29.3c16.2,0,29.3-13.1,29.3-29.3s-13.1-29.3-29.3-29.3-29.3-13.1-29.3-29.3,13.1-29.3,29.3-29.3,29.3,13.1,29.3,29.3c0-16.2,13.1-29.3,29.3-29.3s29.3,13.1,29.3,29.3c0-16.2,13.1-29.3,29.3-29.3s29.3,13.1,29.3,29.3c0-16.2,13.1-29.3,29.3-29.3s29.3,13.1,29.3,29.3c0-16.2,13.1-29.3,29.3-29.3s29.3,13.1,29.3,29.3c0-16.2,13.1-29.3,29.3-29.3s29.3,13.1,29.3,29.3c0-16.2,13.1-29.3,29.3-29.3s29.3,13.1,29.3,29.3-13.1,29.3-29.3,29.3c16.2,0,29.3,13.1,29.3,29.3s-13.1,29.3-29.3,29.3-29.3-13.1-29.3-29.3-13.1-29.3-29.3-29.3-29.3,13.1-29.3,29.3c0-16.2-13.1-29.3-29.3-29.3s-29.3,13.1-29.3,29.3c0-16.2-13.1-29.3-29.3-29.3s-29.3,13.1-29.3,29.3c0-16.2-13.1-29.3-29.3-29.3s-29.3,13.1-29.3,29.3-13.1,29.3-29.3,29.3"/>
  <path class="st0" d="M858.9,725.2c0,16.2-13.1,29.3-29.3,29.3s-29.3,13.1-29.3,29.3-13.1,29.3-29.3,29.3c16.2,0,29.3,13.1,29.3,29.3s-13.1,29.3-29.3,29.3-29.3,13.1-29.3,29.3,13.1,29.3,29.3,29.3c-16.2,0-29.3,13.1-29.3,29.3s-13.1,29.3-29.3,29.3c16.2,0,29.3,13.1,29.3,29.3s13.1,29.3,29.3,29.3c-16.2,0-29.3,13.1-29.3,29.3s-13.1,29.3-29.3,29.3-29.3,13.1-29.3,29.3-13.1,29.3-29.3,29.3-29.3,13.1-29.3,29.3-13.1,29.3-29.3,29.3-29.3-13.1-29.3-29.3-13.1-29.3-29.3-29.3-29.3-13.1-29.3-29.3-13.1-29.3-29.3-29.3-29.3-13.1-29.3-29.3-13.1-29.3-29.3-29.3c16.2,0,29.3-13.1,29.3-29.3s13.1-29.3,29.3-29.3c-16.2,0-29.3-13.1-29.3-29.3s-13.1-29.3-29.3-29.3c16.2,0,29.3-13.1,29.3-29.3s-13.1-29.3-29.3-29.3-29.3-13.1-29.3-29.3,13.1-29.3,29.3-29.3c-16.2,0-29.3-13.1-29.3-29.3s-13.1-29.3-29.3-29.3-29.3-13.1-29.3-29.3,13.1-29.3,29.3-29.3,29.3,13.1,29.3,29.3c0-16.2,13.1-29.3,29.3-29.3s29.3,13.1,29.3,29.3-13.1,29.3-29.3,29.3c16.2,0,29.3,13.1,29.3,29.3s13.1,29.3,29.3,29.3c-16.2,0-29.3,13.1-29.3,29.3s13.1,29.3,29.3,29.3,29.3,13.1,29.3,29.3-13.1,29.3-29.3,29.3c16.2,0,29.3,13.1,29.3,29.3s13.1,29.3,29.3,29.3c-16.2,0-29.3,13.1-29.3,29.3s-13.1,29.3-29.3,29.3c16.2,0,29.3,13.1,29.3,29.3s13.1,29.3,29.3,29.3,29.3,13.1,29.3,29.3,13.1,29.3,29.3,29.3,29.3-13.1,29.3-29.3,13.1-29.3,29.3-29.3,29.3-13.1,29.3-29.3,13.1-29.3,29.3-29.3c-16.2,0-29.3-13.1-29.3-29.3s-13.1-29.3-29.3-29.3c16.2,0,29.3-13.1,29.3-29.3s13.1-29.3,29.3-29.3c-16.2,0-29.3-13.1-29.3-29.3s13.1-29.3,29.3-29.3,29.3-13.1,29.3-29.3-13.1-29.3-29.3-29.3c16.2,0,29.3-13.1,29.3-29.3s13.1-29.3,29.3-29.3c-16.2,0-29.3-13.1-29.3-29.3s13.1-29.3,29.3-29.3,29.3,13.1,29.3,29.3c0-16.2,13.1-29.3,29.3-29.3s29.3,13.1,29.3,29.3"/>
  <path class="st0" d="M3220.3,900.7c0,16.2-13.1,29.3-29.3,29.3s-29.3-13.1-29.3-29.3c0,16.2-13.1,29.3-29.3,29.3s-29.3-13.1-29.3-29.3c0,16.2-13.1,29.3-29.3,29.3s-29.3-13.1-29.3-29.3,13.1-29.3,29.3-29.3c-16.2,0-29.3-13.1-29.3-29.3s13.1-29.3,29.3-29.3,29.3-13.1,29.3-29.3,13.1-29.3,29.3-29.3,29.3,13.1,29.3,29.3,13.1,29.3,29.3,29.3,29.3,13.1,29.3,29.3-13.1,29.3-29.3,29.3c16.2,0,29.3,13.1,29.3,29.3M3308.1,1164c-16.2,0-29.3-13.1-29.3-29.3s13.1-29.3,29.3-29.3,29.3-13.1,29.3-29.3-13.1-29.3-29.3-29.3-29.3-13.1-29.3-29.3,13.1-29.3,29.3-29.3c-16.2,0-29.3-13.1-29.3-29.3s13.1-29.3,29.3-29.3c-16.2,0-29.3-13.1-29.3-29.3s-13.1-29.3-29.3-29.3c16.2,0,29.3-13.1,29.3-29.3s-13.1-29.3-29.3-29.3-29.3-13.1-29.3-29.3-13.1-29.3-29.3-29.3-29.3-13.1-29.3-29.3-13.1-29.3-29.3-29.3-29.3,13.1-29.3,29.3-13.1,29.3-29.3,29.3-29.3,13.1-29.3,29.3-13.1,29.3-29.3,29.3-29.3,13.1-29.3,29.3,13.1,29.3,29.3,29.3c-16.2,0-29.3,13.1-29.3,29.3s-13.1,29.3-29.3,29.3c16.2,0,29.3,13.1,29.3,29.3s-13.1,29.3-29.3,29.3c16.2,0,29.3,13.1,29.3,29.3s-13.1,29.3-29.3,29.3-29.3,13.1-29.3,29.3,13.1,29.3,29.3,29.3,29.3,13.1,29.3,29.3-13.1,29.3-29.3,29.3-29.3,13.1-29.3,29.3,13.1,29.3,29.3,29.3,29.3-13.1,29.3-29.3c0,16.2,13.1,29.3,29.3,29.3s29.3-13.1,29.3-29.3-13.1-29.3-29.3-29.3c16.2,0,29.3-13.1,29.3-29.3s-13.1-29.3-29.3-29.3-29.3-13.1-29.3-29.3,13.1-29.3,29.3-29.3,29.3-13.1,29.3-29.3-13.1-29.3-29.3-29.3c16.2,0,29.3-13.1,29.3-29.3,0,16.2,13.1,29.3,29.3,29.3s29.3-13.1,29.3-29.3c0,16.2,13.1,29.3,29.3,29.3s29.3-13.1,29.3-29.3c0,16.2,13.1,29.3,29.3,29.3s29.3-13.1,29.3-29.3c0,16.2,13.1,29.3,29.3,29.3-16.2,0-29.3,13.1-29.3,29.3s13.1,29.3,29.3,29.3,29.3,13.1,29.3,29.3-13.1,29.3-29.3,29.3-29.3,13.1-29.3,29.3,13.1,29.3,29.3,29.3c-16.2,0-29.3,13.1-29.3,29.3s13.1,29.3,29.3,29.3,29.3-13.1,29.3-29.3c0,16.2,13.1,29.3,29.3,29.3s29.3-13.1,29.3-29.3-13.1-29.3-29.3-29.3"/>
  <path class="st0" d="M1845.3,1193.3c0,16.2-13.1,29.3-29.3,29.3s-29.3-13.1-29.3-29.3c0,16.2-13.1,29.3-29.3,29.3s-29.3-13.1-29.3-29.3,13.1-29.3,29.3-29.3c-16.2,0-29.3-13.1-29.3-29.3s13.1-29.3,29.3-29.3c-16.2,0-29.3-13.1-29.3-29.3s-13.1-29.3-29.3-29.3-29.3-13.1-29.3-29.3-13.1-29.3-29.3-29.3-29.3-13.1-29.3-29.3-13.1-29.3-29.3-29.3-29.3-13.1-29.3-29.3-13.1-29.3-29.3-29.3-29.3,13.1-29.3,29.3-13.1,29.3-29.3,29.3c16.2,0,29.3,13.1,29.3,29.3s13.1,29.3,29.3,29.3c-16.2,0-29.3,13.1-29.3,29.3s-13.1,29.3-29.3,29.3c16.2,0,29.3,13.1,29.3,29.3s13.1,29.3,29.3,29.3c-16.2,0-29.3,13.1-29.3,29.3s-13.1,29.3-29.3,29.3c16.2,0,29.3,13.1,29.3,29.3s-13.1,29.3-29.3,29.3-29.3-13.1-29.3-29.3c0,16.2-13.1,29.3-29.3,29.3s-29.3-13.1-29.3-29.3,13.1-29.3,29.3-29.3,29.3-13.1,29.3-29.3,13.1-29.3,29.3-29.3c-16.2,0-29.3-13.1-29.3-29.3s-13.1-29.3-29.3-29.3c16.2,0,29.3-13.1,29.3-29.3s13.1-29.3,29.3-29.3c-16.2,0-29.3-13.1-29.3-29.3s-13.1-29.3-29.3-29.3c16.2,0,29.3-13.1,29.3-29.3s13.1-29.3,29.3-29.3c-16.2,0-29.3-13.1-29.3-29.3s-13.1-29.3-29.3-29.3c16.2,0,29.3-13.1,29.3-29.3s-13.1-29.3-29.3-29.3-29.3-13.1-29.3-29.3,13.1-29.3,29.3-29.3,29.3,13.1,29.3,29.3,13.1,29.3,29.3,29.3,29.3,13.1,29.3,29.3,13.1,29.3,29.3,29.3,29.3,13.1,29.3,29.3,13.1,29.3,29.3,29.3,29.3,13.1,29.3,29.3,13.1,29.3,29.3,29.3,29.3,13.1,29.3,29.3,13.1,29.3,29.3,29.3,29.3,13.1,29.3,29.3c0-16.2,13.1-29.3,29.3-29.3-16.2,0-29.3-13.1-29.3-29.3s-13.1-29.3-29.3-29.3c16.2,0,29.3-13.1,29.3-29.3s13.1-29.3,29.3-29.3c-16.2,0-29.3-13.1-29.3-29.3s-13.1-29.3-29.3-29.3c16.2,0,29.3-13.1,29.3-29.3s13.1-29.3,29.3-29.3c-16.2,0-29.3-13.1-29.3-29.3s13.1-29.3,29.3-29.3,29.3,13.1,29.3,29.3c0-16.2,13.1-29.3,29.3-29.3s29.3,13.1,29.3,29.3-13.1,29.3-29.3,29.3-29.3,13.1-29.3,29.3-13.1,29.3-29.3,29.3c16.2,0,29.3,13.1,29.3,29.3s13.1,29.3,29.3,29.3c-16.2,0-29.3,13.1-29.3,29.3s-13.1,29.3-29.3,29.3c16.2,0,29.3,13.1,29.3,29.3s13.1,29.3,29.3,29.3c-16.2,0-29.3,13.1-29.3,29.3s-13.1,29.3-29.3,29.3c16.2,0,29.3,13.1,29.3,29.3s13.1,29.3,29.3,29.3c-16.2,0-29.3,13.1-29.3,29.3s13.1,29.3,29.3,29.3,29.3,13.1,29.3,29.3"/>
  <path class="st0" d="M321.8,438.9c0,16.2-13.1,29.3-29.3,29.3s-29.3,13.1-29.3,29.3-13.1,29.3-29.3,29.3-29.3-13.1-29.3-29.3c0,16.2-13.1,29.3-29.3,29.3s-29.3-13.1-29.3-29.3c0,16.2-13.1,29.3-29.3,29.3s-29.3-13.1-29.3-29.3-13.1-29.3-29.3-29.3-29.3-13.1-29.3-29.3-13.1-29.3-29.3-29.3c16.2,0,29.3-13.1,29.3-29.3s13.1-29.3,29.3-29.3c-16.2,0-29.3-13.1-29.3-29.3s-13.1-29.3-29.3-29.3c16.2,0,29.3-13.1,29.3-29.3s-13.1-29.3-29.3-29.3c16.2,0,29.3-13.1,29.3-29.3s13.1-29.3,29.3-29.3c-16.2,0-29.3-13.1-29.3-29.3s-13.1-29.3-29.3-29.3c16.2,0,29.3-13.1,29.3-29.3s13.1-29.3,29.3-29.3,29.3-13.1,29.3-29.3S100.9,0,117,0s29.3,13.1,29.3,29.3C146.3,13.1,159.4,0,175.5,0s29.3,13.1,29.3,29.3C204.8,13.1,217.9,0,234.1,0s29.3,13.1,29.3,29.3,13.1,29.3,29.3,29.3,29.3,13.1,29.3,29.3-13.1,29.3-29.3,29.3-29.3-13.1-29.3-29.3-13.1-29.3-29.3-29.3-29.3,13.1-29.3,29.3c0-16.2-13.1-29.3-29.3-29.3s-29.3,13.1-29.3,29.3c0-16.2-13.1-29.3-29.3-29.3s-29.3,13.1-29.3,29.3-13.1,29.3-29.3,29.3c16.2,0,29.3,13.1,29.3,29.3s13.1,29.3,29.3,29.3c-16.2,0-29.3,13.1-29.3,29.3s-13.1,29.3-29.3,29.3c16.2,0,29.3,13.1,29.3,29.3s-13.1,29.3-29.3,29.3c16.2,0,29.3,13.1,29.3,29.3s13.1,29.3,29.3,29.3c-16.2,0-29.3,13.1-29.3,29.3s-13.1,29.3-29.3,29.3c16.2,0,29.3,13.1,29.3,29.3s13.1,29.3,29.3,29.3,29.3-13.1,29.3-29.3c0,16.2,13.1,29.3,29.3,29.3s29.3-13.1,29.3-29.3c0,16.2,13.1,29.3,29.3,29.3s29.3-13.1,29.3-29.3,13.1-29.3,29.3-29.3,29.3,13.1,29.3,29.3"/>
  <path class="st0" d="M3159.7,234.1c-16.2,0-29.3,13.1-29.3,29.3,0-16.2-13.1-29.3-29.3-29.3s-29.3-13.1-29.3-29.3c0,16.2-13.1,29.3-29.3,29.3s-29.3,13.1-29.3,29.3c0-16.2-13.1-29.3-29.3-29.3s-29.3-13.1-29.3-29.3,13.1-29.3,29.3-29.3c-16.2,0-29.3-13.1-29.3-29.3s-13.1-29.3-29.3-29.3c16.2,0,29.3-13.1,29.3-29.3s13.1-29.3,29.3-29.3,29.3,13.1,29.3,29.3c0-16.2,13.1-29.3,29.3-29.3s29.3,13.1,29.3,29.3c0-16.2,13.1-29.3,29.3-29.3s29.3,13.1,29.3,29.3c0-16.2,13.1-29.3,29.3-29.3s29.3,13.1,29.3,29.3-13.1,29.3-29.3,29.3c16.2,0,29.3,13.1,29.3,29.3s-13.1,29.3-29.3,29.3c16.2,0,29.3,13.1,29.3,29.3s-13.1,29.3-29.3,29.3M3247.5,146.3c0-16.2-13.1-29.3-29.3-29.3,16.2,0,29.3-13.1,29.3-29.3s-13.1-29.3-29.3-29.3-29.3-13.1-29.3-29.3S3175.9,0,3159.7,0s-29.3,13.1-29.3,29.3c0-16.2-13.1-29.3-29.3-29.3s-29.3,13.1-29.3,29.3c0-16.2-13.1-29.3-29.3-29.3s-29.3,13.1-29.3,29.3c0-16.2-13.1-29.3-29.3-29.3s-29.3,13.1-29.3,29.3c0-16.2-13.1-29.3-29.3-29.3s-29.3,13.1-29.3,29.3c0-16.2-13.1-29.3-29.3-29.3s-29.3,13.1-29.3,29.3,13.1,29.3,29.3,29.3,29.3,13.1,29.3,29.3-13.1,29.3-29.3,29.3c16.2,0,29.3,13.1,29.3,29.3s13.1,29.3,29.3,29.3c-16.2,0-29.3,13.1-29.3,29.3s13.1,29.3,29.3,29.3c-16.2,0-29.3,13.1-29.3,29.3s13.1,29.3,29.3,29.3c-16.2,0-29.3,13.1-29.3,29.3s-13.1,29.3-29.3,29.3c16.2,0,29.3,13.1,29.3,29.3s13.1,29.3,29.3,29.3c-16.2,0-29.3,13.1-29.3,29.3s-13.1,29.3-29.3,29.3-29.3,13.1-29.3,29.3,13.1,29.3,29.3,29.3,29.3-13.1,29.3-29.3c0,16.2,13.1,29.3,29.3,29.3s29.3-13.1,29.3-29.3c0,16.2,13.1,29.3,29.3,29.3s29.3-13.1,29.3-29.3-13.1-29.3-29.3-29.3-29.3-13.1-29.3-29.3,13.1-29.3,29.3-29.3c-16.2,0-29.3-13.1-29.3-29.3s-13.1-29.3-29.3-29.3c16.2,0,29.3-13.1,29.3-29.3s13.1-29.3,29.3-29.3,29.3,13.1,29.3,29.3c0-16.2,13.1-29.3,29.3-29.3s29.3-13.1,29.3-29.3c0,16.2,13.1,29.3,29.3,29.3s29.3,13.1,29.3,29.3c0-16.2,13.1-29.3,29.3-29.3s29.3-13.1,29.3-29.3,13.1-29.3,29.3-29.3,29.3-13.1,29.3-29.3-13.1-29.3-29.3-29.3c16.2,0,29.3-13.1,29.3-29.3"/>
  <path class="st0" d="M2741.8,468.1c16.2,0,29.3,13.1,29.3,29.3s-13.1,29.3-29.3,29.3-29.3-13.1-29.3-29.3c0,16.2-13.1,29.3-29.3,29.3s-29.3-13.1-29.3-29.3,13.1-29.3,29.3-29.3,29.3-13.1,29.3-29.3-13.1-29.3-29.3-29.3-29.3-13.1-29.3-29.3-13.1-29.3-29.3-29.3c16.2,0,29.3-13.1,29.3-29.3s-13.1-29.3-29.3-29.3c16.2,0,29.3-13.1,29.3-29.3s-13.1-29.3-29.3-29.3c16.2,0,29.3-13.1,29.3-29.3s-13.1-29.3-29.3-29.3-29.3,13.1-29.3,29.3-13.1,29.3-29.3,29.3-29.3,13.1-29.3,29.3-13.1,29.3-29.3,29.3-29.3-13.1-29.3-29.3-13.1-29.3-29.3-29.3-29.3-13.1-29.3-29.3-13.1-29.3-29.3-29.3-29.3,13.1-29.3,29.3,13.1,29.3,29.3,29.3c-16.2,0-29.3,13.1-29.3,29.3s13.1,29.3,29.3,29.3c-16.2,0-29.3,13.1-29.3,29.3s13.1,29.3,29.3,29.3c-16.2,0-29.3,13.1-29.3,29.3s-13.1,29.3-29.3,29.3-29.3,13.1-29.3,29.3,13.1,29.3,29.3,29.3,29.3,13.1,29.3,29.3-13.1,29.3-29.3,29.3-29.3-13.1-29.3-29.3c0,16.2-13.1,29.3-29.3,29.3s-29.3-13.1-29.3-29.3,13.1-29.3,29.3-29.3c-16.2,0-29.3-13.1-29.3-29.3s13.1-29.3,29.3-29.3,29.3-13.1,29.3-29.3-13.1-29.3-29.3-29.3c16.2,0,29.3-13.1,29.3-29.3s13.1-29.3,29.3-29.3c-16.2,0-29.3-13.1-29.3-29.3s13.1-29.3,29.3-29.3c-16.2,0-29.3-13.1-29.3-29.3s13.1-29.3,29.3-29.3c-16.2,0-29.3-13.1-29.3-29.3s-13.1-29.3-29.3-29.3c16.2,0,29.3-13.1,29.3-29.3s-13.1-29.3-29.3-29.3-29.3-13.1-29.3-29.3,13.1-29.3,29.3-29.3,29.3,13.1,29.3,29.3,13.1,29.3,29.3,29.3,29.3,13.1,29.3,29.3,13.1,29.3,29.3,29.3,29.3,13.1,29.3,29.3,13.1,29.3,29.3,29.3,29.3,13.1,29.3,29.3,13.1,29.3,29.3,29.3,29.3-13.1,29.3-29.3,13.1-29.3,29.3-29.3,29.3-13.1,29.3-29.3,13.1-29.3,29.3-29.3,29.3-13.1,29.3-29.3,13.1-29.3,29.3-29.3,29.3-13.1,29.3-29.3,13.1-29.3,29.3-29.3,29.3,13.1,29.3,29.3-13.1,29.3-29.3,29.3-29.3,13.1-29.3,29.3,13.1,29.3,29.3,29.3c-16.2,0-29.3,13.1-29.3,29.3s-13.1,29.3-29.3,29.3c16.2,0,29.3,13.1,29.3,29.3s-13.1,29.3-29.3,29.3c16.2,0,29.3,13.1,29.3,29.3s-13.1,29.3-29.3,29.3c16.2,0,29.3,13.1,29.3,29.3s13.1,29.3,29.3,29.3c-16.2,0-29.3,13.1-29.3,29.3s13.1,29.3,29.3,29.3,29.3,13.1,29.3,29.3-13.1,29.3-29.3,29.3"/>
  <path class="st0" d="M2056.3,204.8c0,16.2-13.1,29.3-29.3,29.3s-29.3-13.1-29.3-29.3c0,16.2-13.1,29.3-29.3,29.3s-29.3-13.1-29.3-29.3c0,16.2-13.1,29.3-29.3,29.3s-29.3-13.1-29.3-29.3,13.1-29.3,29.3-29.3c-16.2,0-29.3-13.1-29.3-29.3s13.1-29.3,29.3-29.3,29.3-13.1,29.3-29.3,13.1-29.3,29.3-29.3,29.3,13.1,29.3,29.3,13.1,29.3,29.3,29.3,29.3,13.1,29.3,29.3-13.1,29.3-29.3,29.3c16.2,0,29.3,13.1,29.3,29.3M2144.1,468.1c-16.2,0-29.3-13.1-29.3-29.3s13.1-29.3,29.3-29.3,29.3-13.1,29.3-29.3-13.1-29.3-29.3-29.3-29.3-13.1-29.3-29.3,13.1-29.3,29.3-29.3c-16.2,0-29.3-13.1-29.3-29.3s13.1-29.3,29.3-29.3c-16.2,0-29.3-13.1-29.3-29.3s-13.1-29.3-29.3-29.3c16.2,0,29.3-13.1,29.3-29.3s-13.1-29.3-29.3-29.3-29.3-13.1-29.3-29.3-13.1-29.3-29.3-29.3-29.3-13.1-29.3-29.3-13.1-29.3-29.3-29.3-29.3,13.1-29.3,29.3-13.1,29.3-29.3,29.3-29.3,13.1-29.3,29.3-13.1,29.3-29.3,29.3-29.3,13.1-29.3,29.3,13.1,29.3,29.3,29.3c-16.2,0-29.3,13.1-29.3,29.3s-13.1,29.3-29.3,29.3c16.2,0,29.3,13.1,29.3,29.3s-13.1,29.3-29.3,29.3c16.2,0,29.3,13.1,29.3,29.3s-13.1,29.3-29.3,29.3-29.3,13.1-29.3,29.3,13.1,29.3,29.3,29.3,29.3,13.1,29.3,29.3-13.1,29.3-29.3,29.3-29.3,13.1-29.3,29.3,13.1,29.3,29.3,29.3,29.3-13.1,29.3-29.3c0,16.2,13.1,29.3,29.3,29.3s29.3-13.1,29.3-29.3-13.1-29.3-29.3-29.3c16.2,0,29.3-13.1,29.3-29.3s-13.1-29.3-29.3-29.3-29.3-13.1-29.3-29.3,13.1-29.3,29.3-29.3,29.3-13.1,29.3-29.3-13.1-29.3-29.3-29.3c16.2,0,29.3-13.1,29.3-29.3,0,16.2,13.1,29.3,29.3,29.3s29.3-13.1,29.3-29.3c0,16.2,13.1,29.3,29.3,29.3s29.3-13.1,29.3-29.3c0,16.2,13.1,29.3,29.3,29.3s29.3-13.1,29.3-29.3c0,16.2,13.1,29.3,29.3,29.3-16.2,0-29.3,13.1-29.3,29.3s13.1,29.3,29.3,29.3,29.3,13.1,29.3,29.3-13.1,29.3-29.3,29.3-29.3,13.1-29.3,29.3,13.1,29.3,29.3,29.3c-16.2,0-29.3,13.1-29.3,29.3s13.1,29.3,29.3,29.3,29.3-13.1,29.3-29.3c0,16.2,13.1,29.3,29.3,29.3s29.3-13.1,29.3-29.3-13.1-29.3-29.3-29.3"/>
  <path class="st0" d="M3552.6,204.8c0,16.2-13.1,29.3-29.3,29.3s-29.3-13.1-29.3-29.3c0,16.2-13.1,29.3-29.3,29.3s-29.3-13.1-29.3-29.3c0,16.2-13.1,29.3-29.3,29.3s-29.3-13.1-29.3-29.3,13.1-29.3,29.3-29.3c-16.2,0-29.3-13.1-29.3-29.3s13.1-29.3,29.3-29.3,29.3-13.1,29.3-29.3,13.1-29.3,29.3-29.3,29.3,13.1,29.3,29.3,13.1,29.3,29.3,29.3,29.3,13.1,29.3,29.3-13.1,29.3-29.3,29.3c16.2,0,29.3,13.1,29.3,29.3M3640.4,468.1c-16.2,0-29.3-13.1-29.3-29.3s13.1-29.3,29.3-29.3,29.3-13.1,29.3-29.3-13.1-29.3-29.3-29.3-29.3-13.1-29.3-29.3,13.1-29.3,29.3-29.3c-16.2,0-29.3-13.1-29.3-29.3s13.1-29.3,29.3-29.3c-16.2,0-29.3-13.1-29.3-29.3s-13.1-29.3-29.3-29.3c16.2,0,29.3-13.1,29.3-29.3s-13.1-29.3-29.3-29.3-29.3-13.1-29.3-29.3-13.1-29.3-29.3-29.3-29.3-13.1-29.3-29.3-13.1-29.3-29.3-29.3-29.3,13.1-29.3,29.3-13.1,29.3-29.3,29.3-29.3,13.1-29.3,29.3-13.1,29.3-29.3,29.3-29.3,13.1-29.3,29.3,13.1,29.3,29.3,29.3c-16.2,0-29.3,13.1-29.3,29.3s-13.1,29.3-29.3,29.3c16.2,0,29.3,13.1,29.3,29.3s-13.1,29.3-29.3,29.3c16.2,0,29.3,13.1,29.3,29.3s-13.1,29.3-29.3,29.3-29.3,13.1-29.3,29.3,13.1,29.3,29.3,29.3,29.3,13.1,29.3,29.3-13.1,29.3-29.3,29.3-29.3,13.1-29.3,29.3,13.1,29.3,29.3,29.3,29.3-13.1,29.3-29.3c0,16.2,13.1,29.3,29.3,29.3s29.3-13.1,29.3-29.3-13.1-29.3-29.3-29.3c16.2,0,29.3-13.1,29.3-29.3s-13.1-29.3-29.3-29.3-29.3-13.1-29.3-29.3,13.1-29.3,29.3-29.3,29.3-13.1,29.3-29.3-13.1-29.3-29.3-29.3c16.2,0,29.3-13.1,29.3-29.3,0,16.2,13.1,29.3,29.3,29.3s29.3-13.1,29.3-29.3c0,16.2,13.1,29.3,29.3,29.3s29.3-13.1,29.3-29.3c0,16.2,13.1,29.3,29.3,29.3s29.3-13.1,29.3-29.3c0,16.2,13.1,29.3,29.3,29.3-16.2,0-29.3,13.1-29.3,29.3s13.1,29.3,29.3,29.3,29.3,13.1,29.3,29.3-13.1,29.3-29.3,29.3-29.3,13.1-29.3,29.3,13.1,29.3,29.3,29.3c-16.2,0-29.3,13.1-29.3,29.3s13.1,29.3,29.3,29.3,29.3-13.1,29.3-29.3c0,16.2,13.1,29.3,29.3,29.3s29.3-13.1,29.3-29.3-13.1-29.3-29.3-29.3"/>
  <path class="st0" d="M1692.7,497.4c0,16.2-13.1,29.3-29.3,29.3s-29.3-13.1-29.3-29.3c0,16.2-13.1,29.3-29.3,29.3s-29.3-13.1-29.3-29.3,13.1-29.3,29.3-29.3c-16.2,0-29.3-13.1-29.3-29.3s13.1-29.3,29.3-29.3c-16.2,0-29.3-13.1-29.3-29.3s-13.1-29.3-29.3-29.3-29.3-13.1-29.3-29.3-13.1-29.3-29.3-29.3-29.3-13.1-29.3-29.3-13.1-29.3-29.3-29.3-29.3-13.1-29.3-29.3-13.1-29.3-29.3-29.3-29.3,13.1-29.3,29.3-13.1,29.3-29.3,29.3c16.2,0,29.3,13.1,29.3,29.3s13.1,29.3,29.3,29.3c-16.2,0-29.3,13.1-29.3,29.3s-13.1,29.3-29.3,29.3c16.2,0,29.3,13.1,29.3,29.3s13.1,29.3,29.3,29.3c-16.2,0-29.3,13.1-29.3,29.3s-13.1,29.3-29.3,29.3c16.2,0,29.3,13.1,29.3,29.3s-13.1,29.3-29.3,29.3-29.3-13.1-29.3-29.3c0,16.2-13.1,29.3-29.3,29.3s-29.3-13.1-29.3-29.3,13.1-29.3,29.3-29.3,29.3-13.1,29.3-29.3,13.1-29.3,29.3-29.3c-16.2,0-29.3-13.1-29.3-29.3s-13.1-29.3-29.3-29.3c16.2,0,29.3-13.1,29.3-29.3s13.1-29.3,29.3-29.3c-16.2,0-29.3-13.1-29.3-29.3s-13.1-29.3-29.3-29.3c16.2,0,29.3-13.1,29.3-29.3s13.1-29.3,29.3-29.3c-16.2,0-29.3-13.1-29.3-29.3s-13.1-29.3-29.3-29.3c16.2,0,29.3-13.1,29.3-29.3s-13.1-29.3-29.3-29.3-29.3-13.1-29.3-29.3S1237.7,0,1253.9,0s29.3,13.1,29.3,29.3,13.1,29.3,29.3,29.3,29.3,13.1,29.3,29.3,13.1,29.3,29.3,29.3,29.3,13.1,29.3,29.3,13.1,29.3,29.3,29.3,29.3,13.1,29.3,29.3,13.1,29.3,29.3,29.3,29.3,13.1,29.3,29.3,13.1,29.3,29.3,29.3,29.3,13.1,29.3,29.3c0-16.2,13.1-29.3,29.3-29.3-16.2,0-29.3-13.1-29.3-29.3s-13.1-29.3-29.3-29.3c16.2,0,29.3-13.1,29.3-29.3s13.1-29.3,29.3-29.3c-16.2,0-29.3-13.1-29.3-29.3s-13.1-29.3-29.3-29.3c16.2,0,29.3-13.1,29.3-29.3s13.1-29.3,29.3-29.3c-16.2,0-29.3-13.1-29.3-29.3S1588.8,0,1604.9,0s29.3,13.1,29.3,29.3C1634.2,13.1,1647.3,0,1663.4,0s29.3,13.1,29.3,29.3-13.1,29.3-29.3,29.3-29.3,13.1-29.3,29.3-13.1,29.3-29.3,29.3c16.2,0,29.3,13.1,29.3,29.3s13.1,29.3,29.3,29.3c-16.2,0-29.3,13.1-29.3,29.3s-13.1,29.3-29.3,29.3c16.2,0,29.3,13.1,29.3,29.3s13.1,29.3,29.3,29.3c-16.2,0-29.3,13.1-29.3,29.3s-13.1,29.3-29.3,29.3c16.2,0,29.3,13.1,29.3,29.3s13.1,29.3,29.3,29.3c-16.2,0-29.3,13.1-29.3,29.3s13.1,29.3,29.3,29.3,29.3,13.1,29.3,29.3"/>
  <path class="st0" d="M1157.7,497.4c0,16.2-13.1,29.3-29.3,29.3s-29.3-13.1-29.3-29.3c0,16.2-13.1,29.3-29.3,29.3s-29.3-13.1-29.3-29.3c0,16.2-13.1,29.3-29.3,29.3s-29.3-13.1-29.3-29.3c0,16.2-13.1,29.3-29.3,29.3s-29.3-13.1-29.3-29.3c0,16.2-13.1,29.3-29.3,29.3s-29.3-13.1-29.3-29.3,13.1-29.3,29.3-29.3,29.3-13.1,29.3-29.3c0,16.2,13.1,29.3,29.3,29.3s29.3-13.1,29.3-29.3-13.1-29.3-29.3-29.3c16.2,0,29.3-13.1,29.3-29.3s13.1-29.3,29.3-29.3c-16.2,0-29.3-13.1-29.3-29.3s-13.1-29.3-29.3-29.3c16.2,0,29.3-13.1,29.3-29.3s13.1-29.3,29.3-29.3c-16.2,0-29.3-13.1-29.3-29.3s-13.1-29.3-29.3-29.3c16.2,0,29.3-13.1,29.3-29.3s13.1-29.3,29.3-29.3c-16.2,0-29.3-13.1-29.3-29.3s-13.1-29.3-29.3-29.3-29.3,13.1-29.3,29.3c0-16.2-13.1-29.3-29.3-29.3s-29.3-13.1-29.3-29.3S878.2,0,894.4,0s29.3,13.1,29.3,29.3C923.7,13.1,936.8,0,952.9,0s29.3,13.1,29.3,29.3C982.2,13.1,995.3,0,1011.4,0s29.3,13.1,29.3,29.3C1040.7,13.1,1053.8,0,1070,0s29.3,13.1,29.3,29.3C1099.2,13.1,1112.3,0,1128.5,0s29.3,13.1,29.3,29.3-13.1,29.3-29.3,29.3-29.3,13.1-29.3,29.3c0-16.2-13.1-29.3-29.3-29.3s-29.3,13.1-29.3,29.3,13.1,29.3,29.3,29.3c-16.2,0-29.3,13.1-29.3,29.3s-13.1,29.3-29.3,29.3c16.2,0,29.3,13.1,29.3,29.3s13.1,29.3,29.3,29.3c-16.2,0-29.3,13.1-29.3,29.3s-13.1,29.3-29.3,29.3c16.2,0,29.3,13.1,29.3,29.3s13.1,29.3,29.3,29.3c-16.2,0-29.3,13.1-29.3,29.3s-13.1,29.3-29.3,29.3c16.2,0,29.3,13.1,29.3,29.3s13.1,29.3,29.3,29.3,29.3-13.1,29.3-29.3c0,16.2,13.1,29.3,29.3,29.3s29.3,13.1,29.3,29.3"/>
  <path class="st0" d="M735.6,321.8c0,16.2,13.1,29.3,29.3,29.3-16.2,0-29.3,13.1-29.3,29.3s13.1,29.3,29.3,29.3c-16.2,0-29.3,13.1-29.3,29.3s13.1,29.3,29.3,29.3,29.3,13.1,29.3,29.3-13.1,29.3-29.3,29.3-29.3-13.1-29.3-29.3c0,16.2-13.1,29.3-29.3,29.3s-29.3-13.1-29.3-29.3,13.1-29.3,29.3-29.3c-16.2,0-29.3-13.1-29.3-29.3s13.1-29.3,29.3-29.3c-16.2,0-29.3-13.1-29.3-29.3s13.1-29.3,29.3-29.3c-16.2,0-29.3-13.1-29.3-29.3s13.1-29.3,29.3-29.3,29.3-13.1,29.3-29.3-13.1-29.3-29.3-29.3-29.3,13.1-29.3,29.3-13.1,29.3-29.3,29.3-29.3-13.1-29.3-29.3c0,16.2-13.1,29.3-29.3,29.3s-29.3-13.1-29.3-29.3c0,16.2-13.1,29.3-29.3,29.3s-29.3-13.1-29.3-29.3-13.1-29.3-29.3-29.3-29.3,13.1-29.3,29.3,13.1,29.3,29.3,29.3,29.3,13.1,29.3,29.3-13.1,29.3-29.3,29.3c16.2,0,29.3,13.1,29.3,29.3s-13.1,29.3-29.3,29.3c16.2,0,29.3,13.1,29.3,29.3s-13.1,29.3-29.3,29.3c16.2,0,29.3,13.1,29.3,29.3s-13.1,29.3-29.3,29.3-29.3-13.1-29.3-29.3c0,16.2-13.1,29.3-29.3,29.3s-29.3-13.1-29.3-29.3,13.1-29.3,29.3-29.3,29.3-13.1,29.3-29.3-13.1-29.3-29.3-29.3c16.2,0,29.3-13.1,29.3-29.3s-13.1-29.3-29.3-29.3c16.2,0,29.3-13.1,29.3-29.3s-13.1-29.3-29.3-29.3-29.3-13.1-29.3-29.3,13.1-29.3,29.3-29.3,29.3-13.1,29.3-29.3-13.1-29.3-29.3-29.3c16.2,0,29.3-13.1,29.3-29.3s-13.1-29.3-29.3-29.3c16.2,0,29.3-13.1,29.3-29.3s-13.1-29.3-29.3-29.3-29.3-13.1-29.3-29.3S397.6,0,413.8,0s29.3,13.1,29.3,29.3C443,13.1,456.1,0,472.3,0s29.3,13.1,29.3,29.3-13.1,29.3-29.3,29.3c16.2,0,29.3,13.1,29.3,29.3s-13.1,29.3-29.3,29.3c16.2,0,29.3,13.1,29.3,29.3s-13.1,29.3-29.3,29.3c16.2,0,29.3,13.1,29.3,29.3s13.1,29.3,29.3,29.3,29.3-13.1,29.3-29.3c0,16.2,13.1,29.3,29.3,29.3s29.3-13.1,29.3-29.3c0,16.2,13.1,29.3,29.3,29.3s29.3-13.1,29.3-29.3,13.1-29.3,29.3-29.3c-16.2,0-29.3-13.1-29.3-29.3s13.1-29.3,29.3-29.3c-16.2,0-29.3-13.1-29.3-29.3s13.1-29.3,29.3-29.3c-16.2,0-29.3-13.1-29.3-29.3S690.2,0,706.3,0s29.3,13.1,29.3,29.3C735.6,13.1,748.7,0,764.9,0s29.3,13.1,29.3,29.3-13.1,29.3-29.3,29.3-29.3,13.1-29.3,29.3,13.1,29.3,29.3,29.3c-16.2,0-29.3,13.1-29.3,29.3s13.1,29.3,29.3,29.3c-16.2,0-29.3,13.1-29.3,29.3s13.1,29.3,29.3,29.3,29.3,13.1,29.3,29.3-13.1,29.3-29.3,29.3-29.3,13.1-29.3,29.3"/>
</svg>