<?xml version="1.0" encoding="UTF-8"?>
<svg id="Layer_1" xmlns="http://www.w3.org/2000/svg" version="1.1" viewBox="0 0 343.8 321.1">
  <!-- Generator: Adobe Illustrator 29.4.0, SVG Export Plug-In . SVG Version: 2.1.0 Build 152)  -->
  <defs>
    <style>
      .st0 {
        fill: #ff4026;
      }
    </style>
  </defs>
  <path class="st0" d="M152.2,83.2l-1.4,2.9-1.4-2.9h-1.1v5.6h1.1v-3.3l1.1,2.1h.7l1.1-2.1v3.3h1.1v-5.6h-1.1ZM143.5,83.2v1h1.4v4.5h1.1v-4.5h1.5v-1h-4ZM117.2,79.8c-4.3,0-8.5.8-12.4,2.4-3.8,1.8-7.2,4.1-10.1,7s-5.1,6.2-6.8,10.2c-1.6,3.9-2.4,8.1-2.4,12.5s.8,8.7,2.4,12.5c1.7,4,4,7.4,6.8,10.3s6.3,5.2,10.1,6.9c3.9,1.7,8,2.5,12.4,2.5s8.5-.8,12.4-2.5c3.8-1.6,7.2-4,10.1-6.9,2.9-2.9,5.1-6.3,6.8-10.3,1.6-3.8,2.4-8.1,2.4-12.5s-.8-8.7-2.4-12.5-3.9-7.3-6.8-10.2-6.2-5.2-10.1-7c-3.8-1.6-8-2.4-12.4-2.4M114.1,124.2c0,1.7-.5,2.9-1.3,3.5-.8.7-1.9,1-3.1,1h0c-1.3,0-2.4-.3-3.3-1.1-.9-.7-1.3-1.9-1.3-3.4v-11.9c0-1.6.4-2.8,1.3-3.4s2-1.1,3.3-1.1h0c1.2,0,2.3.3,3.1,1.1.9.7,1.3,1.9,1.3,3.4v11.9h0ZM127.8,124.2c0,1.7-.5,2.9-1.3,3.5-.9.7-2,1-3.1,1h-.2c-1.3,0-2.4-.3-3.3-1.1-.8-.7-1.3-1.9-1.3-3.4v-26.2c0-1.6.4-2.8,1.3-3.4.9-.7,2-1.1,3.3-1.1h.2c1.2,0,2.2.3,3.1,1.1.9.7,1.3,1.9,1.3,3.4v26.2h0ZM257.2,207.9l-1.3,2.9-1.3-2.9h-1v5.5h1.1v-3.2l1,2h.7l1-2v3.2h1v-5.5h-1.1ZM248.8,207.9v1h1.4v4.5h1v-4.5h1.3v-1h-3.8ZM229.4,216.5c0-.9.3-1.7,1.1-2.3s1.7-.9,3-.9,2.4.3,3.4.7c1.1.5,2.3,1.2,3.4,2l.3.3,3.6-4.9-.3-.3c-1.6-1.3-3.2-2.4-4.9-2.9-1.7-.7-3.5-1-5.5-1-2.9,0-5.5.9-7.5,2.7-2,1.8-2.9,4-2.9,6.9s.8,4.8,2.4,6.2c1.6,1.4,4,2.7,6.9,3.9,2.5.9,4.1,1.8,4.8,2.4s1,1.5,1,2.4-.4,1.9-1.2,2.4-1.9,1-3.3,1-3-.3-4.4-1c-1.3-.7-2.4-1.5-3.6-2.5l-.5-.5-3.6,4.9.3.3c1.8,1.7,3.6,2.9,5.6,3.6,2,.7,4,1.1,6.1,1.1,3,0,5.6-.8,7.7-2.6s3-4.2,3-7.2-.8-4.5-2.2-6c-1.5-1.5-3.8-2.8-6.7-3.9-2.7-1.1-4.4-2-5.1-2.7-.7-.7-1.1-1.6-1.1-2.4h0v.3h0ZM202.5,240.8h16.3v-5.6h-9.9v-27.3h-6.4v33h0ZM173.8,240.8h19.9v-5.6h-14v-8.1h11.9v-5.7h-11.9v-7.7h14v-5.7h-19.9v33h0ZM160.6,213.6h7.8v-5.7h-22v5.7h7.8v27.3h6.4v-27.3h0ZM139,237.6c1.7-1.6,2.7-3.5,2.9-5.6s.3-4.7.3-7.6-.2-5.4-.3-7.5-1.2-4-2.9-5.7c-1.1-1.1-2.4-2-3.9-2.7-1.4-.7-3.1-1-5-1s-3.4.3-5,1-2.8,1.5-4,2.7c-1.7,1.7-2.6,3.6-2.9,5.7-.3,2.1-.3,4.7-.3,7.5s0,5.5.3,7.6,1.2,4,2.9,5.6c1.1,1.2,2.4,2.1,4,2.8s3.1.9,5,.9,3.5-.3,5-.9c1.4-.7,2.7-1.6,3.9-2.8M135.9,224.3c0,3.3-.2,5.5-.3,6.6-.3,1.1-.7,2-1.3,2.8-.4.6-1,1-1.7,1.3s-1.5.5-2.4.5-1.7-.2-2.4-.5-1.3-.8-1.8-1.3c-.6-.7-1-1.6-1.2-2.8-.3-1.1-.3-3.4-.3-6.6s0-5.4.3-6.5.6-2.1,1.2-2.8c.5-.6,1.1-1,1.8-1.3.7-.3,1.5-.5,2.4-.5s1.7.2,2.4.5c.7.3,1.3.7,1.7,1.3.7.7,1.1,1.6,1.3,2.8.3,1.2.3,3.4.3,6.5M104.6,240.8h6.4v-33h-6.4v13.5h-10.9v-13.5h-6.3v33h6.3v-13.7h10.9v13.7ZM238.9,197.6h5.6v-33h-6.3v20.3l-12.9-20.3h-5.6v33h6.4v-20.2l12.9,20.2h0ZM209,194.3c1.1-1.2,1.9-2.5,2.4-4.1s.7-3.5.7-6.1v-6.1h-12.3v5.8h6.4v2c0,.9-.2,1.7-.4,2.4-.3.7-.6,1.3-1,1.9-.6.7-1.3,1.1-2.2,1.5-.8.3-1.8.4-2.7.4s-1.6-.2-2.4-.4c-.7-.3-1.3-.7-1.7-1.3-.7-.8-1.1-1.7-1.3-2.8s-.3-3.3-.3-6.5.2-5.5.3-6.5.7-2,1.3-2.8c.3-.5.8-.8,1.3-1.1.6-.3,1.1-.4,1.9-.6h.9c1.2,0,2.4.3,3.4.8,1.1.5,2.3,1.2,3.4,2l.3.3,3.4-4.9-.3-.3c-1.5-1.3-3-2.4-4.8-2.9-1.7-.7-3.5-1-5.5-1h-.7c-1.6,0-3.2.4-4.5,1.1-1.4.7-2.7,1.6-3.8,2.7s-1.3,1.5-1.7,2.4-.8,1.7-.9,2.6c-.3,1-.3,2.1-.5,3.5,0,1.3-.2,2.9-.2,4.7s0,3.4.2,4.8c.2,1.3.3,2.4.5,3.4.2,1,.4,1.9.9,2.7.4.8,1,1.6,1.7,2.4,1.2,1.2,2.4,2.1,4,2.8s3,.9,4.8.9,3.4-.3,5-.9c1.5-.6,2.9-1.6,4.1-2.9h0v-.3.2ZM173.8,197.6h6.4v-33h-6.4v33ZM151.4,173.3c0-.9.3-1.7,1.1-2.3s1.8-.9,3-.9,2.4.3,3.4.7c1.1.5,2.3,1.2,3.4,2l.3.3,3.6-4.9-.3-.3c-1.5-1.3-3.1-2.4-4.8-2.9-1.7-.7-3.5-1-5.5-1-2.9,0-5.5.9-7.5,2.7-2,1.8-2.9,4-2.9,6.9s.8,4.8,2.4,6.2c1.6,1.4,4,2.7,7,3.9,2.4.9,4.1,1.8,4.7,2.4s1,1.5,1,2.4-.4,1.9-1.2,2.4c-.8.7-1.9,1-3.3,1s-3-.3-4.4-1c-1.3-.7-2.4-1.5-3.6-2.5l-.6-.7-3.5,5,.3.3c1.8,1.7,3.6,2.9,5.6,3.6,2,.7,4,1.1,6.2,1.1s5.6-.8,7.6-2.6,3-4.2,3-7.2-.8-4.5-2.2-6c-1.5-1.5-3.7-2.8-6.6-3.9-2.7-1.1-4.5-2-5.1-2.7s-1.1-1.6-1.1-2.4v.4ZM118.1,197.6h20v-5.6h-14.1v-8.1h12v-5.7h-12v-7.7h14.1v-5.7h-20v33h0ZM110.8,181c0-2.4,0-4.8-.3-7-.2-2.3-1.1-4.3-2.9-6.1s-2.4-1.9-3.9-2.4c-1.5-.5-3-.8-4.7-.8h-11.8v33h11.8c1.6,0,3.3-.3,4.7-.7s2.9-1.3,3.9-2.4c1.9-1.8,2.9-3.9,2.9-6.1.2-2.4.3-4.7.3-7.3v-.2ZM104.5,181c0,2.5,0,4.5-.3,5.7-.2,1.3-.5,2.4-1.1,3.1s-1.2,1.2-2,1.6c-.8.3-1.7.5-2.9.5h-4.8v-21.5h4.8c1.1,0,2,.3,2.9.6s1.4.8,2,1.5c.6.7,1,1.7,1.1,2.9.2,1.3.3,3.1.3,5.6"/>
</svg>