<?xml version="1.0" encoding="UTF-8"?>
<svg id="Layer_1" xmlns="http://www.w3.org/2000/svg" version="1.1" viewBox="0 0 2828.5 337.8">
  <!-- Generator: Adobe Illustrator 29.4.0, SVG Export Plug-In . SVG Version: 2.1.0 Build 152)  -->
  <defs>
    <style>
      .st0 {
        fill: #ff4026;
      }
    </style>
  </defs>
  <path class="st0" d="M43,169.1c0,34,18,55.8,50,55.8s45.8-17.8,46.3-34.5v-2.5h-50v-28.5h88.2v91.6h-30.3l-1.9-25.7c-9.5,17.8-30.3,30.3-61.8,30.3C31.5,255.7,0,221.2,0,169.8s35.9-87.7,93.5-87.7,76.6,21.3,84,51.8l-42.8,7.9c-4.4-16.7-18.3-28.9-41.9-28.9s-49.7,21.8-49.7,56.2ZM340.8,184.2l39.3,66.9h-45.8l-34.7-61.3h-35.2v61.3h-41.4V86.7h89.3c45.6,0,62.9,22.9,62.9,50.9s-10.2,38.9-34.5,46.5ZM331.8,138.1c0-13-7.9-22.7-28.5-22.7h-38.9v46.5h38.9c20.6,0,28.5-10.2,28.5-23.8ZM530.8,183.9c0,22.9-14.3,38.6-39.3,38.6s-39.3-15.7-39.3-38.6v-97.2h-41.7v99.7c0,41.7,29.6,69.2,81,69.2s81-27.3,81-69v-100h-41.7v97.2ZM772.1,139.5c0,33.8-24.8,54.8-64.1,54.8h-46.7v56.7h-41.4V86.7h89.6c38.4,0,62.7,20.4,62.7,52.8ZM728.3,140.7c0-15.7-10.4-24.8-29.2-24.8h-37.9v49.7h37.9c18.5,0,29.2-9,29.2-25ZM985.9,168.9c0,53-36.8,86.8-93.5,86.8s-93.5-33.8-93.5-86.8,36.8-86.8,93.5-86.8,93.5,33.8,93.5,86.8ZM942.6,168.9c0-33.8-19.4-54.8-50.2-54.8s-50.2,21.1-50.2,54.8,19.4,54.8,50.2,54.8,50.2-21.1,50.2-54.8ZM1145.7,152.2h-79.8v-65.5h-41.4v164.3h41.4v-67.8h79.8v67.8h41.7V86.7h-41.7v65.5ZM1342.1,86.7l69.7,164.3h-43l-13.6-35.9h-75.2l-13.9,35.9h-43l69.9-164.3h49.3ZM1344.2,186.9l-15.7-41.2c-5.1-11.8-8.3-19.4-10.9-30.5h-.5c-2.3,11.1-5.6,18.7-10.6,30.5l-15.7,41.2h53.4ZM1603.6,204.5c0,25.7-18,46.5-58.3,46.5h-97.6V86.7h95.8c38.4,0,56,18.1,56,41.9s-10.4,31.7-30.8,36.6c22.9,3.5,34.9,17.8,34.9,39.3ZM1489.1,153.9h43c18.3,0,24.1-9.3,24.1-19.9s-6.5-18.7-24.1-18.7h-43v38.6ZM1560.3,201.3c0-12.5-8.3-20.6-25.5-20.6h-45.8v41.9h45.4c17.8,0,25.9-9,25.9-21.3ZM1645,251h41.4V86.7h-41.4v164.3ZM1876.4,86.7h-155.3v32.9h56.9v131.4h41.4V119.6h56.9v-32.9ZM1988.1,86.7l69.7,164.3h-43l-13.6-35.9h-75.2l-13.9,35.9h-43l69.9-164.3h49.3ZM1990.2,186.9l-15.7-41.2c-5.1-11.8-8.3-19.4-10.9-30.5h-.5c-2.3,11.1-5.6,18.7-10.6,30.5l-15.7,41.2h53.4ZM2454.9,168.9c0,93.3-75.6,168.9-168.9,168.9s-168.9-75.6-168.9-168.9S2192.7,0,2286,0s168.9,75.6,168.9,168.9ZM2432.6,168.9c0-80.8-65.7-146.6-146.6-146.6s-146.6,65.7-146.6,146.6,65.7,146.6,146.6,146.6,146.6-65.7,146.6-146.6ZM2828.5,168.9c0,93.3-75.6,168.9-168.9,168.9s-168.9-75.6-168.9-168.9S2566.3,0,2659.6,0s168.9,75.6,168.9,168.9ZM2806.2,168.9c0-80.8-65.7-146.6-146.6-146.6s-146.6,65.7-146.6,146.6,65.7,146.6,146.6,146.6,146.6-65.7,146.6-146.6ZM2334.7,251.5v-20.4h-76.9c1-4,2.5-7.7,4.4-11.1,1.9-3.4,4.3-6.5,7.2-9.5,2.9-2.9,6.2-5.7,10-8.4,3.8-2.6,8-5.3,12.6-8.1l12-7.1c10.6-6.3,18.4-13.7,23.3-22.2,4.9-8.5,7.4-18.4,7.4-29.5s-1.1-14-3.3-20c-2.2-6-5.4-11.2-9.5-15.5-4.1-4.3-9-7.6-14.8-10-5.8-2.4-12.2-3.5-19.2-3.5s-13.6,1.3-19.4,3.9c-5.8,2.6-10.8,6.3-14.9,11.1-4.2,4.8-7.3,10.7-9.6,17.7-2.2,7-3.3,14.9-3.3,23.6v3.2h18.5v-1.9c0-12.2,2.5-21.5,7.5-28.1,5-6.6,11.8-9.9,20.4-9.9s15.6,2.7,20.7,8.2c5.1,5.4,7.6,12.5,7.6,21s-1.7,14.4-5,20c-3.4,5.6-8.6,10.7-15.8,15.2l-12,7.5c-7.6,4.7-14.2,9.5-19.9,14.4-5.7,4.9-10.3,10.1-14.1,15.8-3.7,5.7-6.5,12-8.4,18.9-1.9,6.9-2.8,14.9-2.8,23.9v.6h97.3ZM2709,193.5c0-8-1.1-15.4-3.4-22-2.3-6.7-5.6-12.4-9.8-17.2-4.2-4.8-9.3-8.5-15.2-11.2-5.9-2.6-12.6-4-19.9-4-11.2,0-20.2,3.6-27.1,10.7l5.6-44.2h62.1v-19.3h-75.6l-11.4,87h16.3c7-10.2,16-15.2,27.1-15.2s17.4,3.3,23.1,10c5.7,6.7,8.5,15.6,8.5,26.7s-.8,10.4-2.3,14.8c-1.5,4.4-3.6,8.2-6.3,11.4-2.7,3.2-6.1,5.6-10,7.4-3.9,1.8-8.3,2.7-13,2.7-7.7,0-14.1-2.4-19.1-7.1-5-4.7-8.1-11.4-9.2-20h-19.1c.6,7,2.1,13.4,4.6,19.2,2.5,5.8,5.9,10.8,10.1,15,4.2,4.2,9.2,7.5,14.8,9.8,5.7,2.3,11.8,3.4,18.6,3.4s14.3-1.4,20.5-4.2c6.2-2.8,11.6-6.7,16.1-11.8,4.5-5.1,8-11.2,10.4-18.4,2.4-7.2,3.7-15,3.7-23.6Z"/>
</svg>