<?xml version="1.0" encoding="UTF-8"?>
<svg id="Capa_1" xmlns="http://www.w3.org/2000/svg" version="1.1" viewBox="0 0 792 141.2">
  <!-- Generator: Adobe Illustrator 29.4.0, SVG Export Plug-In . SVG Version: 2.1.0 Build 152)  -->
  <defs>
    <style>
      .st0 {
        fill: #ff4026;
      }
    </style>
  </defs>
  <g>
    <path class="st0" d="M224.5,76.9l8.4-22.6c.2-.5.4-.8.6-.8s.4.3.5.8l8.4,22.6h-17.9ZM234.6,39.5h-16.8c0,4.4,2,8.3,5.1,10.9l-21,51.3h13l5.7-14.7h25.5l5.7,14.7h13l-23.2-56.8c-1.4-3.3-3.8-5-7.1-5.3h0Z"/>
    <path class="st0" d="M284.5,50.1h28.7v-10.6h-43.2v48.8c0,4.4,1.3,7.7,4,10,2.7,2.3,6.1,3.4,10.5,3.4h28.7v-10.6h-27c-2.7,0-4-.9-4-2.8v-12.4h29.7v-10.6h-29.7v-15.2h2.3Z"/>
    <path class="st0" d="M351.8,66.1c-1.9,1.4-4.8,2.2-8.7,2.2h-10.2v-18.1h10.2c4.5,0,7.5.8,9.1,2.3,1.6,1.5,2.4,3.8,2.4,6.9s-1,5.3-2.9,6.7h0ZM366.8,59.4c0-6.4-2.1-11.3-6.4-14.8-4.3-3.4-10-5.1-17.3-5.1h-22.4v62.1h12.2v-22.8h10.8l14.6,22.8h14.7l-16.8-25.5c7.1-2.9,10.6-8.5,10.6-16.8h0Z"/>
    <path class="st0" d="M417.8,86.2c-3.1,3.6-7.5,5.4-13.3,5.4s-10.2-1.8-13.3-5.4c-3.1-3.6-4.7-8.9-4.7-15.9s1.6-12.1,4.7-15.6c3.1-3.5,7.5-5.2,13.3-5.2s10.2,1.7,13.3,5.2c3.1,3.5,4.6,8.7,4.6,15.6s-1.6,12.2-4.7,15.9ZM404.6,39.5c-9.6,0-17,2.7-22.2,8.1s-7.8,13-7.8,22.8,2.6,17.4,7.8,23c5.2,5.5,12.6,8.3,22.2,8.3s17-2.8,22.1-8.3,7.8-13.2,7.8-23-2.6-17.4-7.8-22.8c-5.2-5.4-12.6-8.1-22.1-8.1Z"/>
    <path class="st0" d="M520.6,88.3c0,4.4,1.3,7.7,4,10s6.1,3.4,10.5,3.4h28.7v-10.6h-27c-2.7,0-4-.9-4-2.8v-12.4h29.7v-10.6h-29.7v-15.2h31v-10.6h-43.2v48.8Z"/>
    <path class="st0" d="M627,39.5h-14.3l-13.4,18.2c-.6.8-1.8.8-2.4,0l-13.3-18.2h-14.3l21.7,29.6-24,32.6h14.3l15.7-21.4c.5-.7,1.6-.7,2.1,0l15.7,21.4h14.3l-23.9-32.6,21.7-29.6h0Z"/>
    <path class="st0" d="M634.4,39.5v62.1h12.2v-50c0-6.7-5.4-12.2-12.2-12.2Z"/>
    <path class="st0" d="M663.1,47.8c-6,5.5-8.9,13-8.9,22.6s3,17.1,8.9,22.8,14,8.5,24.2,8.5,12.4-.8,19-2.3v-10.7c-7.4,1.7-13.8,2.6-19.1,2.6s-11.5-1.8-15.3-5.5c-3.8-3.7-5.7-8.8-5.7-15.4s1.9-11.6,5.7-15.1c3.8-3.5,9.1-5.3,15.8-5.3s11.2.9,18.6,2.6v-10.8c-6.6-1.4-12.8-2.2-18.6-2.2-10.4,0-18.6,2.8-24.6,8.2h0Z"/>
    <path class="st0" d="M755.2,86.2c-3.1,3.6-7.5,5.4-13.3,5.4s-10.2-1.8-13.3-5.4c-3.1-3.6-4.7-8.9-4.7-15.9s1.6-12.1,4.7-15.6c3.1-3.5,7.6-5.2,13.3-5.2s10.2,1.7,13.3,5.2,4.6,8.7,4.6,15.6-1.6,12.3-4.7,15.9ZM764.1,47.6c-5.2-5.4-12.6-8.1-22.1-8.1s-17,2.7-22.2,8.1c-5.2,5.4-7.8,13-7.8,22.8s2.6,17.5,7.8,23,12.6,8.3,22.2,8.3,17-2.8,22.1-8.3c5.2-5.5,7.8-13.2,7.8-23s-2.6-17.4-7.8-22.8Z"/>
    <path class="st0" d="M779.5,95.5c.2,0,.5,0,.7,0,.2,0,.4,0,.6-.1.2,0,.3-.2.4-.3,0-.1.1-.3.1-.6s0-.4-.1-.5-.2-.2-.3-.3-.3-.1-.5-.1c-.2,0-.3,0-.5,0h-1.4v2.1h1.1,0ZM780,92.6c.8,0,1.4.2,1.8.5.4.3.6.8.6,1.4s-.2,1-.5,1.3c-.3.3-.8.4-1.3.5l1.9,2.9h-1.1l-1.8-2.9h-1.1v2.9h-1v-6.7h2.6,0ZM775.3,97.8c.2.6.6,1.1,1,1.5.4.4.9.8,1.5,1,.6.3,1.2.4,1.9.4s1.3-.1,1.8-.4c.6-.2,1.1-.6,1.5-1s.8-1,1-1.5c.2-.6.4-1.2.4-1.9s-.1-1.3-.4-1.9c-.2-.6-.6-1.1-1-1.5-.4-.4-.9-.8-1.5-1-.6-.2-1.2-.4-1.8-.4s-1.3.1-1.9.4c-.6.2-1.1.6-1.5,1-.4.4-.8.9-1,1.5-.2.6-.4,1.2-.4,1.9s.1,1.3.4,1.9ZM774.4,93.6c.3-.7.7-1.3,1.2-1.8.5-.5,1.1-.9,1.8-1.2.7-.3,1.4-.4,2.2-.4s1.5.1,2.2.4c.7.3,1.3.7,1.8,1.2.5.5.9,1.1,1.2,1.8.3.7.5,1.4.5,2.2s-.1,1.6-.5,2.3-.7,1.3-1.2,1.8c-.5.5-1.1.9-1.8,1.2s-1.4.4-2.2.4-1.5-.1-2.2-.4c-.7-.3-1.3-.7-1.8-1.2-.5-.5-.9-1.1-1.2-1.8-.3-.7-.5-1.5-.5-2.3s.1-1.5.5-2.2Z"/>
    <path class="st0" d="M478.6,90c2.9,0,5.4-1.8,7.3-5.4l13-24.5v41.6h12.1v-62.1h-13.1l-20.4,35.3c-.2.4-.5.5-.8.5h0c-.3,0-.6-.2-.8-.5l-18-31.2c-1.5-2.6-4.2-4.1-7.2-4.1h-13.4c0,4.4,2,8.3,5.1,10.9v51.3h12.1v-41.6l13,24.5c1.9,3.6,4.3,5.4,7.3,5.4h3.8Z"/>
  </g>
  <path class="st0" d="M144.2,33.5c-1.5,0-3,.2-4,.5-12.5-.7-18.4,2.1-23.5,2.1s-14.4-5.4-23.5-8.9c0,0,11.4-2.9,22.2-2.9s21.5,6.1,24.7,9.8c-6.8-16.3-29.7-25.9-42.8-25.9-27.8,0-43.1,13.8-63.2,14.1-2.4,0-8.9,0-8.9,0,0,12.4,4.6,19.6,6.7,21.5-5,2.9-25.2,28.3-25.2,40.1h0l.9,2.2,16.3,2.1-3.2,16.7h0l.9,2.2,16,2.1-5.8,19.8h0l.9,2.2s5.5,2.1,13.4,2.1,37.6.8,42.2-38.3c0-.2,0-.3,0-.5,5.4,21.1,19.5,25,48.6,25s4.8-10.9,5.7-14.5c.9-.5,1.6-2.1,1.1-3.8.5-.4,1.2-1.6,1.2-2.5,0-2.1-1.1-4.9-1.1-9.5,2.4-.7,6.8-1.6,6.8-4.9s-4.5-13-7.3-20.3c-.4-1.1-1.4-2-2.6-2-1.9,0-2.7,2.5-7.8,2.5-9.5,0-6-9-34.7-7.2-3.5.2-4.5,1.3-4.9,4.6-1.1,8.1-.8,30.2,3.9,43.4-6-6.6-8-19.1-8.9-28.8-1.9,18-3,42.6-25.8,50.8-9.8,3.4-20.6,2.7-30.8,1.5h0c6.1.1,12.2,0,18.3-.9,4-.5,7.9-1.4,11.5-3,26.4-11.1,18.2-46.6,24.6-64-11.7,11.8-14,43.6-42.8,45.2-7.6.5-15.2-.1-22.7-1.3h0c7.5.2,15.1.1,22.5-.9,25.8-3.5,26.2-31.3,38.3-45.4-5,1.1-9.8,2.6-14.2,5.1-6.6,3.4-11.2,8.8-16.7,13.9-7.1,6.6-14.9,8.6-24.4,8-6.5-.3-13.1-.8-19.6-1.6h0c.3,0,11.2-.3,11.2-.3,7.1-.3,14.9.1,21.5-2.9,5-2.1,8.7-6.1,12.3-10.1,6.7-7.6,14.2-12.9,24.1-15.8,7.3-2.2,31.3-4.7,46.2-4.1,8.8.3,26.8,2.5,38.3,7.2-.2,0-.4,0-.5-.1-4.9-1-10.6-.4-15.3,1.4,4.9.1,10.2.5,14.3,1.5,3.6.9,10.8,2.5,11.7,6.5,0-.3.2-1.3.2-3.7,0-15.4-12.8-29.8-26.4-29.8h0Z"/>
</svg>