<?xml version="1.0" encoding="UTF-8"?>
<svg id="Layer_1" xmlns="http://www.w3.org/2000/svg" version="1.1" viewBox="0 0 792 612">
  <!-- Generator: Adobe Illustrator 29.4.0, SVG Export Plug-In . SVG Version: 2.1.0 Build 152)  -->
  <defs>
    <style>
      .st0 {
        fill: #ef452f;
      }
    </style>
  </defs>
  <g>
    <path class="st0" d="M310.9,324.8c-6.3,10.9-18.1,18.3-31.6,18.3-20.2,0-36.5-16.4-36.5-36.5s16.3-36.5,36.5-36.5,25.3,7.3,31.6,18.3l24.3-14c-11.2-19.3-32-32.3-55.9-32.3-35.6,0-64.5,28.9-64.5,64.5s28.9,64.5,64.5,64.5,44.7-13,55.9-32.3l-24.3-14Z"/>
    <path class="st0" d="M463.4,242c-12.5,0-23.9,5-32.2,13.1-8.3-8.1-19.7-13.1-32.2-13.1-25.6,0-46.3,20.7-46.3,46.3h0v82.8h27.9v-82.8c0-10.1,8.3-18.3,18.4-18.3s18.4,8.2,18.4,18.3v82.8c0,0,27.8,0,27.8,0v-82.8c0-10.1,8.1-18.3,18.2-18.3s18.4,8.2,18.4,18.3v82.8h27.9v-82.8c0-25.6-20.7-46.3-46.3-46.3Z"/>
  </g>
  <path class="st0" d="M551.1,291.2l10.9-7.6c9.4-6.8,14.7-12.1,14.7-22.2v-.2c0-12-9.1-20.2-23.4-20.2s-19,4.8-25.8,13.5l12.3,9.4c4.7-5.3,8-7.6,12.1-7.6s7.1,2.5,7.1,6.4-3.3,7.5-8.2,11.4l-15.5,11.8c-4.9,3.8-8.3,11.2-8.3,19.6h50.2v-14.3h-26.2Z"/>
</svg>