<?xml version="1.0" encoding="UTF-8"?>
<svg id="Layer_1" xmlns="http://www.w3.org/2000/svg" version="1.1" viewBox="0 0 793.7 609.5">
  <!-- Generator: Adobe Illustrator 29.6.0, SVG Export Plug-In . SVG Version: 2.1.1 Build 207)  -->
  <defs>
    <style>
      .st0 {
        fill: none;
      }

      .st1 {
        fill: #ff4026;
      }
    </style>
  </defs>
  <rect class="st0" y="0" width="793.7" height="609.5"/>
  <g>
    <g>
      <path class="st1" d="M397,49.7l-239.9,123.8v261l239.6,123.8,239.9-123.8V173.5c-22.1-11.4-208.8-107.9-239.6-123.8ZM627.1,179.2v249.5l-230.4,118.9-230.1-118.9v-249.5h0s230.4-118.9,230.4-118.9l230.1,118.9h0Z"/>
      <path class="st1" d="M450.4,246.6c1.2,6.6,1,29.1,1,30.4,0,4,0,8.1-2.7,11.5l15.2,11.2,11-8.4-8.1-6.9c0-5,0-35.9,0-35.9l3.6-3.1,10.8,10.6,9.7-8.3-12.8-13.1-9.8,7.8-8.3-7.7-12.7,7.4s2.8,1.5,3.4,4.4Z"/>
      <path class="st1" d="M504.9,264.9c0,.8-.2,5.7-.3,7.5-.4,6.8-1,13.4,4.6,18.6,4.7,4.3,13.8,8.6,13.8,8.6,0,0,8.5-10.1,12.6-15.4,11.7-14.6,15-30.4,9.3-44.4-2.7-5.7-5.3-7.4-5.3-7.4l-11.9,7.8s4,4,5.2,5.9c8,12.1,5.9,27.4-6.1,41.7-.9,1-1.9,2.4-1.9,2.4-2.8-.6-4.9-2.6-6.1-6.8-1.8-6.4-.7-33.8-.7-36,0-4.1-.8-8.7-6.3-11.7h-.1c0,0-11.6,6.9-11.6,6.9,0,0,1.5,1.2,2.3,2,3.6,3.9,2.9,15,2.7,20.2Z"/>
      <path class="st1" d="M190.9,211.5c4.1-1.7,8.8-1.6,12.9,0,.3.1.6.2.9.4,1.7.7,3.5,1.5,6.9,1.9.4,0,.8,0,1.2-.2,2.1-.9,16.7-7.9,18.1-8.6,1.7-.9,1.8-1.3,1.8-1.6,0-.3-.5-.5-1.1-.5-.9,0-5.5,1.4-6,1.4-.4,0-.8-.1-1.5-.3-.2,0-8.8-2.1-10-2.4-2-.5-6.7-1.9-9.2-.7-13.9,6.9-24.2,11.6-24.2,11.6,0,0,3.4.9,4.7,1,.8,0,2.5-.5,3.8-1.2.6-.3,1.2-.6,1.8-.9Z"/>
      <path class="st1" d="M566.1,249.9c12.6-.9,17.2-2.9,18.6-3.6v8.5c-.3.5-2.6,4.2-9.7,7.4-10.8,4.9-16,11.5-16,20s5.7,15.9,16.1,18.2h.3c0,0,0-.2,0-.2.4-2.3,9.5-11.3,10-11.8,1,5.8,4.4,9,12,11.3h.3c0,.1,0-.2,0-.2.2-2.1,4.7-6.6,7.6-9.6,1.4-1.4,2.4-2.5,2.7-3l.2-.4h-.5c-5.1-.6-7.1-3.2-7.3-9.4v-23.9c0-8.9-.6-11.2-3.6-14.5-4.1-4.3-10.2-5.4-10.2-5.4v.2c-2.6,7.2-8.9,11.7-16.8,12,.1-.7.1-1.1.1-1.5,0-3.2-2.3-5.4-5.8-5.4s-5.7,2.4-5.7,5.1.6,3.2,1.7,4.2c1.4,1.3,3.4,2,5.9,1.8ZM584.7,279.6c0,5.3-1.4,7.6-4.6,7.6s-5.6-3.4-5.6-11.3,1.6-10.6,6.1-13.2l.8-.5c2-1.3,2.6-1.7,3.3-2.5v19.8Z"/>
      <path class="st1" d="M248,326h-12.3c1.1,2.1,1.5,3,1.5,5.3v23.7c0,2.3-.4,3.2-1.5,5.3h12.3c5.5,0,10.6-1,14.3-8,2.9-5.7,3.1-12.9.2-18.5-3.3-6.5-10.5-7.6-14.5-7.6ZM255.8,348.4c-.7,2.6-2.4,5.9-5.3,6.8-1.6.5-4.3.3-5.8.2v-24.6c2.7-.1,6.6-.7,9.1,2.6,2.7,3.5,2.9,11.5,2,15Z"/>
      <path class="st1" d="M271.3,360.2h19.4l1.9-6.9c-4.2,2.5-8.3,3.2-12.7,2.2v-9.3h1.5c2.7,0,4.4,0,6.7,1.3v-7.2c-2.6,1.6-4.8,1.5-6.9,1.5h-1.3v-8c3.1-.4,7.9-.7,11.1,2.4l-.9-7h-18.8c1.3,2.1,1.4,3.3,1.5,5.3v20.4c0,2.7-.4,3.1-1.4,5.3Z"/>
      <path class="st1" d="M305.3,360.2h19.2l2.1-8c-5,3.4-6.7,2.8-12.2,2.8v-23.7c0-2.3.4-3.2,1.5-5.3h-10.6c1.1,2.1,1.5,3,1.5,5.3v23.7c0,2.3-.4,3.2-1.5,5.3Z"/>
      <path class="st1" d="M339.1,352.7h9.5c1,2.7,2.3,4.7.6,7.6h10.6c-1-1.2-1.7-2-2.3-3.8l-9.8-27.2h-4.6l-10.2,27.2c-.8,2.2-1.2,2.5-2.1,3.9h7.6c-1.7-2.7-.4-4.8.7-7.6ZM343.9,337.3l3.9,11.5h-7.9l4-11.5Z"/>
      <path class="st1" d="M373.5,331.3v23.7c0,2.3-.4,3.2-1.5,5.3h10.6c-1.1-2.1-1.5-3-1.5-5.3v-10.5c3.5,0,4.8-.2,7.2,1.6v-7.7c-2.6,1.6-3.8,1.3-7.2,1.3v-8.9c3.4-.4,7-.2,10.4,3l-.5-7.8h-19c1.1,2.1,1.5,3,1.5,5.3Z"/>
      <path class="st1" d="M421.4,360.2c-1-1.2-1.7-2-2.3-3.8l-9.8-27.2h-4.6l-10.3,27.2c-.8,2.2-1.2,2.5-2.1,3.9h7.6c-1.7-2.7-.4-4.8.7-7.6h9.6c1,2.7,2.3,4.7.6,7.6h10.5ZM401.4,349.5l4.1-11.5,3.9,11.5h-8Z"/>
      <path class="st1" d="M427.4,329.2c.9,2,.9,3.1.7,5.5l-2.4,20c-.4,2.7-.6,3.3-1.7,5.5h7.3c-1.3-2.6-1.3-3.4-1-6l1.8-14.3,7.8,20.2h1.8l7.6-20.1,1.7,14.2c.3,2.9.3,3.4-.9,5.9h9.8c-.9-2-1.1-3-1.4-4.4l-2.5-21.2c-.2-2.2,0-3.3,1-5.4h-9.9c0,2.2-.2,2.7-1,5.2l-4.1,10.6-4.2-11.2c-.7-2-.8-2.8-.9-4.6h-9.9Z"/>
      <path class="st1" d="M467.7,360.2h10.1c-1-1.9-1.4-2.7-1.4-4.8v-21.5c0-2.1.4-2.9,1.4-4.8h-10.1c1.1,1.9,1.5,2.7,1.5,4.8v21.5c0,2.1-.4,2.9-1.5,4.8Z"/>
      <path class="st1" d="M496,329.2h-10.1c1.1,1.9,1.5,2.7,1.5,4.8v21.5c0,2.1-.4,2.9-1.5,4.8h18.3l2-7.3c-4.8,3.1-6.4,2.5-11.7,2.5v-21.5c0-2.1.4-2.9,1.4-4.8Z"/>
      <path class="st1" d="M522.8,329.2h-10.1c1.1,1.9,1.5,2.7,1.5,4.8v21.5c0,2.1-.4,2.9-1.5,4.8h10.1c-1.1-1.9-1.4-2.7-1.4-4.8v-21.5c0-2.1.4-2.9,1.4-4.8Z"/>
      <path class="st1" d="M542,329.2l-10.2,27.2c-.8,2.2-1.2,2.5-2.1,3.9h7.6c-1.7-2.7-.4-4.8.7-7.6h9.5c1,2.7,2.3,4.7.6,7.6h10.6c-1-1.2-1.7-2-2.3-3.8l-9.8-27.2h-4.5ZM538.7,349.5l4-11.5,3.9,11.5h-7.9Z"/>
      <path class="st1" d="M520,383.2h-248.7c-.9,0-1.7.7-1.7,1.7s.7,1.7,1.7,1.7h248.7c.9,0,1.7-.7,1.7-1.7s-.7-1.7-1.7-1.7Z"/>
      <path class="st1" d="M498.6,420.5c-2.2-.5-4.5.6-6.3,2.5-3.5,3.6-5.8,10.5-6.1,14.3-.4,5.4,1.9,8.4,4,8.9,1.3.3,2.8,0,3.9-.5,3.9-1.7,8-7.8,8.6-16.1.3-3.5-1-8.4-4.2-9.1ZM493.1,443c-.7,1-1.3,1.5-1.9,1.4-.8-.2-1.3-1.5-1.1-3,.5-6.6,3.2-14,5.6-17.4.9-1.4,1.8-1.9,2.4-1.8.9.2,1.2,1.5,1.1,2.9-.4,5.6-4.1,15.4-6,17.9Z"/>
      <path class="st1" d="M421.7,436.2c-1.8,2.8-4.5,5.6-5,5.6-.3,0,.2-2.8.4-3.4,1.2-6.3,4.9-16.9,4.9-16.9,0,0-3.4.4-4.4.5,0,0-1.9,6.2-3,9.5-1.9,5.4-4.4,11-6.9,10-.5-.2-.3-1.5,0-2.9.8-2.5,3.5-11.3,4.3-14,.8-2.7-.9-3.3-2-3.2-2.4.2-4.7,2.3-5.3,3.9-.1.3-.2.8-.2,1.1,0,.4.6.4,1-.1.5-.5,1.3-1,1.7-1.1.3,0,.4.3.2,1.2-.8,3.5-3.5,12.8-4,15.8-.6,3.9,1.6,4.1,2.7,4,.7,0,1.9-.5,2.8-1.3.5-.5,1.8-1.4,3.8-5.5.4-.8-.2,2.8,0,5.1,0,1.2,1,2,1.8,2,2.4,0,7-5.6,7.9-9.1.2-.6.1-1,.1-1.3,0-.5-.5-.3-.7,0Z"/>
      <path class="st1" d="M347.5,420.9c-1.7-.1-3.4.6-4.4,1.5-2.7,2.5-2.2,6.2-1.1,9.2,1.2,3.1,3.5,6.2,2.9,9.6-.2,1.2-.9,2.2-1.9,2.6-1.1.3-2.1,0-2.9-.8-1-1.1.6-1.6,1-2.4.3-.6.3-1.1,0-1.8-.3-.6-.8-.9-1.3-1-1.1-.3-2.1.2-2.7,1.2-1.1,1.6-.5,4,.7,5.5,1.6,1.7,4.1,2.2,6.3,1.8,2.4-.4,3.8-2.5,4.4-4.6,1.2-4.9-1.9-9.6-3.6-14.2-.3-.8-.4-1.7-.2-2.6.1-.7.4-1.4,1.1-1.8.7-.4,1.3-.4,2-.2,1.7.5,1.1,2,1.3,3.2,0,.5.3.9.7,1.2.2.1.4.1.7.2.8,0,1.1-.2,1.3-.7.6-1.2.5-2.6-.2-3.8-.9-1.3-2.7-1.8-4.1-1.9Z"/>
      <path class="st1" d="M458.4,420.7c-2.8.1-4.8,1.3-6.5,4.1l-.2-.4c-.3-.7.3-1,.4-1.4.1-.5,0-.9-.4-1.1-1.2.7-3.2.4-4.6.5,1.2,2,.6,4,.3,5.9l-3.4,16.7-.2,1s3.2,0,4.5-.1c1.2-5.8,2-9.5,3.2-14.3.8-3,1.5-6.7,4.4-8.3.8-.4,1.4-.7,2-.2.1.1.2.3.3.4.2.3.2.8.1,1.1,0,.7-.7,1.1-1.3,1.3,0,.5.2,1,.4,1.5,0,.1.1.3.2.4.4.5.9.9,1.5.9,1,0,1.9-.4,2.4-1.1.4-.4.6-1,.7-1.5.3-1.1.3-2.3-.5-3.4-.7-1.2-2.2-1.9-3.4-2Z"/>
      <path class="st1" d="M480.6,421.3c-1.7-2-3.7-.6-4.1-.1-.3.4-.4.9-.4,1.4,0,.4.2.8.5,1.1,1,1.2,2.2,2.3,2.4,3.8.6,4.8-2.4,8.8-5.8,11.9-1.9,1.7-3.7,3.2-5.5,4.1,0,0,0-.1.1-.2,4.3-7,5.4-14.1,5.6-16.2.1-1.2.3-2.3,0-3.6-.2-.7-.7-1.3-1.4-1.7-.4-.2-.8-.4-1.2-.5-1.9-.6-3.9,0-5,1-.1.1,0,.3,0,.3.4,0,.8,0,1.4,0,.7.2,1.2.8,1.2,1.4.2,5.7-1.4,10.6-2.7,15.8-.5,1.9-1.2,3.7-1.6,5.6,0,0,0,.1,0,.2.8.6,2.4,0,3.2-.3,4-1.7,7.2-4.5,10.1-7.7,2-2.3,3.5-4.8,4.3-7.5.5-1.6.7-3.3.4-5-.2-1.3-.6-2.7-1.6-3.9Z"/>
      <path class="st1" d="M401.6,449.7c-.2,0-2.2,1.6-2.5,1.9-1,.8-1.8,1.2-2.3,1.5-1.7.8-3,1.1-4.2,1.1-3,0-6.7-2-8-8.1-1.3-6.5,1.3-15.8,4.1-21.8,3.8-8.2,9.4-14.1,15.1-15.9,3.8-1.2,7.3.4,6.2,4-.5,1.6-1,1.8-1.9,2.9-.7.8-1.6,1.4-1.6,2.6,0,.4.2.8.7.7,1,0,4.4-2.9,4.7-3.2,1.2-1,2-2.1,2.1-3.5.4-5.6-4.9-7.2-8.2-7.1-.9,0-2.5.2-3.6.6-9.6,3.6-16.1,12.4-20.1,22.3-2.5,6.2-4.1,14.5-2.3,21.9,1.6,6.8,6.7,10,10.3,9.5,3.9-.5,8.9-2.7,11.5-7.1.2-.3.6-1.1.7-1.5.2-1-.2-1-.6-.8Z"/>
      <path class="st1" d="M368.2,421.1c-2.4-.4-4.9.5-7.3,3.2-2.6,3.1-5.2,9.3-5.4,13.7-.2,4.5,2.1,7.5,3.8,7.9,3.3.7,6.6-1.8,8.6-4.6.3-.5.7-1.3.7-1.8,0-.2-.1-.5-.3-.5-.3,0-.7.4-1.1.8-2,1.9-3.7,2.5-4.9,2.3-1.1-.2-2.2-1.2-2.1-3.6,0-1.7.2-2.1.2-2.1.2-.1,6.8-1.7,9.9-8.2,1.2-2.5.8-6.5-2-7ZM368.2,424.6c0,2.2-3.4,6.9-7.5,9.8,0,0,0-.5.3-1,1.6-5.2,4.7-10.9,6.7-10.6.4,0,.6.6.5,1.8Z"/>
      <path class="st1" d="M276.9,301.7l.3-.4h-.5c-4.8-1.1-6.2-3.6-6.2-11.2v-15.5c-.4-9.8-10-16.8-16.5-17.2-1.1,0-2.4-.1-3.7-.1-1.6,0-3.7,0-4.3-.3.3-.3,1.7-.5,2.6-.6.5,0,.9-.1,1.3-.2.2,0,18.9-3.9,20.4-16.6,1.8-15,1.5-29.7-12-35.5-3.9-1.8-9.8-2.7-10.1-2.7h-.1s-.1,0-.1,0c-6.4,4.9-50.7,24.7-51.2,24.9h-.2v5l9.9-4.5v61.3s-5.5,3.9-5.5,3.9l-.2,2.4.5-.3c6.8-4.2,20.3-5,20.4-5h.3s-.3-57.2-.3-69.3l5.2-2.3c0,12.8.2,68,0,74.6-1.4,1.6-2.4,2.5-4.5,2.9-1.7.3-3.5.7-5.5,1-6.9,1.2-14.8,2.7-17.2,4.9-5.6,4.6-12.1,16.1-12.1,16.1,0,0,3.7-.7,4.4-1.5.4-.5,3.8-4.3,4.5-5,2.7-2.8,13.6-3.2,16.3-3.1,5.1,0,9.6-1.1,9.6-1.1l8.1-13.1v-31.4h5.7c10.7,0,15.9,3.1,15.9,9.6v25.4c0,8.6.3,9.2,2.6,11.8,1.2,1.3,5.1,4,9.7,4.8h.3s0-.2,0-.2c.7-2.6,4.3-5.3,7.5-7.8,1.8-1.4,3.5-2.7,4.4-3.7ZM232.8,254h-1.9v-38.1l14.2-6.4c9.6,3,9.6,11.5,9.5,27.6h0c0,10.2-13.2,16.9-21.8,16.9Z"/>
      <path class="st1" d="M286.3,290.5l20.5,9,20.1-14.9-2.5-2.5-10.8,6.6-13.2-6.8v-10.8l27.7-15.5-16.2-20.8-27.9,12.8s2.3,3.6,2.3,10.4v32.5ZM300.4,249.2l5.7-3.2,8.2,11.8-13.9,7.8v-16.4Z"/>
      <path class="st1" d="M395.9,258.1v32.5s20.6,9,20.6,9l20.1-14.9-2.5-2.5-10.8,6.6-13.2-6.8v-10.8l27.7-15.5-16.2-20.8-27.9,12.8s2.3,3.6,2.3,10.4ZM410,249.2l5.7-3.2,8.2,11.8-13.9,7.8v-16.4Z"/>
      <path class="st1" d="M354.1,299.5l25.6-19v-22.8s-24.3,6.9-24.3,6.9v-16.8s6.1-3.2,6.1-3.2l6.1,7.4,10.6-7-.9-1.1c-2.6-3.1-4.9-6.4-7-9.9l-.8-1.2s-7.9,5.7-13.6,8.8c-10.7,5.7-16.7,7-16.7,7,0,0,2.3,2,2.3,3.7v22.7l23.4-6.6v15.6s-4.3,3-4.3,3c-.7-.3-6.9-2.2-9.2-3-3.1-1.1-5-1.3-7-1.3s-7.1.5-9,4.4c0,0,3.8,1.6,8.9,4.9,5.3,3.2,9.8,7.5,9.8,7.5Z"/>
      <path class="st1" d="M437.9,421.1c-2.4-.4-4.9.5-7.3,3.2-2.6,3.1-5.2,9.3-5.4,13.7-.2,4.5,2.1,7.5,3.8,7.9,3.3.7,6.6-1.8,8.6-4.6.3-.5.7-1.3.7-1.8,0-.2-.1-.5-.3-.5-.3,0-.7.4-1.1.8-2,1.9-3.7,2.5-4.9,2.3-1.1-.2-2.2-1.2-2.1-3.6,0-1.7.2-2.1.2-2.1.2-.1,6.8-1.7,9.9-8.2,1.2-2.5.8-6.5-2-7ZM437.8,424.6c0,2.2-3.4,6.9-7.5,9.8,0,0,0-.5.3-1,1.6-5.2,4.7-10.9,6.7-10.6.4,0,.6.6.5,1.8Z"/>
      <path class="st1" d="M329.4,420.5c-2.2-.5-4.5.6-6.3,2.5-3.5,3.6-5.8,10.5-6.1,14.3-.4,5.4,1.9,8.4,4,8.9,1.3.3,2.8,0,3.9-.5,3.9-1.7,8-7.8,8.6-16.1.3-3.5-1-8.4-4.2-9.1ZM323.9,443c-.7,1-1.3,1.5-1.9,1.4-.8-.2-1.3-1.5-1.1-3,.5-6.6,3.2-14,5.6-17.4.9-1.4,1.8-1.9,2.4-1.8.9.2,1.2,1.5,1.1,2.9-.4,5.6-4.1,15.4-6,17.9Z"/>
      <path class="st1" d="M327.5,406.5c1.3-.3,1.2-1.1.1-1.2-1.7-.3-5.3-.2-6.9,0-7.3.7-14.1,2.3-19.7,6.1-2.5,1.7-6.4,4.5-8.7,8.2-.7,1.1-1.1,2.2-1.4,3.2-.6,2.3,0,4.2,1.1,6.1.6.9,1.7,1.5,2.7,1.8,4.9,1,7.1-1.6,8.3-3,.3-.4.6-.7.7-1.2.4-1.1-.5-.9-.9-.4-.4.3-1.8,1.4-3.7,1.8-1.1.2-2.2,0-3-.8-.8-.7-1.2-1.8-1.1-2.9,0-.4.1-.9.3-1.5.5-2.1,2.1-4.4,4-6.1,7.2-6.5,15.9-8.3,17.6-8.7,1.1-.2,2.6-.3,2.6-.3-5.9,4.4-8.7,10-10.4,13.7-1.4,3.3-2.7,6.5-3.7,9.9-2.4,7.1-4.3,17.5-7,21.2-2.9,4.1-6,5.5-9.2,4.7-2.8-.7-5.9-3.7-4.6-8,2-6,6.8-6.3,7.8-6.3.1,0,.2-.1.2-.3-.2-.6-2.2-.9-4.1-.6-3.8.7-7.2,3.3-8.2,7-.9,3.7.7,6.4,3.1,8.4,3.3,2.6,10,4.3,15.9-.7,2.7-2.3,4.5-5.3,5.8-8.4,1.1-2.7,4.1-11.5,5-14.8,2.1-7.2,4.4-14.3,8.7-21,2.5-4.1,6.6-5.3,8.7-5.8Z"/>
    </g>
    <path class="st1" d="M574.4,360.1c-2.9,0-5.2-2.3-5.2-5.2s2.3-5.2,5.2-5.2,5.2,2.3,5.2,5.2-2.3,5.2-5.2,5.2ZM574.4,350.4c-2.4,0-4.4,2-4.4,4.4s2,4.4,4.4,4.4,4.4-2,4.4-4.4-2-4.4-4.4-4.4ZM575.7,357.7l-1.3-2.3h-.9v2.3h-.8v-5.7h1.9c1,0,1.8.7,1.8,1.7s-.5,1.4-1.2,1.6l1.4,2.4h-.9ZM574.6,352.7h-1.1v2h1.1c.6,0,1.1-.4,1.1-1s-.4-1-1.1-1Z"/>
    <path class="st1" d="M518.9,446.1c-2.9,0-5.2-2.3-5.2-5.2s2.3-5.2,5.2-5.2,5.2,2.3,5.2,5.2-2.3,5.2-5.2,5.2ZM518.9,436.4c-2.4,0-4.4,2-4.4,4.4s2,4.4,4.4,4.4,4.4-2,4.4-4.4-2-4.4-4.4-4.4ZM520.2,443.7l-1.3-2.3h-.9v2.3h-.8v-5.7h1.9c1,0,1.8.7,1.8,1.7s-.5,1.4-1.2,1.6l1.4,2.4h-.9ZM519.1,438.7h-1.1v2h1.1c.6,0,1.1-.4,1.1-1s-.4-1-1.1-1Z"/>
  </g>
</svg>