<?xml version="1.0" encoding="UTF-8"?>
<svg id="Capa_1" xmlns="http://www.w3.org/2000/svg" version="1.1" viewBox="0 0 730.7 102.6">
  <!-- Generator: Adobe Illustrator 29.4.0, SVG Export Plug-In . SVG Version: 2.1.0 Build 152)  -->
  <defs>
    <style>
      .st0 {
        fill: #f0523c;
      }
    </style>
  </defs>
  <rect class="st0" x="432.3" y="25.1" width="1.8" height="69.3"/>
  <g>
    <g>
      <path class="st0" d="M87.9,47.6c-.2-2.4-.7-4.8-1.7-7.1,0-.2-.4-.3-.6-.3-.2,0-.3,0-.3.1v.3c.8,1.9,1.3,4.1,1.6,6.5.1,1.2,0,2.6-.7,4.5-.2,1.1-.1,2.4,0,3.5,0,.5-.2.7-.4.7-.2,0-.4-.2-.5-.7-.1-1.3-.1-2.5-.2-3.5h0c0-2-.1-3.4-.5-4.9-.2-.8-.9-1.9-2.2-3.5-.6-.9-1-1.8-1.2-2.7,0-.2-.1-.4-.2-.7,0-.3-.1-.5-.2-.8l-.5-1.5c0-.1-.2-.1-.3-.1-.2,0-.5.1-.6.3,0,0-.2.3-.1.4l1.3,4.3c.3.8.9,1.5,1.5,2.2h0c.4.4.7.8,1,1.2.5.7.6,1.2.7,2,.2,1.5.4,3.5.5,6.5l.9,4.3c.2,1.4.2,3-.2,4.8,0,.6,0,.9.1.9h0c0,0,.3,0,.7-.5,1.2-1.5,1.1-6.4,1.1-10.4,0-1.2.3-2.3.6-3.2.2-1,.5-2,.4-2.9"/>
      <path class="st0" d="M83.6,41.1v-.8c0-.2-.1-.3-.2-.4-.2-.3-.5-.6-.8-.7-.1,0-.2,0-.3,0h-.1s0,0,0,.2c.2,1.6.9,3,2,4h.1s0,0,0,0c0,0,0-.1,0-.4l-.5-1.3c-.1-.3-.2-.4-.2-.7"/>
      <path class="st0" d="M78.3,52.6h0s0,0,0,0c-.2,0-.4-.2-.5-.5-.3-.4-.7-1.6-1.1-3.8-.1-.5-.2-1.1-.4-1.6-.4-1.2-.7-1.8-1.4-2.4-1.4-1-2.6-2.6-3.6-4.7-.2-.4-.4-.7-.6-.7,0,0-.2,0-.2.2-.2.2-.2.6-.1.9.5,1.1,1,2.1,1.5,2.8.2.3.5.5.7.7h.1c1,.9,1.7,1.5,2.2,2.2.5.7.6,1.5.8,2.3,0,.2,0,.4,0,.5h0c.4,2.3,1,3.9,2.2,6.2.3.7.5,1.3.6,2l.4,2.6c.1.7.3.8.4.8h.1c.1-.2.2-.4.2-.8,0-1.7,0-3.4-.4-7.6-.4-3-.9-5-1.6-6-.2-.3-.4-.4-.6-.4h0c0,0,0,.2.1.5.8,2,1.3,4,1.5,6.1,0,.3,0,.5-.2.6h-.1Z"/>
      <path class="st0" d="M73.6,39.5c0-.3-.3-.4-.5-.4-.2,0-.3,0-.3.1h0c.4,1.5,1,2.5,1.9,3.3h.2c0,.1,0,0,0,0,0,0,0-.2,0-.3-.6-.8-.9-1.7-1.2-2.8"/>
      <path class="st0" d="M81.8,52.8h0s0,0,0,0c-.1,0-.3,0-.5-.4-.1-.2-.1-.4-.2-.6l-.7-4.4c-.5-1.7-.9-2.6-1.6-3.4-1.2-1.2-2.1-2.8-3.2-5.4-.2-.6-.4-.8-.5-.8-.1,0-.2.2-.3.5,0,.3,0,.4,0,.7.7,2.4,1.6,4,2.8,5.1.8.7,1.3,1.6,1.5,2.7h0c.1.6.2,1.1.3,1.6h0c.5,2.4,1,4.8,1.9,6.9.3.6.4,1.3.5,2,0,1.6.2,2.6.3,3.5,0,.7.3,1,.4,1s.3-.2.4-.8c.3-2.2.3-5,0-8.3-.1-1.8-.3-3.2-.6-4.5-.2-.7-.4-1.3-.8-1.8-.3-.3-.4-.4-.5-.4,0,0,0,.2,0,.5.4,1.7.8,3.6,1,5.7,0,.3,0,.6-.2.7h-.1Z"/>
      <path class="st0" d="M79,42.1c-.4-.8-.7-1.4-.8-1.9l-.2-1.1c0-.3,0-.4-.2-.5-.2-.2-.5-.3-.7-.3-.1,0-.2,0-.2,0,0,0,0,.2,0,.3.4,1.9,1.1,3.3,2.1,4.2h0c0,.1.1.2.2.2h0s0,0,0,0c0,0,0,0,0-.3,0-.2-.1-.3-.2-.5"/>
      <path class="st0" d="M74.2,52.5h0c0,.4.2.6.3.9,0,.3.2.5.3.6.1.1.2.2.3.2.1,0,.2-.2.2-.3,0-.2,0-.4,0-.7-.2-4.4-.8-6.9-2-8.2-.2-.2-.4-.2-.4-.2,0,0,0,0,0,.2,0,.2,0,.2.1.4.4.7.6,1.4.7,2,0,.3,0,.5,0,.6h-.1c0,0,0,0,0,0h0c-.2,0-.4-.2-.5-.5-.6-1.4-1.3-2.3-2.3-2.8-1.5-.9-2.6-1.7-3.4-2.6-.3-.4-.6-.8-.9-1.4,0-.1,0-.2-.2-.2-.2,0-.4.3-.5.6,0,.2,0,.2,0,.4.8,1.5,1.7,2.4,2.8,3,1.9.9,3.2,2.2,3.9,3.8.7,1.7,1.2,3.1,1.5,4"/>
      <path class="st0" d="M68.3,40.2c-.2,0-.4,0-.4.2h0c.7,1.2,1.3,1.9,2.2,2.4h.2s0,0,0,0c0,0,0-.1-.1-.2-.7-.6-1.1-1.3-1.5-2.1-.1-.2-.4-.2-.4-.2"/>
      <path class="st0" d="M64.3,44.7h.1c.5.2.9.4,1.3.6.5.2.8.4,1.2.8.8.8,1.5,1.7,2.2,2.7v.2c.7.8,1.3,1.6,2,2.4,0,.1.2.2.4.2,0,0,.2,0,.2-.1,0,0,0-.2,0-.4-.2-.9-.9-2.5-2-4.7-.1-.2-.5-.4-.9-.4h0s0,0,0,0l.5.9v.2s0,0,0,0h0c0,.1-.1.2-.2.2h0s-.2,0-.2,0h0s0,0,0,0c-.4-.6-.8-1.1-1.2-1.5-.2-.2-.4-.3-.7-.5-.4-.2-1-.4-1.6-.6-.5-.3-.9-.5-1.2-.7-.4-.3-.8-.7-1.3-1.2,0,0-.2,0-.3,0s-.2,0-.2.1c0,.1,0,.4,0,.6.3.5.7.9,1.3,1.2.2.1.5.2.8.3"/>
      <path class="st0" d="M80.6,62.4c-1.2-.7-2-1.3-2.7-1.7-4.6-3.5-9.2-6.8-14.2-10.2-.1-.1-.2-.1-.3-.1s0,0,0,0c0,.2,0,.6.5.9l14.8,10.9h.2c.2.2.5.4.5.6,0,.1.1.4-.3.7-.5.3-.9.4-1.4.4-.8,0-1.7-.3-2.5-1-3.9-3.1-7.9-6.3-11.5-9.2,0,0-.2-.1-.3-.1h0c0,.1,0,.4,0,.6,0,.2.2.4.4.5,3.8,3.1,7.7,6.2,11.4,9.3.8.5,1.7.7,2.5.7,1.1,0,2.1-.4,3.1-1.3.2-.3.2-.7-.1-.9"/>
      <path class="st0" d="M75,61.6c.7.5,1.2.8,1.7,1.1.1,0,.2,0,.3,0s.2,0,.2,0c0,0,0-.2-.2-.4l-13.2-10.2h-.2c0,0,0,0,0,0,0,.1,0,.4.4.7l11.1,8.8Z"/>
      <path class="st0" d="M71.8,62.2l-8.6-7.2c-.1,0-.2-.1-.3-.1h0c0,.1,0,.3.2.5,2.5,2.3,5.2,4.7,8,7.1.4.4.8.7,1.2.9.2,0,.3.1.5.1.2,0,.3,0,.3-.2,0,0,0,0,0-.2l-1.2-1Z"/>
      <path class="st0" d="M65.2,43.4h.2s0,0,0,0c0,0,0,0,0-.2,0-.2-.2-.4-.4-.6-.2-.2-.4-.3-.7-.4-.2,0-.3,0-.5,0s-.2,0-.2,0v.2c.4.5.9.8,1.4,1"/>
      <path class="st0" d="M73.4,65.4c.5,0,.9-.1,1.3-.4.1,0,.2-.2.1-.3,0,0,0-.2-.2-.2h-.2c0,0-.1,0-.3,0h-.1c-.2,0-.4,0-.6,0-.7,0-1.3-.2-2-.7-2.1-1.8-3.8-3.3-5.2-4.6h-.1c-1.1-1.1-2.1-2.1-3.3-3,0,0-.2,0-.2,0h0c0,0,0,.2,0,.3,0,.1,0,.2.2.3l.5.5c2.6,2.4,4.9,4.6,7.3,6.8.7.7,1.2,1.1,1.7,1.2.4,0,.7.1,1.1.1"/>
      <path class="st0" d="M61.8,57c1.9,2.1,3.9,4.1,6.1,6.2.7.6,1.2.9,1.5.9h.1c0,0,0-.1-.1-.2-2-1.7-4.1-3.8-5.9-5.6-.1-.1-.2-.2-.4-.4h-.1c-.3-.5-.7-.9-1.1-1.2h-.2c0,0,0,.2,0,.2"/>
      <path class="st0" d="M70.3,65.7c.2,0,.4,0,.5,0,0,0,.1,0,.1-.2,0-.1-.2-.3-.4-.3-.9,0-1.7-.3-2.5-.9-2.3-2.1-4.5-4.3-6.7-6.5,0,0-.2-.1-.2-.1h0c0,.1,0,.4.1.6,0,.1.2.2.3.4h0c1.3,1.4,2.9,3,5,5.1.6.6,1.2,1.1,2.1,1.6.6.3,1.1.4,1.6.4"/>
      <path class="st0" d="M67.1,65c.1,0,.2,0,.2-.1,0-.1-.2-.4-.4-.4-1-.2-2.4-1.7-3.9-3.4l-.8-.9h-.2c0,0-.1,0-.1,0,0,0,0,.2,0,.3l3.1,3.5c.7.7,1.3,1,2.1.9h0Z"/>
      <path class="st0" d="M28.7,27.4h0c.2,0,.3-.1.4-.1.2,0,.3,0,.5.1,0,0,.2,0,.3,0,.1,0,.3,0,.4-.1.4-.4.7-.7,1.1-.9.2,0,.4,0,.6,0,.4,0,.8.1,1.2.4.2.2.2.3.1.5,0,.1-.2.2-.5.3-.2,0-.3,0-.5,0-.4,0-.8,0-1.2.2-1.1.3-1.6,1.1-1.6,2.3h0c0,.2,0,.7-.4.7-.2,0-.3,0-.5-.3-.5-.5-.8-1.1-.8-1.6,0-.5.3-1,.9-1.5M27.3,28.4c-.3.6-.3,1-.2,1.5.7,1.5,1.8,2.2,3.3,2.2h0c.4,0,.7-.1.7-.3,0-.1-.1-.3-.2-.4-.7-.6-1-1.4-.8-2.1.3-.8,1.1-1.3,2-1.3.2,0,.4,0,.6,0,.5,0,.9-.1,1.2-.4.6-.5,1.2-.8,1.7-.8.3,0,.5,0,.8.2h0c.3.3.2.6,0,.9-.2.2-.4.3-.7.4-.7.2-1.2.4-1.4.6,0,0,0,.2,0,.2,0,0,0,0,.4.1.2,0,.3,0,.5,0,.2,0,.3,0,.5,0,.8-.4,1.6-.9,2.6-1.6.3-.2.3-.4,0-.7-.8-.7-1.5-1-2.3-1-.3,0-.6,0-.9.1-.5.1-.9.2-1.2.2-.3,0-.6,0-.9-.1l-1.8-.5c-.3-.1-.6-.2-.8-.2-.3,0-.5,0-.7.3h-.1c0,.1,0,.2.2.3.2.2.2.3.2.4,0,.2-.3.3-.5.3-.1,0-.3,0-.4,0-.3,0-.4,0-.6.2-.5.5-.9,1-1.2,1.5"/>
      <path class="st0" d="M30.5,24.4c.3.2.7.4,1.3.5h.1c.1,0,.2,0,.4-.2.2-.2.3-.5.4-1.1.1-.5.4-1,.8-1.5l.2-.2c.3-.3.4-.4.5-.9.2-.8,0-1.2-.4-1.6v.2s0,0,0,0c-.2,1.4-1,2.2-1.7,2.6l-.4.3c-.5.3-.8.6-1,.8-.3.3-.4.5-.4.7,0,.1,0,.2.2.3"/>
      <path class="st0" d="M33.7,22.8c-.1,0-.2,0-.2.2.6,1.1.3,1.5-.6,1.9-.3,0-.1.4.2.4,0,0,.2,0,.3,0,1-.5,1.2-1.2.8-2-.2-.3-.4-.4-.5-.3"/>
      <path class="st0" d="M35.1,20.7c.2,0,.2-.3.3-.5,0-.3,0-.9.4-.9.2,0,.2.4.3.5,0,0,.2,0,.2-.2,0-.6-.2-1.1-.6-1.5h0c0,0,0,0-.1.1-.3.6-.4,1.5-.5,2.3,0,.1,0,.2,0,.2"/>
      <path class="st0" d="M35,22.2h0c2.5-1.2,3-2.6,3-3.4,0-.8-.2-1.5-.6-1.9h0s0,0,0,0c.3,1.3,0,2.3-.6,3.2-.5.4-1.2.9-1.8,1.4l-.3.2c0,0-.1.2,0,.3,0,.1.2.2.4.2"/>
      <path class="st0" d="M38,22.4c-.7.5-1.2.8-1.9,1.1-.5.2-.9.5-1,.6,0,.1,0,.2,0,.2h0s0,0,0,0c.9-.2,2-.8,3.5-1.9.7-.6.9-1.2.6-1.8,0-.1-.1-.1-.2-.1,0,0-.2,0-.2.1-.6.6-3,1.8-3.5,2.2-.2.1-.2.2-.2.2s0,.2.2.1c.4,0,2-1.1,2.4-1.3.5-.2.6-.2.7,0,0,.2-.2.4-.4.6"/>
      <path class="st0" d="M34.6,25.7c.3,0,.5,0,.8-.2.3-.2,2.7-1.4,3.4-1.4.1,0,.3,0,.4,0,.1,0,.4.6-.1.8l-1.5.6c0,0-.1.1-.1.1,0,0,.2.1.5.1h0c1.5-.3,2-.9,1.8-1.7,0-.2-.3-.4-.7-.5-.2,0-.6,0-1.2.2-.7.3-1.8.9-2.5,1.2-.3.1-.6.3-.8.4-.2,0-.6.5,0,.4"/>
      <path class="st0" d="M39.2,19.2c.4-.4.8-1.3,1.1-.8.2.4,0,1.2-.3,1.5-.2.3,0,.4.2.5h0s0,0,.1,0c.4-.5.6-1.5.4-2.2,0-.4-.2-.9-.6-1.1h-.2c0,0-.1,0-.2,0l-.2.8c-.1.4-.3.7-.5.8-.2.2-.3.4-.3.6,0,.2.1.1.4-.1"/>
      <path class="st0" d="M41.5,20.3c.7.2,1.3.5,2.1.9.1,0,.3.2.5.2.5.3,1.1.6,1.8.9h.2c0,0,.2,0,.2-.1h0c.5-.5.8-1.1.9-1.8h0c0,0,0,0,0,0h0c-.2,0-.4.1-.7.1-.3,0-.5,0-.8-.1-1.4-.8-2.6-1.1-3.7-1.2h-.2s0,0,0,0h0s0,0,0,0h0c0,.1,0,.2,0,.2,1.5.4,2.7.7,3.9,1.6h0c.1,0,.3.2.3.4h0c0,.2-.2.2-.3.2h-.2c0,0-.2-.2-.2-.2-1.3-.6-3.4-1.5-3.7-1.5h0c-.1,0-.2,0-.2.1,0,.1,0,.2.1.3"/>
      <path class="st0" d="M39.9,27.1c-.2,0-.5-.5-.6-.8h-.1c0,0-.1,0-.1,0,0,0,0,.2,0,.3.1.5.4.9.7,1.1.1,0,.2.1.4.1.3,0,.5-.2.6-.5,0-.5-.2-1-.7-1.4h0c.1.2.3.9.3,1.1,0,.2-.2.2-.3.2"/>
      <path class="st0" d="M41.9,26c-.3,0-.8-.8-.9-1.1h-.2c0,0,0,0,0,0,0,0,0,.2,0,.3.1.5.3,1.1.8,1.5.1.1.3.2.5.2.4,0,.8-.3,1.2-.8.2-.3,0-.7,0-.9-.6-.8-1.7-1.3-2.6-1.7h0s0,0,0,0h0c.3.3.6.5.9.7h0c.4.3.8.6,1.1.9.1.2.2.4,0,.6,0,.1-.3.4-.6.4"/>
      <path class="st0" d="M40.3,22.4h0c.1.5,3.4,2,3.7,2.2.2.1.4.1.5.1.2,0,.3,0,.5-.2.3-.3.5-.9.2-1.3-.8-1-2.2-1.8-4.3-2.4h0s0,0,0,0h0s0,0,0,0h0s0,.1,0,.1c0,0,0,0,.2.1.8.3,2.1.9,3,1.7h0c.2.2.4.4.3.7,0,0-.1.3-.3.4h-.2c-.3,0-.7-.2-1.1-.4h-.2c0-.1,0-.1,0-.1-.9-.4-2-1-2.3-1h0Z"/>
      <path class="st0" d="M71.6,20c0,0,0,.2.2.4,5.2,3.8,9.3,9.2,12.7,16.5,0,.3,0,.5,0,.6,0,0-.2.1-.3.1-.2,0-.6-.1-1-.4-1.1-.7-2.1-1.7-3-3-3.7-5.9-8.1-9.6-11.9-12.6-.1-.1-.2-.1-.3-.1h-.1c0,.2,0,.6.3.8,3.6,2.5,7.6,7,12.1,13.8,1.6,2.1,3.6,3.2,6.2,3.1.2,0,.5,0,.8,0,.4-.1.5-.2.5-.2,0,0,0-.1-.2-.3-1.2-.9-2-2-2.4-3.3-3.7-7.9-9.1-12.7-12.9-15.4-.1,0-.3-.1-.4-.1-.1,0-.2,0-.2,0"/>
      <path class="st0" d="M82.3,36c.2.2.4.3.6.3s.1,0,.2,0c0-.2,0-.5-.2-.9-3.1-5.6-7.3-10.5-12.6-14.3-.2,0-.4-.1-.6-.1s-.3,0-.3.1c0,0,0,.2.4.4,3.2,2.6,7.3,6.3,12.5,14.7"/>
      <path class="st0" d="M77.2,36c-.3,0-.6-.2-.9-.6-2.5-3.6-5.7-6.6-8.5-9.2h-.1c0,0,0,0,0,0-.1.3-.1.8,0,1.1,1.9,1.5,4,3.9,5.8,6.1h0c1.3,1.6,2.4,2.9,3.2,3.5.4.2.8.4,1.2.3.4,0,.7-.2.9-.4.2-.2.2-.5.2-.9-2.3-4.4-5.8-8.3-10.7-12-.1-.1-.2-.1-.2-.1h0c0,.3.1.9.4,1.1,2.9,2.6,6,5.6,9.1,10.1.2.3.2.6.1.8,0,.1-.2.2-.3.2"/>
      <path class="st0" d="M67,28.4h0c0,.2,0,.5,0,.7,2.1,1.9,4.2,3.9,6.1,6.5.2.3.3.7.1,1-.1.3-.5.5-.9.5-.3,0-.5,0-.7-.3-1.4-1.2-2.7-2.6-4-3.9-.6-.6-1.1-1.2-1.7-1.7h-.1c0,0-.2,0-.2,0,0,.2-.1.5,0,.7l4.1,4.4c.6.7,1.3,1.2,2,1.5.3,0,.6.1.9,0,.6,0,1-.2,1.3-.5.3-.3.3-.9,0-1.5-1.7-3-4.1-5.2-7.1-7.5h0Z"/>
      <path class="st0" d="M65.9,29.5c0,.1-.1.4,0,.5,1.8,2,3.8,4,5.8,5.7h.1c0,0,.1,0,.1,0,0,0,0-.2,0-.3-1.7-2.1-3.7-4.1-5.9-6h0Z"/>
      <path class="st0" d="M65.3,32.7c0,0-.2,0-.3,0-.1,0-.2,0-.3.2,0,.1,0,.3.1.5,1.4,1.1,2.6,2.4,3.5,3.8.2.3.2.6,0,.9-.1.3-.5.4-.8.4-.3,0-.5,0-.8-.2-1.2-.7-2.3-1.8-3.3-2.9l-.2-.2s-.1,0-.2.2c0,.2-.1.4,0,.5,1.8,2,3.1,3.2,3.7,3.4.5.1,1,.2,1.4.2.6,0,.9-.2,1.2-.4.2-.3.3-.9,0-1.7-.4-.8-1.8-2.5-4.1-4.5"/>
      <path class="st0" d="M63.8,34.3l3.4,3.2h.2c0,0,.2,0,.2,0h0c-1.2-1.7-2.4-2.9-3.9-3.9,0,.2,0,.5.2.7"/>
      <path class="st0" d="M63.5,41.3c.7,0,1.3-.3,1.7-.8.2-.3.3-.7.1-1.1-.7-1.1-1.6-2.1-2.8-3.1h-.1c0,0-.1,0-.2.1,0,0,0,.2,0,.3,1.3,1.3,1.9,2,2.1,2.4.1.3,0,.7,0,.9-.2.3-.6.5-.9.5-.2,0-.4,0-.6-.2-.6-.5-1.3-1.1-2.1-1.9h-.1c0,0-.1,0-.2,0,0,.1,0,.3,0,.4.8,1.1,1.7,1.8,2.6,2.3.2,0,.4.1.7.1"/>
      <path class="st0" d="M62.5,39.2c.2.1.3.1.4.1.2,0,.3,0,.3-.2,0-.1,0-.3-.1-.5-.5-.6-1.1-1.2-1.7-1.6,0,0-.2,0-.2,0-.2,0-.3.2-.3.3s.1.3.3.4c.6.6,1,1,1.4,1.5"/>
      <path class="st0" d="M61.1,41.2l-1.6-1.8h-.2c0,0-.2,0-.2,0,0,0,0,.3,0,.4l1,1.2c.2.2.3.3.2.5,0,.4-.4.7-.7,1h0c-.2.2-.4.4-.5.6,0,.1,0,.3,0,.4,0,0,.1.1.2.1h.2c0,0,1.3-1.2,1.3-1.2.4-.3.5-.7.2-1.2"/>
      <path class="st0" d="M59,41.8h.2c0,0,.2,0,.2,0,0,0,0-.2,0-.2l-.8-1.4h-.2c-.1,0-.2,0-.3,0v.2s.9,1.4.9,1.4Z"/>
      <path class="st0" d="M59.3,18.3c0,.1.3.4.7.7,2.2.9,4.4,1.8,6,3.1.2.2.3.5.2.7,0,.2-.3.3-.5.3-.2,0-.3,0-.6-.2-1.8-1.4-3.5-2.1-4.9-2.6h0c0,.2,0,.5.3.6,1.6.7,3.3,1.7,5.2,3.1.3.2.5.3.7.3.2,0,.4-.1.6-.4.4-1,0-2-1.4-2.9-1.9-1-4.3-2.2-6.2-2.7h0Z"/>
      <path class="st0" d="M60.6,21.9h0c0,.2,0,.5.2.6.4.3,1,.6,1.7,1,1.3.8,2.7,1.6,3,2.1.2.4.3.9,0,1.2-.1.3-.4.4-.6.4-.2,0-.3,0-.5-.1l-3-1.7h0s0,0,0,0c0,.2.1.6.5,1,.8.6,1.5,1.1,2.2,1.5h.2c.3.3.8.6,1.2.6.2,0,.3,0,.5-.2.7-.7.9-2.1.5-2.7-1.4-1.3-3.1-2.5-5.6-3.7"/>
      <path class="st0" d="M64.1,26.2h.2c.2,0,.4,0,.4-.1-.4-.6-3.7-2.3-3.7-2.3,0,.1,0,.3.1.4.7.7,1.7,1.3,3,2"/>
      <path class="st0" d="M61.2,30.8l1.8,1.3c.2.1.4.2.6.2.2,0,.3,0,.5-.2.3-.3.6-.6.8-1.2.2-.8,0-1.3-.6-1.7l-2.5-1.8h-.1s0,0,0,0c0,.1,0,.4,0,.6.7.6,1.5,1.2,1.9,1.7.3.3.3.8.2,1.1-.1.2-.3.4-.5.4-.2,0-.3,0-.5-.2l-1.5-.9c0,0-.1,0-.2.2,0,.2,0,.4,0,.6"/>
      <path class="st0" d="M62.7,30.2c.1,0,.2,0,.3-.2,0-.1,0-.3,0-.3l-1.2-.7h-.2c0,.1,0,.4,0,.4l1,.9h.1Z"/>
      <path class="st0" d="M58.9,34.1c0,.1,0,.3,0,.5l1.8,1.4c.1,0,.2.1.4.1.2,0,.5-.1.7-.4l.2-.4c.5-.8.8-1.3.3-2.1-.5-.6-1-1.1-1.8-1.5,0,0-.1,0-.2.1,0,.2,0,.5,0,.6l.9,1c.2.3.2.7,0,1-.2.3-.5.5-.7.5-.2,0-.3,0-.4-.1l-1-.7h-.2c0,0-.2,0-.2.2"/>
      <path class="st0" d="M59.7,33c0,.1,0,.2,0,.3l.6.5h.2c.1,0,.2,0,.2,0,0-.1,0-.3,0-.4l-.6-.5h-.1c-.1,0-.2,0-.3.1"/>
      <path class="st0" d="M56.3,36.6c0,0-.1,0-.2.1,0,.1,0,.3,0,.5l1.4,1.6c.1.1.3.2.5.2.5,0,1.2-.5,1.6-1.2.3-.5.3-1,.1-1.4-.6-.8-1-1.4-1.4-1.7h-.1c0,0-.1,0-.2,0,0,.2-.1.4,0,.6l.6.8c.2.3.1.8,0,1.1-.2.3-.4.5-.7.5-.2,0-.4,0-.6-.2l-.8-.9h-.2Z"/>
      <path class="st0" d="M57.9,37.1c.1,0,.2,0,.2-.2,0,0,0-.2,0-.3l-.7-.7h-.1c0,0-.2,0-.2,0,0,0,0,.2,0,.3l.8.7h0Z"/>
      <path class="st0" d="M60.4,55.5c0,.2,0,.5.3.5.2,0,.4-.1.6-.3,1.5-2,1-8.2-.9-11.3h-.1c0,0-.2,0-.2,0,0,.1-.1.4,0,.5,1.5,3.4,2,6,1.6,8.2,0,.2-.2.6-.5.6-.2,0-.4-.1-.5-.8-.4-2.6-1.1-4.5-2.2-6.3-.1.3-.1.9,0,1.2.9,1.6,1.6,4.1,1.9,7.5"/>
      <path class="st0" d="M59.1,45h0c-.1.2-.2.6,0,.9.9,1.4,1.5,3.1,1.8,5.1h0c0,0,.1,0,.1,0-.2-2.3-.8-4.2-1.9-5.9h0Z"/>
      <path class="st0" d="M49.8,16.6c.3.1.6.2.8.4.5.2.9.5,1.4.7,1.7,1,2.8,2.2,3.5,5.5v.4c.8,3.3,1.2,5.2-2,7.9-.2.3-.2.6-.1.8,0,.2.2.3.4.3h0s0,0,0,0c1-.4,1.8-1.2,2.6-2.5,1.9-2.6-.2-8.4-.9-10.4-.6-1.3-1.5-2.2-2.9-2.8l-3.6-1.7c-.4-.3-.6-.7-.6-1.2,0-.4.3-.5.8-.8.4-.2.9-.3,1.6-.3.4,0,.9,0,1.3,0,5.9.4,11.3,2,16.4,5.5h0c.2.3.2.5.1.7-.1.3-.5.4-1.2.4-.4,0-.8-.1-1-.4l-.5-.8c0-.1,0-.2-.1-.2s-.1,0-.2.2l-.2,1c0,.2,0,.2.2.2.8.3,1.6.4,2.3.4,1.3,0,2.6-.5,3.7-1.4.2-.2.2-.4.2-.5,0-.1-.3-.2-.6-.2-.1,0-.3,0-.4,0-1.2,0-2.3-.3-3.4-1-5.5-3.1-11.3-4.6-17.5-4.5-.6,0-1,0-1.5.3-.6.3-.9.8-1,1.3,0,.5,0,1.1.5,1.5.5.6,1.1.8,1.8,1.1"/>
      <path class="st0" d="M22.5,28.9c.3.8.7,1.2,1.2,1.3h2.4c.2,0,.4-.3.4-.5,0-.2,0-.3-.3-.4h-1.9c-.7,0-1.1-1.1-1.3-2.1-.6-2.1.5-3.6,1.5-4.9,0-.1.1-.2.2-.2h-.1s0,0,0,0c-.1,0-.2-.2-.2-.3,0-.1,0-.3.2-.4l.3-.3h0c0-.1-.2-.2-.2-.2h0c-.8.4-1.7,1.2-2.8,2.6-.2.4-.4.8-.2,1.5l.9,3.9Z"/>
      <path class="st0" d="M27.4,27h-.1c-.4.1-.8.2-1.2.2-.6,0-1.1-.2-1.5-.6h-.1s-.1,0-.1,0c0,0,0,.2,0,.4.4.5.9.8,1.5.7.4,0,.9-.2,1.4-.6.1,0,.1-.2.1-.2"/>
      <path class="st0" d="M24,24.9c-.1.3-.1.6,0,.7,0,.1.2.3.4.3.1,0,.3,0,.4,0,1,0,2.1-.5,3.4-1.6v-.2c.1,0,0,0,0,0-1.2.7-2.2,1-3,1-.2,0-.4-.2-.4-.3,0-.2,0-.5.3-.9.5-.4.8-.8,1.1-1.2.1,0,.1-.2,0-.4,0-.2,0-.3,0-.4,0-.1,0-.2,0-.3,0-.2,0-.4.3-.6.2-.2.4-.3.6-.5.2-.1.2-.3.2-.5,0-.2-.3-.4-.6-.4-.7.3-.9.6-.9,1.2.1.7,0,1-.3,1.6-.5.6-1.1,1.5-1.4,2.3"/>
      <path class="st0" d="M26.8,21.6c0,.1,0,.3,0,.4.3.3.4.8.2,1.4h0c.3-.2.4-.5.5-.9,0-.3,0-.6-.3-1,0-.1-.2-.2-.3-.2,0,0-.2.1-.2.2"/>
      <path class="st0" d="M45,79.6c.9.6,1.4,1.9,1.9,3.4.6,1.8,1.3,3.6,2.6,3.9.2,0,.4,0,.5,0h0s0-.1-.2-.2c-.8-.3-1.3-1.7-1.8-3.2-.6-1.9-1.3-4-2.7-4.4-.2,0-.3,0-.5,0-.2,0-.3,0-.3,0,0,0,0,.1.3.3"/>
      <path class="st0" d="M47.4,79.3c-.2,0-.3,0-.4,0,0,0,0,0,.2.2.9.5,1.5,2,2.1,3.6.7,1.9,1.5,3.9,2.9,3.9h0c.1,0,.2,0,.3,0h0c-.8-.4-1.3-1.8-1.9-3.3-.7-1.9-1.5-4.1-3.1-4.4"/>
      <path class="st0" d="M52,83.5h0c.6,1.6,1.3,3.5,2.8,3.6h.2s0,0,0,0c-1.1-.8-1.5-2-1.8-3.1-.4-1.2-.7-2.2-1.9-2.5h-.2c-.1,0-.1,0-.1,0h0c.4.4.7,1.1,1,2.1"/>
      <path class="st0" d="M47.5,78.3h.2s.2,0,.2,0c.4,0,.5-.4.5-.4,0-.2-.1-.4-.3-.4-.4,0-.7,0-1,0h0c-.6,0-1.3,0-2.1-.2,0,0-.2,0-.3,0-.1,0-.2,0-.4,0s-.3,0-.4.1c0,.1,0,.3,0,.6.4.5,1.2.7,2.5.7.3,0,.7,0,.9,0"/>
      <path class="st0" d="M60.5,78.1c-.1-.3-.5-1.1-1.6-1-1.3,0-1.7.8-1.9,1.7,0,.2,0,.3,0,.3,0,0,.2.2.4.1.2,0,.3-.1.4-.3.1-.8.6-.9.8-.9.4,0,.7.2.8.6,0,.3,0,.6-.3.8-.5.4-.7.8-.4,1.3.5,1,.7,1.9,0,3.2-.2.7,0,1.1.6,1.5h0c.2.2.2.5,0,.7-.1.3-.4.4-.7.4-.4,0-.7-.2-.8-.7,0-.3-.3-.5-.5-.5s-.3,0-.4.2c0,0-.1.2,0,.4.5,1.1,1.1,1.6,1.9,1.5.3,0,.7-.1,1.1-.3.3-.3.5-.7.6-1.1,0-.4-.1-.8-.4-1.1-.4-.2-.5-.7-.2-1.5.4-.8.4-1.7,0-2.6-.2-.6-.2-1.1.2-1.5.3-.3.4-.9.2-1.5"/>
      <path class="st0" d="M43.7,85.4c0-.2-.3-.4-.5-.4,0,0-.1,0-.2,0l-.4.8c-.1.2-.4.4-.6.4-.2,0-.5-.1-.6-.3-.1-.2-.2-.4-.1-.6,0-.3.3-.6.6-.8.2-.3.2-.7,0-1.1-.4-.8-.4-1.6-.2-2.5l.3-1.1c.1-.4,0-.7-.4-1-.4-.2-.5-.6-.4-.9,0-.3.4-.5.7-.5.1,0,.2,0,.3,0,.3.1.4.3.5.6,0,0,0,.2.1.3.2.2.4.3.5.3.1,0,.2,0,.3-.1,0-.1,0-.4,0-.6-.2-.9-1.1-1.4-1.9-1.4-.5,0-.8.2-1.1.4-.3.3-.4.6-.4,1.1,0,.6.1.7.4,1h0c.3.6.3,1.1,0,1.6-.3,1.1-.3,1.7,0,2.2.3.7.3,1.4,0,1.8v.3c-.3.4-.4.5-.3,1.1.2.7.8,1.2,1.6,1.2.4,0,.8-.1,1.1-.3.5-.4.7-.9.8-1.5"/>
      <path class="st0" d="M56.8,87.5c-.2,0-.4,0-.6.2-.3.2-.6.3-1,.3h-.2c-3.3,0-6.6,0-10.1-.2-.3,0-.6,0-1-.3-.3-.1-.5-.2-.7-.2-.2,0-.3,0-.3.1,0,.1,0,.3,0,.6.7,1,6.3.9,8.3.8h2.1c.7,0,1.4,0,1.8,0,.7,0,1.4-.2,1.9-.6.2-.1.3-.3.2-.5,0-.2-.2-.4-.5-.4"/>
      <path class="st0" d="M44.9,18c3.2.7,5.5,1.8,6.1,4.4,0,1.1.3,1.8.6,2h0c0,0,0-.2,0-.2,0-2.7-.8-4.5-2.5-5.3-.9-.6-2.2-1.1-3.9-1.6-.7,0-1.2-.7-1.1-1.4,0-.8.7-1.7,1.6-1.7h.2c.3,0,.4-.1.4-.2,0,0,0-.1-.2-.1h0c-.1,0-.2,0-.3,0-1.1,0-2.1.3-2.2,2-.2,1.3.3,1.9,1.4,2.1"/>
      <path class="st0" d="M45.3,15.3h0c.6,0,.8.2.8.4,0,.2-.2.5-.8.5h-.1c0,0,0,.1.2.1.2,0,.4,0,.6,0,.5,0,.9-.2,1-.4,0-.1,0-.3,0-.4-.1-.2-.5-.4-1-.4-.2,0-.4,0-.6.1"/>
      <path class="st0" d="M49.7,18.4c0,0,.3.2.5.1.3,0,.4,0,.4-.1h0c-.6-.9-2.6-1.5-3.5-1-.3.2,2.2.1,2.6,1"/>
      <path class="st0" d="M50.3,23.5c-.5-1-1.3-1.8-2.2-2.3-.2-.1-.3,0-.2.1,1.3,1.2,2.4,2.3,2.9,4.6,0,.3,0,.6-.2,1h-.1c-.1.2-.3.4-.4.5-.1.1-.1.3,0,.4,0,.2.3.3.5.3h0s0,0,0,0l1.5-1.2c.1,0,.2-.3.2-.5s0-.3,0-.3c-.7-.5-1.2-1.4-1.8-2.6"/>
      <path class="st0" d="M45.9,24.6h0c0,0,0,.1,0,.2.2,1.2.4,2.7.4,4.4,0,.1,0,.2.1.3.1.1.3.2.6.2.6-.1,1.1-.4,1.6-.7.5-.3.7-.7.6-1.1-.2-1.8-.8-3.4-1.9-4.9,0-.1-.1-.1-.2-.1h0c0,0,0,.2,0,.3,1.3,2.4,1.6,3.9,1.1,4.9-.3.3-.6.5-.8.5-.2,0-.5-.1-.5-.6-.2-1.7-.4-2.6-.7-3.2h-.1Z"/>
      <path class="st0" d="M47.7,27.2c0-.1,0-.3,0-.4-.3-1.4-1.2-3.5-1.3-3.3h0c0,0,0,.1,0,.1.4,1.1.7,2.2,1,3.8,0,0,.3.3.4-.1"/>
      <path class="st0" d="M49.6,26.3c.2.4.4-.1.4-.3-.4-1.5-1.9-3.8-2.2-3.6.8,1.1,1.3,2.4,1.8,3.9"/>
      <path class="st0" d="M42.9,29.2l.2-1.8c0-.1,0-.2,0-.3,0,0-.1,0-.2.2-.3.6-1,2.5-.6,3.2,0,.1.2.2.4.2.2,0,.4,0,.5,0,.7,0,1.2-.2,1.6-.6.8-.9.7-2.6.6-4.1v-.3c0-.3-.2-.4-.3-.4h-.2c0,.2-.1.4-.1.5.1,1.1,0,2.1-.4,3.3-.3.4-.6.7-.9.7-.3,0-.5-.2-.5-.7"/>
      <path class="st0" d="M44,28.5c0-.6,0-1.3,0-1.9,0-.1,0-.1-.1-.1,0,0-.2,0-.2.2,0,.7,0,1.2-.2,1.9,0,.1,0,.2,0,.3h.1c.2,0,.3,0,.3-.3"/>
      <path class="st0" d="M43.1,23.1c0,0,.2,0,.2,0h0c0-.2,0-.4-.2-.5-.5-.2-1.7-.8-2.3-.9,0,0-.1,0-.1,0,0,0,0,.2.1.2.6.2,1.6.8,2.2,1.1"/>
      <path class="st0" d="M38.9,30.8c.2.2.6.3,1,.3.3,0,1.2,0,1.5-1.1l.5-2.1c0-.1,0-.2,0-.3h-.2c-.2,0-.5.1-.6.6,0,.7-.3,1.2-.7,1.9,0,.2-.3.2-.4.2-.1,0-.3,0-.3-.2,0-.1,0-.3,0-.4.2-.3.4-.6.5-1,0,0,0-.2,0-.2h0c0,0-.2,0-.2,0-.3.5-.6,1-1,1.5-.2.3-.2.5,0,.7"/>
      <path class="st0" d="M33.2,28.6c-.2,0-.3-.1-.5-.1-.2,0-.3,0-.3.1,0,0,0,.2,0,.2,2.2,1.6,2.7,3.5,1.7,5.8,0,.1,0,.2,0,.3h0c0,0,.2,0,.4-.2,1.4-2.2,1-4.2-1.4-6.1"/>
      <path class="st0" d="M14.1,38.4c0,.2,0,.3.2.4h.1c.2,0,.3,0,.4-.2,0-.1,0-.3,0-.5-.4-.7-.1-1.1.3-1.5h0c.1-.1.2-.3.3-.4.1-.2.2-.2.1-.4,0-.2-.2-.3-.4-.3-.1,0-.3,0-.4.1-.2.2-.5.4-.8.6h-.1c0,0-.1.2-.1.2h-.2c0,.2-.3.3,0,.7.2.3.3.6.5,1.3"/>
      <path class="st0" d="M15.7,39.1c.1.2.3.3.5.3,0,0,.2,0,.2-.1.1-.2.1-.4,0-.7-.4-1,0-1.3.6-1.9h0c0-.2,0-.4,0-.5,0-.1-.2-.2-.3-.2,0,0-.2,0-.3,0-1.1.7-1.3,1.4-.8,2.9"/>
      <path class="st0" d="M17.1,38.2l.2,1.3c0,.2.2.3.4.3.1,0,.2,0,.3-.1,0-.1.1-.3,0-.5-.3-.6-.2-1.2.1-1.6l.5-.5c0-.1.1-.3,0-.5,0-.1-.2-.2-.4-.2h-.2s-.6.6-.6.6c-.4.2-.5.6-.5,1"/>
      <path class="st0" d="M31.4,29.5c0,0-.2,0-.3,0-.2,0-.4.1-.4.3-.1.2,0,.6.2.8.9.7,1.5,1.4,1.7,2.1.2.7,0,1.5-.6,2.3l-4.2,3.9c-2.8,2.7-3.2,5.1-1.2,7.4h.1s0,0-.1-.3c-1.5-3.1.5-4.9,3.1-7.1h0c1.2-1.1,2.6-2.3,3.8-3.7,1-2,.3-3.8-2.1-5.7"/>
      <path class="st0" d="M33.1,45.5c-.7,0-1.4,0-1.9.2h-.2c-.5,0-.9.1-1.2.2-1.1,0-2-.4-2.4-2.5,0-.3,0-.4-.2-.5,0,0-.2.2-.2.5,0,2.7,1.9,2.8,4.5,2.9.8,0,1.6,0,2.5.1,1.3.3,2.4,1.3,2.6,2.4.2,1.1-.2,2.2-1.3,3.1-.2.2-.3.4-.3.6,0,.2.3.3.6.3.2,0,.3,0,.4-.1,1.2-.9,1.8-2.4,1.5-3.9-.4-1.6-1.7-2.8-3.6-3.2-.3,0-.5,0-.8,0"/>
      <path class="st0" d="M28.3,35.2c-4.1,2.1-5.4,6-4.9,8.9.5,2.8,2.5,4.6,5.3,4.9h4.7c.3,0,.6.2.7.4,0,.2.1.5-.2,1-.1.2-.1.3-.1.4h.1c.1,0,.3,0,.4-.1.6-.5.8-1.2.6-1.8-.2-.6-.7-.9-1.4-.9-.8,0-1.5,0-2.2,0-2.2,0-3.3-.1-3.9-.5-1.9-1-3-2.6-3.1-4.6,0-2.7,1.6-5.4,4.5-7.1,1.3-.8,2.9-1.9,3.1-2.7,0-.3.1-.5,0-.6h0c0,0-.2,0-.3,0-.6.9-1.8,1.6-3.4,2.5"/>
      <path class="st0" d="M20.2,44.5c-.3,1.1-.1,1.8.5,2.4.8.7,1.6,1.3,2.5,1.8,1.1.7,1.3,1.8,1.4,2.9h0c0,.3,0,.6.2.8.2,1,.8,1.5,1.9,1.7h.1c.2,0,.4-.1.4-.2,0-.1-.1-.2-.2-.3-1-.4-1.4-.8-1.5-1.4-.3-1.5-.8-3.2-1.5-3.7-.9-.6-1.8-1.2-2.5-1.8-.3-.1-.4-.3-.5-.6-.3-.8,0-2.1,1-3.9.3-2-.5-3.5-2.4-4.6,0,0-.2,0-.3,0-.1,0-.2,0-.2,0,0,0,0,.2.2.4,1.7,1.3,2.8,2.6.8,6.6"/>
      <path class="st0" d="M20.9,49.7c1.2.7,1.7,1.7,1.7,3.1.2,3.1,1.8,4.6,4.6,4.6h0c.6,0,1-.2,1.2-.3.1,0,.1,0,.1-.1,0-.1,0-.3-.3-.6-.2-.2-.4-.3-.7-.3s-.2,0-.4,0h0c-.3.1-.5.2-.7.2s-.4,0-.6,0c-1.5-.4-2.3-1.4-2.4-3.1,0-1.7-.4-2.9-1.4-3.5-1.4-.8-2.3-1.6-2.8-2.5-.8-1.7-.4-2.6.2-3.6,0-.2.2-.4.3-.7.2-.5.3-1,.3-1.5,0-1.5-.4-2.4-1.2-2.6h-.2c0,0-.2,0-.3.1,0,0,0,.3.3.6,1,.8,1,2.2,0,4.6-.7,1.5-.7,2.6-.2,3.4.6.8,1.4,1.7,2.6,2.5"/>
      <path class="st0" d="M30,56.9c0,0,.2,0,.3,0,0,0,0,0,0-.2-.3-.1-.6-.2-.8-.2,0,0,0,0,0,0,.1.3.3.4.6.4"/>
      <path class="st0" d="M31.7,56.6s0-.1,0-.2c-.3-.2-.6-.3-1-.3h-.1c-.1,0-.1,0-.1.1,0,0,0,0,0,.2.2.2.6.3,1,.3h.1s.1,0,.1,0Z"/>
      <path class="st0" d="M31.9,55.4h-.3c0,0,0,.2,0,.2.2.4.5.6,1,.6.1,0,.3,0,.4,0h0c0,0,0-.1,0-.2-.3-.3-.7-.5-1.2-.5"/>
      <path class="st0" d="M32.5,52.7c.2,0,.4-.1.6-.2.1-.1.3-.3.5-.4.1-.1.1-.2,0-.3-.4-.4-.5-.8-.3-1.3,0-.1,0-.3,0-.3,0,0,0,0-.1,0h0c-.1,0-.3.1-.4.3h0c-.7.5-.9,1.1-.8,1.8,0,.4.3.5.6.5h0Z"/>
      <path class="st0" d="M29.1,55.9c0,0,.1,0,.2,0h0c-.4-.3-.6-.8-.6-1.5,0-.6-.2-1.2-.6-1.8,0,0,0,0-.1.2-.1.3,0,.6,0,.7.2.3.3.6.2,1.1,0,.8.2,1.3.9,1.4"/>
      <path class="st0" d="M30.2,55.5h.2c.2-.1.3-.2.3-.2,0,0,0,0-.1-.1-.6-.4-.8-.9-.7-1.6.2-.4,0-.8-.2-1.2-.3-.4-.3-.8-.3-1.1h0c0,0-.2,0-.3,0-.2.1-.3.3-.4.5,0,.3,0,.7.3,1.3.3.3.3.7.3,1,0,.5.1,1,.4,1.3.2.2.3.3.5.3"/>
      <path class="st0" d="M31.9,50.3c.1-.1.1-.2.1-.2h-.1c-.1,0-.3-.1-.5-.1-.6,0-1,.2-1.3.6-.2.3-.2.8,0,1.2.3.4.3.7.1,1.1-.1.3-.1.7,0,1,.3.5.7.8,1.1.8.2,0,.3,0,.3,0h0c-.2-.3-.3-.6,0-1,0,0,.1-.2.2-.2,0,0,0-.2-.2-.4-.8-1-.7-1.9.2-2.8"/>
      <path class="st0" d="M36.6,55.5c.3-.4.7-.6,1.2-.8.5-.2.9-.6,1.4-1,.5-1.2.3-2.1-.6-2.9,0,0-.2,0-.3,0-.1,0-.2,0-.3.2,0,.2-.1.4,0,.5l.5.8c.3.6.1,1-.5,1.4-1,.5-1.8,1-2.2,1.5-.2.2-.4.4-.6.4-.1,0-.3,0-.5-.2l-.8-.7c-.1-.2-.2-.4-.1-.5,0-.1.2-.2.3-.2s.2,0,.2,0l.6.3h.2c0,0,0,0,.1-.1,0-.5-.2-.9-.8-1.2-.2,0-.3,0-.4,0-.6,0-1.1.3-1.6,1-.4.6.5,1.2,1.4,1.9.2.2.6.4.8.6.2.1.4.2.5.2s.3,0,.4-.1c.4-.2.8-.5,1-.8"/>
      <path class="st0" d="M38.9,56.6s.1,0,.2,0c.5,0,1.2.3,2,.8.2,0,.3,0,.4,0,0,0,0-.2-.2-.3-1.2-.7-2.2-1-3.1-1-.3,0-.6,0-.9.1-.3.2-.5.4-.5.6,0,.2.1.3.2.4l2,.5,1.4.6h.1c.1,0,.3,0,.3-.1v-.2c-.6-.3-1.1-.6-1.8-.8-.4-.1-.4-.3-.4-.3,0,0,0-.2.3-.2"/>
      <path class="st0" d="M40.1,53.9c-.3.2-.5.4-.7.7-.1.3-.1.5,0,.7.3.7,1.8,1.1,2.4,1.2h0s0,0,0,0h0c.2,0,.3,0,.4-.2v-.2c0,0,0,0,0,0-.8-.3-1.4-.7-1.8-1.1-.1-.3-.2-.5,0-.7,0-.2.3-.3.6-.3.3,0,.6,0,.9.2h0s.2,0,.2,0c0,0,0-.2,0-.3-.2-.2-.4-.3-.7-.4-.4,0-.8,0-1.2.3"/>
      <path class="st0" d="M41.3,54.6h0c-.2,0-.2,0-.2.1,0,0,0,.2,0,.3.5.3,1.2.6,1.9.8h0s0,0,0,0c0,0,.2,0,.2-.1,0-.1,0-.2-.2-.3-.5-.3-1-.6-1.8-.8"/>
      <path class="st0" d="M41.7,59.7h0c.3,0,.5,0,.8,0,.8-.4,1.7-.5,2.7-.6.2,0,.3-.1.3-.2,0-.1,0-.3-.3-.3-.1,0-.3,0-.4,0-.6,0-1.4.2-2.5.5h-.2c-.2,0-.2,0-.3-.1,0-.2,0-.4.2-.6.6-.7,1.5-1.3,2.7-1.6.2,0,.3-.2.2-.4,0,0,0-.2-.4-.2-1.5.3-2.6,1-3.5,2.3-.2.4-.3.8-.2,1,.1.2.4.4.7.4"/>
      <path class="st0" d="M43.5,57.7c0,.1-.1.2-.1.3,0,0,.2.1.5.1.5,0,1.1-.2,1.2-.4v-.2c0,0,0,0,0,0,0,0-.2-.1-.6-.1-.5,0-1,.2-1.1.3"/>
      <path class="st0" d="M40.7,52c-.1-.2-.2-.3-.1-.5,0-.2.3-.2.4-.2h.1s0-.1,0-.1c-.4-.5-.8-.7-1.4-.8-.1,0-.2,0-.2.1,0,1.1.5,1.8,1.8,2.3h.2s0,0,0,0h0c0,0-.9-.9-.9-.9Z"/>
      <path class="st0" d="M39.1,47h0c0,1.1.2,2.1.8,2.7.3.3.7.6,1,.6,0,0,.2,0,.2,0,0-.1,0-.3,0-.6-.1-.2-.2-.4-.5-.5,0,.1-.2.2-.2.2-.3,0-.6-.5-.6-1,0-.7-.2-1-.6-1.2"/>
      <path class="st0" d="M42.2,50.7c-.2-.2-.3-.3-.5-.3h0s0,0,0,0h0c.3,2,.8,4,2.3,5,.1,0,.3,0,.4,0,.4,0,.6-.4.6-.6,0-.7,0-1.3-.3-1.8,0-.1-.2-.2-.3-.2,0,0-.2,0-.2.1v.9c0,.1,0,.2,0,.3h-.1c0,0,0,0,0,0-.1,0-.2,0-.3-.2-.7-.7-1.1-1.7-1.2-3,0-.1,0-.3-.2-.5"/>
      <path class="st0" d="M47.1,59.7c.2,0,.4.1.6.1.2,0,.4,0,.5-.2.3-.4.3-1.4.2-2.1h0c-.2-.4-.3-.5-.4-.6h0c0,0,0,.1,0,.2v1.2c0,.3-.1.5-.3.5-.1,0-.2,0-.4-.2-.7-1.2-.8-2.5-.9-3.9,0-.5-.3-.8-.5-.8s-.1.1-.1.4c0,2,.2,4.1,1.5,5.3h0Z"/>
      <path class="st0" d="M47.2,57.5h0c0,0,0-.2,0-.5v-1c-.2-.1-.3-.2-.4-.2s-.2.1-.2.2c-.1.6,0,1.1.2,1.4,0,0,.2.1.2.1"/>
      <path class="st0" d="M43.7,53.2c.1,0,.1-.3.1-.3,0-.2,0-.5-.2-.7,0-.1-.2-.1-.2-.1h-.2c0,.4,0,.7.1.9,0,.1.2.2.3.2"/>
      <path class="st0" d="M51.1,19.2h-.1c-.1,0-.2.1-.2.1s0,.2.4.2c.6,0,1.3,0,1.8,1,.1.3,0,.4,0,.5-.1.2-.2.2-.5.2h0s0,.2,0,.2c.1,0,.3.2.5.2.2,0,.4,0,.5-.3.1-.2.2-.4,0-.7-.5-1.2-1.4-1.5-2.4-1.5"/>
      <path class="st0" d="M52.2,20.8c.1,0,.1-.1.1-.2,0-.2-.1-.5-.5-.5-.1,0-.1,0-.1,0,0,0,0,.1.2.4,0,0,.2.2.3.2"/>
      <path class="st0" d="M52.7,22.4c-.1,0-.2.1-.2.2,0,.1.1.2.2.3.9,0,1.3.6,1.3,1.8-.1.6-.4.5-.6.5-.2,0-.4,0-.5-.1-.2,0-.3,0-.3.1,0,0,0,0,0,.2,0,.1.7.5,1.3.5.2,0,.3,0,.4-.1.4-.3.5-.8.3-1.6-.2-1.1-.8-1.6-1.8-1.7"/>
      <path class="st0" d="M53.2,24.4s.1,0,.2-.1c0-.4,0-.6-.1-.6,0,0-.1,0-.4,0-.2,0-.3.1-.3.2,0,0,0,.2.1.3.3.2.5.2.5.2"/>
      <path class="st0" d="M53.4,30.4h.1c.9-.6,1.4-1.4,1.6-2.2,0-.5,0-.9-.2-1.1-.3-.3-.7-.5-1.4-.5h-.2c-.3,0-.5.1-.5.3,0,.1,0,.2.1.3l.9.2c.2,0,.4.2.5.4,0,.2,0,.8-.2,1.2-.6.8-.9.8-.8,1.3,0,.2.1.2.2.2"/>
      <path class="st0" d="M53,28.5c.1,0,.2,0,.3,0,.3,0,.4-.1.4-.2,0-.5-.3-.5-.4-.5,0,0-.2,0-.4,0-.1,0-.2.2-.2.3s.1.2.3.3"/>
      <path class="st0" d="M55.5,17.4h0s-.1,0-.1,0c.4.4,1,.6,1.9.7.3,0,.4,0,.4-.1,0,0,0-.2,0-.2-2-3-4.3-3.4-6.2-3.3-.3,0-.6,0-1,0-.1,0-.2,0-.2,0,0,.1.4.4.9.5.3,0,.7,0,1,0,1.7,0,3,.5,3.9,1.5.2.3.3.5.2.6,0,.2-.3.3-.7.3"/>
      <path class="st0" d="M53.9,16c-.2,0-.5,0-.6,0,0,0-.1,0-.1,0,0,0,0,.1.2.2.3.1.6.2.9.2.2,0,.3,0,.5,0,.1,0,.1-.1.1-.1,0,0,0,0-.2-.2-.2,0-.4-.1-.7-.1"/>
      <path class="st0" d="M59.5,16.6c-.2,0-.4,0-.6-.3-.7-.8-1.4-1.2-2.1-1.4,0,0-.2,0-.2,0h0c1.1,1.4,2.4,2.3,3.9,2.7.1,0,.3,0,.4,0,.1,0,.2,0,.3,0,0,0,0-.1,0-.2-.1-.9-.6-1.5-1.4-1.7.1.3.1.6,0,.7,0,.1-.2.2-.3.2"/>
      <path class="st0" d="M62.2,76.5c.1,0,.3,0,.4,0h.1c-.2-.2-.3-.3-.4-.5,0-.3,0-.7.5-1.1,2.2-1.2,2.9-2.2,2.6-4,0,0,0-.2,0-.2,0,0-.3-.2-.4-.2-.2,0-.5.1-.6.4-.2,1.2-.6,2-1.2,2.4-1.5,1-3.6,1.7-6.2,1.9-1,0-1.7.4-2.1,1.2l-.8,2c-.1.5-.4.8-.9.8l-1.9-.2c-.2,0-.4,0-.5-.2-.1-.1-.1-.3-.1-.5,0-1.7.2-3.3.7-4.7.2-.4,0-1.1-.2-1.4,0-.1-.2-.2-.2-.2s-.1,0-.2.3c-.7,1.3-1.1,3.4-1.1,6.5,0,.6.1.9.7,1.1l4,.3c.6,0,.8-.2.9-.7.2-2,.9-3.1,2-3.1.9-.2,2-.3,3.2-.5,0,0,.2,0,.2,0,.5,0,.7.1.8.3.4.2.8.4,1.1.4"/>
      <path class="st0" d="M60.1,69.7h-.2c-.6.1-.7.5-.7.8,0,.2.2.5.5.5.1,0,.2,0,.3-.1.5-.5.9-.7,1.3-.9-.4-.2-.8-.3-1.2-.3"/>
      <path class="st0" d="M59.2,73.4c0,0,.2,0,.3,0,.4-.1.8-.3,1.1-.7-.5,0-1,0-1.6-.3h-.1c-.3,0-.4.2-.4.4,0,.1,0,.3.2.4.1.1.3.2.6.2"/>
      <path class="st0" d="M57.6,70.5c.3-.6.6-1,.9-1.2-.1,0-.2,0-.3,0-.4,0-.8,0-1.1.2-.4.2-.5.5-.4.8,0,.3.3.5.6.4.2,0,.3,0,.4-.2"/>
      <path class="st0" d="M52.7,76.8c.2,0,.3-.2.4-.3,0-.7.3-1.2.5-1.5-.5.1-.9.3-1.2.6-.4.4-.3.7-.2.9.1.2.3.4.5.4"/>
      <path class="st0" d="M69.7,75.3c.7-.5,1.3-.5,1.8-.6-.6-.5-1.1-.8-1.8-.9-1.6,0-1.1,1.9,0,1.4"/>
      <path class="st0" d="M71.9,72.8c0-.7.2-1.1.4-1.5-.5.1-.8.3-1.2.6-.2.3-.3.6-.2.9.1.2.3.4.6.4.1,0,.3,0,.4-.4"/>
      <path class="st0" d="M74.8,72c-.1,0-.2,0-.4,0-.4,0-.8,0-1.1.2-.4.2-.5.6-.4.9,0,.3.3.4.6.4.2,0,.3,0,.4-.2.3-.7.6-1,.9-1.3"/>
      <path class="st0" d="M73,75.3c.1,0,.2,0,.3,0,.5-.2.8-.4,1.2-.7-.5,0-1-.1-1.6-.3h-.2c-.3,0-.4.2-.4.4s0,.3.2.4c.1.1.3.2.6.2"/>
      <path class="st0" d="M55.4,73.1c0,.2.3.4.6.4.2,0,.4,0,.6-.4.2-.4.3-.8.3-1.3-.4.3-.8.6-1.3.8-.2.1-.3.3-.2.5"/>
      <path class="st0" d="M48.1,69.4c-.6,0-1.1.4-1.6.9.5,0,1.1,0,1.8.5,1.1.4,1.3-1.5-.2-1.4"/>
      <path class="st0" d="M44.2,68.1c.2,0,.4-.2.5-.4,0-.3-.1-.6-.5-.9-.3-.1-.7-.2-1-.2-.1,0-.3,0-.4,0,.4.3.7.7,1,1.2.1.2.3.2.4.2"/>
      <path class="st0" d="M41.9,68c0-.3-.2-.7-.8-.7-.4,0-.8.1-1.3.4.4,0,.8.3,1.4.7.1,0,.2,0,.3,0,.2,0,.4-.2.4-.5"/>
      <path class="st0" d="M42.6,69.9c-.7.4-1.2.5-1.8.5.5.5,1.1.8,1.7.8,1.5,0,1.1-1.8,0-1.3"/>
      <path class="st0" d="M44.6,70c.2,0,.3.1.5.1.4,0,.6-.3.6-.5,0-.2-.1-.5-.5-.5-.2,0-.4,0-.6,0-.4,0-.7,0-.9-.1.3.4.6.8,1,1"/>
      <path class="st0" d="M34.2,67.7c.2.1.4.2.5.2.3,0,.5-.3.5-.5,0-.1,0-.5-.5-.5-.6,0-1-.1-1.3-.2.2.5.5.8.8,1.1"/>
      <path class="st0" d="M30.4,68c.2,0,.3.1.5.1.4,0,.5-.3.5-.5,0-.2-.1-.5-.5-.5-.1,0-.2,0-.3,0-.4,0-.8,0-1.1-.2.2.5.5.8.9,1.1"/>
      <path class="st0" d="M28.8,64.6c0,0-.2,0-.3,0-.3,0-.7,0-1.1.3.4.2.6.4.8.6h0c0,.1.2.2.3.2,0,0,.2,0,.3,0,.3,0,.5-.2.5-.5,0-.3-.2-.5-.6-.7"/>
      <path class="st0" d="M22.1,60.3h0c0,.4.3.5.6.5.1,0,.3,0,.4-.2,0-.1.2-.3,0-.8-.2-.4-.5-.7-.9-1,0,.4,0,.7,0,1,0,.3,0,.4,0,.4"/>
      <path class="st0" d="M20.9,59c-.2-.4-.5-.7-.9-1,0,.4,0,.8,0,1,0,.1,0,.3,0,.4h0c0,.4.3.5.6.5.1,0,.3,0,.3-.2,0,0,.2-.3,0-.8"/>
      <path class="st0" d="M20.5,60.9s-.1,0-.2,0c-.3,0-.8-.1-1.2-.4.1.5.4,1,.8,1.3.1,0,.3.1.4.1.3,0,.5-.2.5-.4,0,0,0-.4-.4-.6"/>
      <path class="st0" d="M22.6,63.5c.2.1.3.2.5.2.2,0,.5-.2.5-.4,0-.2,0-.5-.3-.6,0,0,0,0-.2,0-.3,0-.7-.2-1.2-.5,0,.5.3,1,.7,1.4"/>
      <path class="st0" d="M50.4,67.6c0,0,0-.2,0-.4,0-.4,0-.8,0-1.3,0,0,0-.3-.5-.4,0,0-.2,0-.3,0-1,0-1.6.7-1.8,1.4-.3.8,0,1.7.8,2.2.2,0,.2.1.3.1h0c0,0,0-.2,0-.5,0-.3,0-.5,0-.7.2-.3.6-.4,1.3-.4h.2Z"/>
      <path class="st0" d="M52.8,72.6h0c.2,0,.3,0,.3,0h0c-.4-.4-.6-.7-.6-1,0-.3.3-.6.6-.8.2-.3.3-.5,0-.7-.4-.3-.6-.6-.8-1-.1-.2-.2-.2-.3-.2-.1,0-.3,0-.5.2-.8.6-.9,1.5-.7,2.2.2.7.9,1.4,1.9,1.4"/>
      <path class="st0" d="M66.2,72.3h0c.2.1.4.1.6.1.7,0,1.3-.5,1.6-1.3.2-.7,0-1.7-.9-2.4-.1-.1-.3-.2-.4-.2s-.2,0-.3.2c-.3.5-.6.8-.8,1,0,.2-.1.3,0,.4,0,.1.1.2.3.3.4.2.6.5.6.8,0,.3-.2.7-.6,1"/>
      <path class="st0" d="M62.8,69.6c.3.2.6.3.8.3.2,0,.4,0,.6-.2,1.1-.5,1.8-1.1,2-1.8.1-.4,0-.8-.3-1.2-.3-.4-.8-.7-1.3-.7,0,0-.2,0-.2,0-1,0-1.6-.6-2.1-1.1-.3-.3-.6-.6-.9-.7-.1,0-.2,0-.3,0-.1,0-.1,0-.1,0h0c.1.6.4,1,.9,1.4.4.3,1,.6,1.7,1,.3.2.5.4.5.7,0,.2-.2.5-.6.7-.1,0-.2,0-.3,0-.3,0-.6-.2-.8-.6-.5-.8-1.2-1.6-1.9-2.3h-.2c0,0-.1,0-.2,0-.3.1-.5.3-.6.6-.1.2-.3.3-.4.3-.1,0-.2,0-.4-.1,0,0-.1,0-.2,0-.9.5-1.8,1.2-2.7,2.2-.2.2-.4.2-.5.2h0s-.2,0-.2,0h0s0,0,0,0c0-.2,0-.4.3-.6.9-.6,1.7-1.2,2.2-1.9,0,0,0-.2,0-.2,0-.1-.1-.2-.2-.3-.3-.1-.5-.2-.9-.2-.3,0-.6,0-1,.2-.3,0-.6.1-.9.1-.5,0-1,0-1.6-.2-.1,0-.3,0-.4,0-.3,0-.6.1-.8.4,0,.2-.1.4-.2.5,0,.6,0,1,0,1.4,0,.2.1.3.2.5,0,.1.2.2.3.2s.3,0,.5-.2c.5-.3.7-.7.8-1.4,0-.2.2-.3.5-.5.7-.2,1.2-.4,1.7-.4.2,0,.4,0,.5,0,.2,0,.4.1.4.3,0,.2-.1.3-.3.4-.6.4-1.3.8-2.4,1.2-.5.2-.7.7-.7,1.4,0,.4.4.8,1.1,1.3.2.1.4.2.6.2.5,0,.9-.3,1.1-.8,0-.2.3-.5.7-.7.6-.4,1.2-.9,1.6-1.4.1,0,.2-.1.3-.1.2,0,.3.2.4.5v.2c.2.3.4.4.5.4.2,0,.4-.2.7-.5.1-.1.2-.2.4-.2h.1s0,0,0,0c.1.1.1.3,0,.6,0,.2,0,.2,0,.3,0,0,.2-.1.3-.1.2,0,.3,0,.6.2l1.1.9Z"/>
      <path class="st0" d="M52.5,60.8c-.1,0-.2,0-.3.1,0,0,0,.2,0,.3l1.9,2.5c.3.3.6.5.9.5.2,0,.3,0,.4-.2.1-.2.2-.4.1-.8,0-.2-.1-.3-.2-.3h-.1c-.1.3-.3.4-.4.4-.2,0-.3,0-.4-.2l-1.6-2.2c0,0-.2-.1-.3-.1"/>
      <path class="st0" d="M58.3,65c.1,0,.3,0,.4,0,.2,0,.4,0,.5-.6.1-.6,0-1.4-.3-2.2l-1.5-3.3c-.1-.2-.2-.3-.2-.3,0,0,0,0-.2.3-.1.5,0,1,.4,1.7.2.4.5.8.7,1.2l.3.6c.2.4.2.8,0,1.1-.1.2-.3.2-.4.2-.2,0-.4,0-.5-.3l-1.5-2.1c-.4-.7-.8-1.1-1.3-1.3-.1,0-.3,0-.4,0h0s0,.1,0,.2c.4.5.8,1.1,1.1,1.6h0c.8,1.3,1.5,2.4,2.8,3.1"/>
      <path class="st0" d="M56.3,60.4v.2s1.1,2,1.1,2h0c0,0,.2,0,.2-.1,0-.1,0-.2,0-.3l-1.1-1.7h-.1c0,0-.1,0-.1,0Z"/>
      <path class="st0" d="M54.6,62.6h0c0,0,.2,0,.2-.1,0-.1,0-.2,0-.3l-.9-1.4h-.1s-.1,0-.1,0v.2s.9,1.7.9,1.7Z"/>
      <path class="st0" d="M60.8,63.5c.2,0,.3,0,.4,0s.2,0,.2,0c0,0,0-.2,0-.3-.2-1.5-.5-2.7-.9-3.8-.2-.4-.3-.7-.3-1.1,0-.1,0-.2-.1-.3h-.2c-.2.5-.3,1,0,1.5l.7,1.9c.1.3.1.5,0,.7h-.1c0,0,0,.1,0,.1h0c-.1,0-.3-.1-.4-.3-.3-.4-.5-1-.6-1.8-.2-.8-.4-.9-.6-1h-.1s-.1,0-.1,0h0c.4,1.7,1,3.6,2.2,4.4"/>
      <path class="st0" d="M57.9,48.7c0,0-.2.1-.3.3-.1.2-.2.4,0,.6,1,2.1,1.5,4,1.4,6.2,0,.7-.4.7-.5.7-.2,0-.4-.1-.6-.4-.5-.8-.9-1.8-1.4-2.8h0c-.3-.8-.7-1.6-1.1-2.3,0-.1-.1-.1-.1-.1,0,0,0,0-.2.3,0,.3,0,.8.2,1.3.3.7.7,1.4.9,2h0c.6,1.5,1.2,2.8,1.9,3.4.2.1.4.2.5.2.2,0,.4-.2.6-.5.8-1.4-.1-6.5-1.3-8.7,0-.1-.1-.1-.1-.1"/>
      <path class="st0" d="M57.9,54.7c0,0,.2,0,.2-.3,0-1.9-.7-3.4-1.8-4.4,0,0-.2,0-.2,0,0,0-.1,0-.2,0,0,.1,0,.3,0,.4.9,1.4,1.5,2.7,1.9,4.1,0,0,0,.1.2.1"/>
      <path class="st0" d="M55.2,59.3c.1,0,.3.1.5.1.2,0,.6,0,.8-.7.1-1.9-.6-4.2-2.1-6.7,0-.1-.2-.1-.3-.1-.2,0-.3,0-.4.2,0,0-.1.2,0,.3.3.8.6,1.5.9,2.1h0c.4,1,.8,1.8,1.1,2.8,0,.3,0,.6,0,.8,0,0-.2.2-.3.2-.2,0-.4,0-.5-.3-.9-.9-1.6-2-2.2-3.1v-.2c-.5-.6-.8-1.2-1.2-1.7-.2-.2-.3-.3-.4-.3h-.2c0,.2,0,.5,0,.7,1.1,2.2,2.6,4.1,4.4,5.8"/>
      <path class="st0" d="M51.3,51.6h-.1s0,.2,0,.2c1.2,1.4,2.1,2.8,2.9,4.6h.1c0,.1,0,0,0,0,0,0,0-.1,0-.4-.6-2.1-1.7-3.6-3-4.4h0Z"/>
      <path class="st0" d="M52.1,59.9c.4,0,.7-.4.7-1-.1-1.9-1.6-3.6-3.1-5.3-.2-.1-.3-.1-.3-.1h-.1c0,0,0,.2,0,.2,1.1,1.2,2,2.5,2.8,3.9.2.4.2.7,0,1-.1.1-.3.2-.4.2-.2,0-.4,0-.6-.3-1.5-2.2-3.2-4-4.4-5.3,0,0-.2-.1-.3-.1h-.2c0,.2,0,.3.1.4,1.5,1.7,3.1,3.6,4.8,5.8.3.3.7.5,1,.5"/>
      <path class="st0" d="M47.4,52.6h0c0,.1,0,.3,0,.5l3.7,4.4h.2c0,.1,0,0,0,0,0,0,0-.1-.1-.3l-3.7-4.7h-.1Z"/>
      <path class="st0" d="M62.1,18c.7.5,1.7,1.1,2.2,1.1,0,0,.2,0,.2,0,.2-.2.3-.5.3-.8,0-.3-.4-.7-.8-.8h0c0,.3,0,.4-.2.5-.1.1-.3.2-.4.2-.3,0-.7-.2-.7-.6-.1-.5-.4-.8-.8-1.1h0s0,0,0,0c.1.2.2.5.2,1,0,.2,0,.4,0,.5"/>
      <path class="st0" d="M57.4,20.7c-.2,0-.3,0-.5,0h0s0,0,0,.2c.4.4,1,.6,1.5.6.3,0,.6-.1.7-.3.2-.3,0-.9-.4-1.6h0c0-.1,0-.2,0-.2h0c0-.1,0-.3-.7-.8h0c0,.1-.2.2-.5.3-.2,0-.4,0-.6,0-.2,0-.5,0-.7,0h-.1c0,.2.1.4.4.4,1.4,0,1.9.5,1.9.9,0,.3-.4.6-.9.6"/>
      <path class="st0" d="M58,23c1,.3,1.3,1,1.2,1.5,0,.4-.3.7-.7.7-.2,0-.5-.1-.8-.4,0,.1,0,.3,0,.5.5.9,1.3,1.3,1.9,1.3.3,0,.5,0,.6-.3.2-.2.1-.6,0-1.1-.6-1.1-.6-2-.6-2.8,0-.2,0-.2,0-.3,0,0-.3.1-.3.1-.2,0-.4.1-.6.1-.4,0-.7-.1-1.1-.3h-.1c0,.2,0,.3,0,.3l.7.5Z"/>
      <path class="st0" d="M54.4,38.8c0,.1-.1.4,0,.6.6.8,1.3,1.9,1.9,3h0c.5,1,.9,1.7,1.2,2.1.1.2.3.2.4.2.1,0,.3-.2.3-.6,0-2-1.1-4.3-3.1-7.2h0c0,.2,0,.5,0,.6.9,1.2,1.5,2.5,2.1,4,0,.2,0,.4,0,.5h-.1c0,0,0,0,0,0h0c-.2,0-.3-.1-.4-.3-.5-1.1-1.1-2.1-1.9-3.1h-.2c0-.1-.1,0-.1,0Z"/>
      <path class="st0" d="M52.5,42.6c0,0-.2,0-.2.1-.1.1,0,.4,0,.6.7,1.5,1.5,3.2,2.5,4.8.4.5.8.7,1.2.7.4,0,.7-.2,1-.6.5-.7.5-1.8,0-3-.6-1.4-1.6-3.2-3.1-5.2,0,0-.2-.1-.2-.1s-.2,0-.2.1c0,.1,0,.4,0,.6,1.3,1.9,2.2,3.5,2.9,5.3.2.6.2,1.1,0,1.4-.1.2-.4.4-.6.4-.3,0-.5-.1-.7-.4-1.1-1.6-1.8-3.2-2.5-4.6,0-.1-.2-.2-.3-.2"/>
      <path class="st0" d="M55.4,46.1c.1,0,.3,0,.3-.2,0-.1,0-.3,0-.5l-2.2-3.9c0-.1-.1-.2-.1-.2,0,0,0,0-.1.1-.1.2-.2.7,0,.9l2.1,3.7s0,0,.2,0"/>
      <path class="st0" d="M52.9,51.4c.5,0,1-.3,1.3-.8.3-.6.3-1.4-.1-2.2-1.1-1.9-1.8-3.3-2.2-4.7,0-.3-.2-.4-.4-.4-.1,0-.3,0-.3.2,0,.1,0,.2,0,.3.5,1.4,1.3,3,2.4,4.9.3.6.2,1.1.1,1.2-.1.2-.4.4-.6.4-.3,0-.7-.2-.9-.5-.7-.7-1.3-1.8-1.9-2.8l-.2-.3c-.4-.6-.8-1.3-1.1-1.8,0-.1-.2-.2-.3-.2-.2,0-.3.1-.4.3,0,.1,0,.3.1.4l3.2,4.9c.4.6.9.9,1.5.8"/>
      <path class="st0" d="M49.7,44.6l2.3,4.2c.1.2.3.3.4.3h.1c0-.1.1-.3-.1-.8l-2.5-4.7c0,0,0-.1-.2-.1h-.1s0,.2,0,.2c0,.1,0,.3,0,.4,0,.1-.1.2,0,.5"/>
      <path class="st0" d="M50.2,52.5c.2-.3.3-.8.1-1.4-.6-1.8-1.7-3.5-2.8-5l-.2-.3c-.1-.2-.4-.2-.6-.2-.2,0-.3,0-.3,0,0,0,0,0,0,.2,1.2,1.6,2.1,3.2,2.9,4.9.2.3.2.6,0,.8-.1.2-.3.3-.5.3-.1,0-.3,0-.5-.3-1.5-1.6-2.8-3.3-4.1-5.2,0,0-.2-.1-.3-.1-.1,0-.3,0-.3.2,0,.1,0,.3,0,.4,1.2,1.8,2.6,3.7,4.4,5.5.3.3.8.5,1.2.5.3,0,.6,0,.8-.3"/>
      <path class="st0" d="M44.8,45.5c.6,1.6,1.7,3.2,3.3,4.7,0,0,.2,0,.2,0h0c0-.1,0-.2,0-.4-1.1-1.7-2.2-3.3-3.3-4.6h-.2c0,0,0,.2,0,.3"/>
      <path class="st0" d="M46.1,52.5c.2,0,.3,0,.3-.1,0,0,0-.2,0-.5-.8-1.6-2-3.2-3.9-5.2-.1-.1-.3-.2-.4-.2h-.1c0,0,0,.1,0,.3.8,1.1,1.8,2.3,2.6,3.5.1.2.2.4.1.5h0s-.1.1-.1.1h0s0,0,0,0c-.1,0-.2,0-.4-.2-1.3-1.5-2.6-3.2-4-5.1,0-.1-.2-.2-.3-.2-.1,0-.3,0-.4.2,0,.1,0,.2,0,.4l.3.4c1.6,2.4,3.6,5.4,6.2,6.2h.2Z"/>
      <path class="st0" d="M51.4,33.6c-.1.1-.2.3-.3.5-.1.6,0,.7,0,.7h0s.1,0,.2,0c.8-.8,1.2-1.5,1.1-2.3l-.2-3.8c0-.2-.2-.4-.3-.4h-.2c0,.2-.1.4-.1.6v.9c0,.4,0,.9,0,1.3,0,.4,0,.8,0,1.2.1.7-.1,1.1-.4,1.4h0Z"/>
      <path class="st0" d="M48.5,30c0,0-.2,0-.2.2-.5,1.5-.7,3.1-.6,4.8.2.6.5.9,1.1.9.7,0,1.6-.6,1.9-1.7.4-2,.4-3.7.3-5.1,0-.3-.1-.5-.3-.5h-.2c0,.2-.1.3-.1.5,0,1.7.1,3.6-.4,4.7-.4.7-.8,1-1.1,1-.2,0-.5,0-.5-.7,0-1.6.2-2.9.4-3.9,0-.1,0-.2-.2-.3"/>
      <path class="st0" d="M49.4,33.6c.3-1.1.4-2.4.2-4.1,0-.2-.1-.3-.1-.3,0,0-.2.1-.2.3l-.2,4.1c0,.1.1.2.1.2,0,0,.2,0,.2-.2"/>
      <path class="st0" d="M44.1,35.9c-.3,0-.5,0-.5-.3-.1-.2-.1-.5,0-1l.9-3c0-.1,0-.2,0-.3h-.1c-.1,0-.2,0-.3.2-.2.7-.5,1.4-.7,2.1-.2.5-.4,1-.6,1.6-.1.3-.2.5,0,.8.3.4.8.6,1.6.6h0c1.5-.2,2.3-.8,2.4-1.7l.6-4c0-.2,0-.3-.1-.4h-.2c-.1,0-.3,0-.4.4l-.5,3.1c-.2,1.3-.8,1.9-1.9,1.9"/>
      <path class="st0" d="M45.6,30.8c-.1,0-.3.1-.3.3-.1,1-.3,2.2-.6,3.3,0,0,0,.2,0,.2h.1c.1,0,.3-.1.4-.3.3-1.1.4-2.3.5-3.3,0-.2,0-.2-.1-.2"/>
      <path class="st0" d="M39.8,36c.3.1.6.2.9.2.5,0,1-.3,1.3-.9l1.1-3.2c0-.3,0-.4,0-.4,0,0,0,0-.1.2-.5,1.3-1,2.4-1.5,3.2-.2.3-.5.4-.7.4-.2,0-.4-.1-.6-.3-.1-.2-.1-.5,0-.8.5-.9.9-1.9,1.2-2.9,0-.1,0-.2-.1-.3,0,0-.2,0-.2.2-.4,1.1-1,2.1-1.6,3.1-.2.4-.3.7-.2,1,0,.2.2.4.5.5"/>
      <path class="st0" d="M41.8,31.7c-.2.8-.6,1.6-1.1,2.6,0,.1,0,.2,0,.3h0c0,0,.2,0,.2-.1.6-1,1-1.8,1.1-2.6,0-.2,0-.3-.2-.4,0,0-.2,0-.2.2"/>
      <path class="st0" d="M40,31.6s0,0-.1.1c-.3.7-.7,1.4-1.2,2.1,0,0,0,.2,0,.3h.1s.1,0,.1,0c.6-.6,1-1.4,1.3-2.3,0,0,0-.1-.1-.3"/>
      <path class="st0" d="M37.1,34.7c.3.4.6.6,1,.7.2,0,.3-.1.4-.2v-.2s-.5-.4-.5-.4c-.1,0-.2-.2-.2-.3,0-.2,0-.4.2-.6.5-.6.9-1.1,1.1-1.6.1-.2.1-.4,0-.5h0c0,0-.1,0-.2.1-.5.8-1.1,1.5-1.6,2.1-.3.3-.3.6-.2.8"/>
      <path class="st0" d="M36.8,36c-1.1,1.5-1.2,2.7-1,4,.2.7.4,1.2.7,1.9.1.3.3.7.5,1.2.2.4.3,1,.3,1.8,0,0,0,.3.5.3.2,0,.4,0,.6-.1.5-.2.8-.4,1-.7.1-.3.1-.6,0-.9-1.3-3-1.4-4.9-.2-6.4,0-.1,0-.3,0-.4,0,0-.2-.2-.3-.2-.1,0-.2,0-.3.2-.7.7-.9,1.3-1,2.6,0,.6.2,1.3.4,2,.1.5.3,1,.4,1.6,0,.2,0,.4,0,.5,0,.1-.2.2-.3.2s-.3,0-.5-.5c-.2-.5-.3-1-.5-1.4h0c-.3-.8-.5-1.4-.5-2.1,0-1.2.2-1.8.9-3h0c0-.2.1-.3,0-.4,0-.1-.2-.2-.3-.2-.2,0-.3,0-.4.2"/>
      <path class="st0" d="M39.5,41.7c.2,1.3.8,2.5,1.8,3.7.4.3.8.5,1.3.4.8,0,1.4-.5,1.6-1.2,0-.4,0-.7-.2-1.1,0-.1,0-.3-.1-.4-.5-1.7-.5-3.3,0-5.1,0,0,0-.2,0-.3,0,0-.2-.1-.3-.1-.2,0-.4,0-.4.2-.6,1.6-.6,3.4,0,5.6,0,.4,0,.7-.1.9-.1.2-.4.3-.6.3-.3,0-.5-.1-.7-.4-1.6-2.6-1.9-4.8-.8-6.8.1-.2.1-.4,0-.5,0,0-.2-.2-.3-.2-.1,0-.3.1-.4.3-.9,1.6-.8,3-.4,4.6"/>
      <path class="st0" d="M42.2,37c0,0-.1-.1-.3-.1-.2,0-.3.1-.4.3-.8,1.9-.7,3.8.2,5.9,0,0,.1.1.2.1h0c0,0,0-.2,0-.5-.6-2.6-.6-4.3.1-5.3,0-.1,0-.2,0-.3"/>
      <path class="st0" d="M45.2,37.6c0,0-.1,0-.2,0-.2,0-.4.1-.4.3-.5,1.5-.5,3.3,0,5.3.2,1.1,1.2,1.6,2.1,1.6.8,0,1.6-.5,1.8-1.7-.4-2.2-.4-4.1-.3-5.8,0-.1,0-.2-.1-.3,0,0-.2-.1-.4-.1,0,0-.3,0-.3.2-.3,1.2-.4,2.8-.3,4.6,0,.1,0,.2,0,.4,0,.4.1.9-.1,1.2-.2.2-.4.3-.6.3-.3,0-.6-.2-.9-.6-.6-1.4-.7-3.1-.3-5,0-.1,0-.2-.1-.3"/>
      <path class="st0" d="M46.6,37.1h-.1c0,0-.2,0-.3.2-.3,1.5-.4,3.1-.2,4.6,0,.2.2.3.3.3.2,0,.3-.1.4-.4-.2-1.4-.2-3,0-4.6v-.2Z"/>
      <path class="st0" d="M50.9,35.7c-.1.2-.1.5,0,.9.5,1.5.7,2.8.6,4.1-.1.5-.4.8-.8.8-.3,0-.6-.2-.7-.6-.4-1.4-.4-2.7-.4-3.9,0-.3-.2-.3-.4-.3,0,0-.2,0-.3.1,0,0,0,.2,0,.3,0,1.7,0,3.7.9,5.3.3.3.6.5.9.4.6,0,1.3-.6,1.8-1.6.4-1.4,0-3.1-1.1-5.4h-.2c0-.1,0,0,0,0Z"/>
      <path class="st0" d="M50.7,40.1c0,0,.1-.2.1-.3-.2-1.1-.4-2.1-.5-3.2,0-.3-.2-.3-.2-.3,0,0-.1,0-.1.2,0,1.4.2,2.4.5,3.5h.2Z"/>
      <path class="st0" d="M53.2,33.9s0,0,0,.2c0,.5.1.8.3,1.2h0c.2.4.3.8.3,1.3,0,.4-.3.4-.4.4,0,0-.2,0-.2,0-.4,0-.6-.8-.7-1.1,0-.1.2-.3.3-.2,0,.1.2.3.3.2.2,0-.2-1-.2-1,0-.1-.2-.1-.3-.1-.1,0-.2,0-.4.2-.2,0-.3.2-.2.6.2,1,.6,1.9,1.3,2.8,0,0,.2.1.3.1.1,0,.3-.1.5-.3.7-1.5.5-2.9-.5-4.2,0,0-.2-.1-.2-.1"/>
      <path class="st0" d="M54.9,33.2h-.2c0,0-.2,0-.2,0,0,0,0,.1,0,.2,0,.2.2.3.4.5.4.4.8.9.3,1.5-.1.1-.2.1,0,.3.1.2.2.3.4.3.1,0,.3,0,.4-.1l.7-.9v-.2c0,0,0,0,0,0-.5,0-.8-.4-1.1-.8-.2-.3-.5-.6-.8-.8"/>
      <path class="st0" d="M57,33.1c-.1,0-.2,0-.3-.1l-.9-.7h-.2c-.1,0-.2,0-.2.1,0,.1,0,.2,0,.3.4.5.8.9,1.3,1.3.2.1.3.2.5.2.1,0,.3,0,.4-.2.2-.3.5-.5.7-.8.4-.4.7-.7.9-1.2,0-.2,0-.3,0-.3,0,0,0,0-.3,0-.8,0-1.3-.5-1.8-1h-.2c-.1,0-.2,0-.3.1,0,0,0,.2,0,.3l.9.9c.1.2.1.5,0,.7-.1.2-.3.4-.5.4"/>
      <path class="st0" d="M58.9,29.7c-.2,0-.4-.1-.6-.3,0,0-.1-.1-.2-.1s0,0-.2.1c-.4.4-.3.6-.2.8.6.6,1,.8,1.4.8.3,0,.6-.2.8-.6.3-.6.5-1.3.5-2.1,0-.2,0-.3,0-.3,0,0-.2,0-.3-.1h0s-.2,0-.2,0c-.6-.3-1.1-.6-1.7-1.1h0c0,.4,0,.6.1.8l.8.7c.3.4.3.8.2,1.1,0,.2-.3.4-.5.4"/>
      <path class="st0" d="M75.4,70c.1-.2,0-.5,0-.8,0-.2-.1-.2-.6-.3-.5,0-1.2-.1-1.2-1.1v-.3s0,0,0,0h-.2c-.7.3-.9.7-1,1.1,0,.1-.2.3-.3.5-.3.3-.6.4-.9.4-.3,0-.6-.2-.9-.7,0-.1,0-.2,0-.3,0,0-.1.1-.2.3-.2.3-.2.6-.2,1,0,.5,0,1-.4,1.8-.7,1.3-1.6,2-2.6,2-.2,0-.5,0-.7,0h-.1c-.2,0-.3.2-.3.3,0,.2,0,.3,0,.4.5.2.9.2,1.3.2.9,0,1.8-.5,2.5-1.4,1.1-1.5,2.4-3.4,3.9-3.4.3,0,.6,0,1,.2h0c.2.3.4.4.6.4s.2,0,.3-.2"/>
      <path class="st0" d="M79,74.6c-.5,0-.8-.1-.9-.3-.2-.2-.1-.6,0-1h0c0-.1-.2-.1-.4-.1-.8.1-1,.4-1,.8,0,.4,0,.7-.4.8-2,1-3.8,1.4-5.5,1.5-1.6,0-2.8-.3-4.2-.7-.8-.2-1.5-.4-2.2-.5-.5,0-.8.2-.9.4,0,.1,0,.2.1.3l1.6.6c.2,0,.9.2.9.8.2.8.5,1.1,1,1.1h.2s0,0,0,0h0s0,0,0,0h0c-.1-.2-.1-.6,0-.8,0-.2.2-.3.4-.3,0,0,.2,0,.3,0,1,.2,2,.3,2.9.3.6,0,1.3,0,1.8-.2,0,0,.2,0,.2,0,.2,0,.3,0,.4.2.6.4,1.1.6,1.5.6.3,0,.5,0,.7-.3h0c-.3,0-.5-.3-.7-.7,0-.4,0-.5.4-.6.5-.1,1.1-.3,1.7-.8.1-.2.3-.2.6-.2h0c1.1,0,1.3-.3,1.4-.6h0c0-.1,0-.3,0-.3h-.1c-.1,0-.2,0-.3,0"/>
      <path class="st0" d="M79.3,70.6c-.4.6-1.2,1-1.9,1-.3,0-.5,0-.8-.2-.2-.2-.3-.4-.3-.6,0-.4.3-.9.9-1.4.3-.3.7-.4,1.1-.4.4,0,.7.2.9.4.2.3.2.7,0,1.2M78.1,68.4c-.4,0-.8.1-1.2.4-1.6,1.3-1.9,2.3-1.1,3.4.5.3,1,.4,1.5.4.8,0,1.7-.4,2.6-1.2.4-.6.4-1.3,0-1.9-.4-.7-1.1-1.1-1.8-1.1"/>
      <path class="st0" d="M82.9,70c0-.3-.2-.4-.3-.4h-.2c-.4,0-.7.2-1,.3-.2,0-.3.2-.3.3,0,.2,0,.3.2.4.6.2,1,.3,1.2.3h.1c0,0,.1,0,.2,0,0,0,0-.1,0-.2,0-.2,0-.5,0-.7"/>
      <path class="st0" d="M82.3,68.4c-.3-.4-.5-.6-.6-.7-.1-.1-.2-.2-.2-.2s-.1,0-.3.2c-.4.3-.6.6-.7.8,0,.3,0,.4,0,.6,0,.1.2.2.5.2.4,0,.8-.2,1.2-.5.1-.1.1-.2,0-.3"/>
      <path class="st0" d="M80.1,66.4c-.2-.1-.3-.2-.3-.2s-.1,0-.2.2c-.1.2-.2.5-.3.7,0,.3,0,.5,0,.6,0,0,.2.1.4.1.1,0,.2,0,.3,0,.3-.1.6-.3.8-.6h0c0-.2,0-.3-.2-.4-.3-.2-.5-.3-.6-.4"/>
      <path class="st0" d="M83.9,65.7c-.3,0-.6.2-.6.4,0,.5-.2.8-.8,1-.2.1-.1.4-.1.4,0,.2.3.5.5.5h.2c.2-.4.6-.5,1-.5.1,0,.3,0,.5,0,.2,0,.4-.1.5-.3.1-.3,0-.7-.3-1-.2-.2-.5-.4-.8-.4"/>
      <path class="st0" d="M42.5,73.8c0,.3-.2.5-.6.6h.1c.2,0,.3.1.4.1.4,0,.8-.2,1.1-.4.4-.2.7-.5,1.3-.5.3,0,.6,0,1,.2.4.2.6.4.6.6,0,.2,0,.3-.2.5h0s0,0,0,0c0,0,.2,0,.3,0,.6,0,1.1-.4,1.4-1.1.3-.5.6-.6,1.3-.9.3-.3.4-.5.4-1,0-.2,0-.3-.1-.4,0,0-.1,0-.2,0-1.1.6-2.3.9-3.7,1-2.2,0-4.6-.7-7.4-1.9-.9-.4-.9-1.1-.8-1.7l1-2.9c.4-.9,1.2-1.4,2.2-1.4,1.5,0,3.7.9,6.6,2.9h.1c0,0,0,0,0,0,0-.2,0-.5-.1-.7l-1.1-.9c-.3-.3-.5-.7-.4-.9,0-1-.5-1.2-.9-1.4h-.1s0,0,0,.1v.8c-.2.3-.4.3-.5.3h-.3c-1.6-.2-2.2-.9-2.7-1.5-.4-.5-.6-.8-1.2-.8-.1,0-.2,0-.3,0h0s.3.3.3.3c.2.2.3.4.2.6,0,.2-.3.4-.6.5-.2,0-.4,0-.6.1-.1,0-.3.1-.4.1-.3,0-.5-.1-.7-.2h0c-.2-.2-.5-.3-.8-.3-.1,0-.3,0-.4,0h0s0,0,0,0c.7.4.9,1,.6,1.8l-1.2,3.5c-.1.8-.2,1.6.7,2.4.8.3,1.2.6,1.2.9,0,.3-.2.5-.6.7h0c.2.1.5.2.7.2.3,0,.6-.1,1-.4.3-.2.6-.3.9-.3s.4,0,.6,0c1.3.4,1.9.7,2,1.1"/>
      <path class="st0" d="M36,66.4c0,0,.2,0,.2-.1,0,0,0-.2,0-.3-.4-.7-1-1.3-1.7-1.7h-.2c0,0-.2,0-.2,0,0,0,0,.2,0,.3.6.4,1.1.9,1.7,1.7h.1Z"/>
      <path class="st0" d="M24.7,66.4c0,.8,0,1.6-.8,1.7h0s0,0,0,0c.4.2.7.3.9.3.2,0,.5,0,.7-.2.1-.1.2-.2.4-.2,0,0,.2,0,.3,0l2.3,1.1c.3.1.5.3.5.5,0,.2-.1.4-.4.6.2,0,.5.1.7.1.4,0,.7-.1,1-.4.1-.1.3-.2.5-.2,0,0,.2,0,.2,0,.4,0,.8,0,1.2,0,1.1,0,2-.1,2.8-.4.3-.2.4-.6.3-.8,0-.1-.1-.2-.3-.2h-.2c-.9.3-1.8.4-2.6.5-1.9,0-3.8-.6-6-2-.4-.2-.6-.7-.5-1.5.4-1.2.9-2.2,1.4-2.9.1-.2.3-.3.6-.3h0c.2,0,.5,0,.7,0,.7,0,.8-.3.8-.6,0,0,0,0,0,0h0s-.2,0-.2,0c-.6,0-1-.4-1.4-.7-.3-.2-.5-.5-.8-.5h-.1c.2.2.3.4.3.6s-.1.5-.4.7c-1.2,1.1-1.8,2.6-2,4.4"/>
      <path class="st0" d="M30.8,64.4h0c-.3-.9-.3-1.7,0-2.4.2-.2.5-.4.8-.4.3,0,.6.1.8.4.3.3.3.8.1,1.4-.2.9-.6,1.3-1.1,1.3-.2,0-.5,0-.7-.3M33.5,63.7c.2-.8,0-1.5-.4-2-.4-.4-.9-.7-1.5-.7-.5,0-.9.2-1.1.4-.4.4-.6,1.1-.5,1.9,0,.9.4,1.8,1,2.2.3,0,.5.1.7.1.8,0,1.5-.7,1.9-2"/>
      <path class="st0" d="M34.2,61.2c.4,0,.7-.2,1-.5.1-.2,0-.4-.1-.6l-.6-.4h-.2c-.1,0-.2,0-.3.2-.2.2-.3.5-.3.8,0,.3.2.4.4.4h0Z"/>
      <path class="st0" d="M33.3,59.1l-.7-.2h-.2s-.1,0-.1,0c0,0,0,.1,0,.3v.9c.2.2.3.3.4.3s.3,0,.4-.2c.2-.2.3-.3.4-.5,0-.2.1-.3,0-.4,0,0-.1-.1-.3-.2"/>
      <path class="st0" d="M31.3,58.9c-.3,0-.5,0-.7,0-.1,0-.2,0-.2,0,0,0,0,.2,0,.5.1.4.5.9.8.9.1,0,.2-.1.4-.3,0-.1,0-.2,0-.4v-.4c0-.3,0-.4-.2-.4h-.2Z"/>
      <path class="st0" d="M21.5,65c0,0,.2,0,.3,0,.7.2,1.2.3,1.6.3.2,0,.4,0,.6,0,.2,0,.2-.2.2-.3,0-.2-.2-.2-.3-.2-2.9-.5-5.1-1.9-6.5-4.3-.3-.6-.3-1.2,0-1.8.6-.8,1.3-1.4,2.3-1.9.3-.2.6-.3.9-.3.3,0,.7.1,1,.4,1.9,1.7,2.7,3.5,3.2,5.1,0,.3.2.5.3.5.1,0,.3-.1.4-.4l-.2-1c0-.4,0-.6,0-.8.7-.9.7-1.6.1-2.1h0c-.2.6-.5.9-.8.9-.2,0-.5-.2-.7-.6-.7-1.1-1.4-1.8-2.2-2.3-.4-.2-.5-.5-.4-.7-.2-1-.5-1.1-1-1.2h0s0,0,0,0c.2.8,0,1.3-1,1.6-1.5.6-2.6,1.5-3.3,2.9-.1.4-.4.5-.6.5-.2,0-.4-.1-.7-.3h0s0,.1,0,.1c0,.7.3,1.2.9,1.3.4,0,.6.2.7.5.2.4.5.8.8,1.1.2.2.3.4.3.5,0,.2-.3.3-.8.4h0c.3.4.7.5,1.4.5h.2c.2,0,.4,0,.5.2l1,.6c.3.1.4.3.4.5s-.2.4-.6.6h0s0,0,0,0c.3.2.5.3.8.3s.6-.2.8-.4c0-.2.2-.2.4-.2"/>
      <path class="st0" d="M16.1,52.5c.2,0,.8,0,1.1,1,.3.8.4,1.4.2,1.7-.1.2-.3.3-.6.3h-.1s0,0,0,0c-.7-.3-1.2-.9-1.4-1.9,0-.6.4-1,.9-1M14.8,52.8c-.2.5-.2,1.1.1,1.7.4.8,1.2,1.4,2.1,1.7h.2c.5,0,.8-.2,1.1-.7.4-.7.2-1.8-.3-2.6-.5-.7-1.1-1.1-1.8-1.1-.6,0-1.1.4-1.4,1"/>
      <path class="st0" d="M16.5,51.2c.1,0,.3-.1.5-.3.1-.3.2-.6.2-.9,0-.3,0-.3-.2-.4-.2,0-.4-.1-.5,0-.1,0-.3,0-.4,0-.2,0-.2.2-.2.5,0,.6.3,1.1.7,1.1"/>
      <path class="st0" d="M15.3,51.4c.2-.2.2-.7,0-1.3,0,0,0-.2,0-.2,0,0-.2,0-.3,0-.4,0-.8.2-.9.5,0,.1,0,.2,0,.4.4.6.7.8.9.8,0,0,.2,0,.2-.1"/>
      <path class="st0" d="M13.5,50.9c-.3,0-.7.4-.8.8,0,.1,0,.2,0,.2.3.3.7.5,1,.5.2,0,.3,0,.4-.2.1-.3-.1-.7-.6-1.2h-.2Z"/>
      <path class="st0" d="M13.2,48.6c.4.1.5.4.5.6,0,.2.2.3.4.3.2,0,.3,0,.4-.2,0-.2,0-.4-.1-.6-.1-.2-.1-.4,0-.7,0-.3,0-.6-.1-.7-.2-.2-.4-.2-.6-.2-.5,0-1,.3-1.1.6,0,.4.3.7.6.9"/>
      <path class="st0" d="M34.4,73.2c-.1.1-.3.2-.5.2-.3,0-.6-.2-.8-.4-.2-.3,0-.7.2-1,.1-.1.3-.2.5-.2.3,0,.6.2.8.5.1.3,0,.7-.2,1M35.4,73.2c.2-.6.1-1.2-.4-1.7-.3-.4-.7-.6-1.2-.5-.6,0-1.1.3-1.3.8-.3.5-.2,1.2.3,1.8.4.4.8.6,1.2.6.6,0,1.2-.4,1.4-1"/>
      <path class="st0" d="M27,78.8c-.1.1-.3.2-.5.2-.3,0-.6-.2-.8-.4-.2-.3-.1-.7.2-1,.1-.1.3-.2.5-.2.3,0,.6.2.8.5.2.3,0,.7-.2,1M26.4,76.6c-.6,0-1.1.3-1.3.8-.3.5-.2,1.2.2,1.8.3.4.8.6,1.2.6h0c.6,0,1.1-.4,1.4-1,.2-.6.1-1.2-.3-1.7-.3-.4-.7-.6-1.2-.5"/>
      <path class="st0" d="M67.7,85.2c-.2.1-.3.2-.6.2-.3,0-.7-.2-.8-.5-.1-.2-.2-.6.2-1.1.1-.1.3-.2.5-.2.4,0,.7.2.9.6.1.3,0,.7-.2,1M67,82.9c-.6,0-1.2.3-1.4.8-.3.6-.2,1.2.3,1.9.4.4.9.7,1.4.6.7,0,1.3-.4,1.5-1,.2-.6,0-1.2-.4-1.8-.3-.4-.8-.6-1.3-.6"/>
      <path class="st0" d="M38.8,77.7c-1.5-.9-2.7-2-3.2-2.9-.1-.2-.2-.3-.4-.3,0,0-.2,0-.2.1,0,.1-.1.3,0,.5.7,1.3,2.1,2.7,3.8,3.1.1,0,.2,0,.3-.1,0,0,0-.2-.2-.4"/>
      <path class="st0" d="M38.6,83.9c-.9-.3-2.3-.5-3.1-.5-.2,0-.2.1-.2.2,0,0,0,.2.3.3,1,.2,2.4.7,3.2,1.1h.1s0,0,0-.2v-.7c0-.2,0-.2-.3-.3"/>
      <path class="st0" d="M33,82.3c-.7,0-1.4.4-2.2,1,0,.1-.1.3,0,.3,0,0,.1,0,.3,0,.2,0,.4,0,.6-.2.5-.4,1-.6,1.5-.7h.2c.5,0,.6.3.6.5,0,.2-.2.5-.4.5,0,0-.2,0-.3-.1,0,0-.2-.1-.3-.1,0,0-.2,0-.2,0-.5.2-.8.3-1,.5h-.1c0,.1-.2.1-.2.2,0,0-.1,0-.1,0,0,0,0,0,.1.1.6.2,1.2.3,1.6.3.7,0,1.2-.3,1.4-.7.2-.4.2-.8,0-1.2-.3-.5-.8-.7-1.4-.7"/>
      <path class="st0" d="M21.1,70c-.1,0-.3,0-.3.2,0,.2.4.5,1,.6.9,0,1.6.2,2.1.7.4.3.3.6.3.7,0,.2-.3.3-.5.3-.2,0-.4-.1-.4-.3,0-.2-.1-.3-.5-.5-.6-.2-1-.3-1.3-.3-.2,0-.3,0-.5,0h0s-.1,0-.1,0c0,0,0,0,0,.2,1.3,1.6,2.2,1.8,2.7,1.8.4,0,.8-.2,1-.6.2-.4.2-.9,0-1.4-.5-.8-1.7-1.3-3.4-1.3"/>
      <path class="st0" d="M72.9,79.1c-.9-.4-1.7-.6-2.4-.5-.7,0-1.2.2-1.6.5-.3.3-.5.7-.5,1.1,0,.7.6,1.4,1.7,1.4.8,0,1.6-.3,2.6-.9.1-.1.1-.2.1-.2,0,0,0,0-.2-.1-.2,0-.3,0-.5-.1-.3,0-.7-.2-1.5-.2-.4,0-.5,0-.6.3,0,.1-.2.2-.3.2-.3,0-.5-.2-.6-.5,0,0,0-.4.5-.7.2,0,.5-.1.8-.1.5,0,1,0,1.5.3.2,0,.4,0,.5,0,.5,0,.7-.2.7-.2,0,0,0-.2-.2-.3"/>
      <path class="st0" d="M64.3,80.7c1.3,0,2.2-.2,3-.7.1,0,.3-.2.2-.4,0-.2-.3-.3-.5-.3,0,0-.2,0-.3,0-1.1.3-2.1.4-3.1.4-.6,0-1.3,0-2,0-.3,0-.4.2-.5.3,0,.2.2.4.6.4,1,0,1.8.1,2.5.1"/>
      <path class="st0" d="M64.5,83c-.2-.2-.2-.3-.1-.4,0-.2.2-.3.5-.4l2.8-.8c.2,0,.2-.2.2-.3,0-.1-.1-.4-.6-.3h0c-2.6.4-4,1-4.1,1.7,0,.4.3.9,1.1,1.4.1,0,.2,0,.4,0,.2,0,.4,0,.4-.2,0-.1,0-.2-.1-.4l-.3-.4Z"/>
      <path class="st0" d="M64.2,84.6l-2.5.6c-.2,0-.2.3-.1.4,0,.2.2.4.5.4h.1s2.4-.6,2.4-.6c.2,0,.2-.3.2-.4,0-.2-.2-.4-.5-.4"/>
      <path class="st0" d="M36.1,81c-.4-1.3-3.2-2.5-7-3-.2,0-.4.1-.4.3,0,.1,0,.3.4.4,3,.6,4.7,1.3,5.8,2,.3.2.4.4.4.6,0,.2-.1.3-.3.4-.1.1-.2.2-.2.4,0,.4.1.4.4.4,0,0,.2,0,.4,0,.6-.5.7-1.1.6-1.6"/>
      <path class="st0" d="M29.4,76.8c.1-.5-.6-1.9-3.8-3.4h-.2c0,0-.1,0-.2,0,0,0,0,.2.1.4.2.1.4.3.6.4.1,0,.2.1.3.2.7.5,1.4.9,1.9,1.5.2.1.2.3.2.4,0,.1,0,.2-.2.3-.1.2,0,.2,0,.3.3.2.5.2.7.2.3,0,.4-.1.5-.3"/>
      <path class="st0" d="M30,74.8c.5.2.9.4,1.3.6.7.3,1.3.6,1.7.7h.2c.5,0,.8-.2.9-.5,0-.3,0-.5-.4-.7-.2,0-.2-.1-.3-.1h0c0,.2-.2.4-.5.5-.1,0-.3,0-.4,0-1.9-.7-3.9-1.7-6.3-3.1-.1,0-.2,0-.3,0-.1,0-.2,0-.2.1v.3c1.7,1.2,3.1,1.9,4.3,2.5"/>
      <path class="st0" d="M6.6,42.3h0c.6.3.9.6,1,.9.1.3.1.7,0,1.3,0,.7-.1.9-.2.9,0,0-.1,0-.3,0l-2.5-.3v-.8c.1-.4.3-.6.3-.6,0,0,.3-.1.8-.1h0s0-.4,0-.4l-2.7-.3v.4s0,0,0,0c.5.1.7.2.8.3,0,0,.1.2,0,.6v.8c0,0-2.4-.3-2.4-.3-.2,0-.2,0-.2,0,0,0,0,0,0-.2v-1.2c.2-.6.4-.8.5-.9,0,0,.3-.2.9-.2h0s0-.4,0-.4l-1.7-.2-.6,4.7h.4s0,0,0,0c0-.4.2-.5.3-.5,0,0,.1,0,.3,0s.2,0,.4,0l4.8.6c.5,0,.6.2.7.2,0,0,.1.2.1.6h0c0,0,.4.1.4.1l.6-4.8-1.9-.7v.4Z"/>
      <path class="st0" d="M7.9,37.3c-.4-.1-.8-.1-1.2,0-.3.1-.8.4-1.3.7l-.8.6c-.3.2-.5.4-.7.4-.2,0-.4,0-.7,0-.3,0-.5-.2-.6-.4-.1-.2-.1-.4,0-.6,0-.3.3-.5.6-.7.3-.2.8-.3,1.5-.3h0s0-.4,0-.4l-2.5-.4v.3c0,0,0,0,0,0,0,0,.2,0,.2.1,0,0,0,0,0,.1,0,0,0,0-.3.4-.2.2-.3.5-.4.7-.1.5,0,.9.3,1.3.3.4.7.7,1.3.8.4.1.8,0,1.2,0,.2,0,.4-.2.7-.4l.7-.6c.4-.3.7-.5.9-.6.3-.1.6-.1.9,0,.4,0,.6.2.8.5.2.2.2.5.1.7-.1.5-.4.8-1,1-.3.1-.7.2-1.2.2h0s0,.4,0,.4l2.5.4v-.4c0,0,0,0,0,0h-.2c0-.1,0-.2,0-.2,0,0,0,0,.3-.4.2-.3.3-.5.4-.8.1-.5,0-1-.2-1.5-.3-.4-.7-.7-1.3-.9"/>
      <path class="st0" d="M10.9,33.6c-.2.4-.3.5-.4.5,0,0-.4,0-.7-.1l-5.1-1.9v-.4c.3-.4.5-.7.7-.8.2,0,.6,0,1.1,0h0s.1-.3.1-.3l-1.9-.7-1.8,4.7,1.9.8v-.4c.1,0,0,0,0,0-.5-.3-.8-.5-.9-.7,0-.2,0-.5.1-.9v-.4c.1,0,5.1,1.9,5.1,1.9.5.2.7.3.7.4,0,0,0,.2,0,.6h0c0,0,.4.2.4.2l1-2.5h-.4c0-.1,0,0,0,0Z"/>
      <path class="st0" d="M10.6,28.3l-.8,1.5-1.9-2,2.7.4ZM14,27.4c-.1.1-.2.2-.3.3,0,0-.3,0-.8,0l-6.5-1v.3c-.1,0,3.7,4.1,3.7,4.1.6.6.9,1,1,1.2,0,.2,0,.3,0,.5h0c0,0,.3.3.3.3l.9-1.7-.3-.2h0c-.1.3-.2.3-.2.4,0,0-.2,0-.3,0,0,0-.2-.1-.3-.2-.1-.1-.4-.4-.9-.9l1-1.9,1,.2c.2,0,.3,0,.4,0,.2,0,.2,0,.2,0,.1,0,.2.1.2.2s0,.1-.1.4h0c0,0,.3.3.3.3l1.1-2.1-.3-.2h0Z"/>
      <path class="st0" d="M15.9,23.7c0,.5-.2,1.1-.6,1.6-.1.2-.2.3-.3.3,0,0-.1,0-.3-.1l-4.4-3.2c-.2-.1-.2-.2-.2-.2,0,0,0-.1.1-.3.4-.6,1-1,1.6-1,.1,0,.2,0,.3,0,.6,0,1.4.3,2.1.8,1,.7,1.5,1.5,1.5,2.3M16.1,21.7c-.3-.4-.7-.8-1.1-1.1-1.2-.9-2.4-1.1-3.5-.7-.6.3-1.1.7-1.6,1.4l-1.4,2,.3.2h0c.2-.3.4-.4.5-.4,0,0,.3,0,.6.3l3.9,2.8c.4.3.5.4.5.5,0,0,0,.2-.2.6h0c0,0,.3.3.3.3l1.5-2c.4-.5.6-1,.7-1.5,0-.3,0-.6,0-.9,0-.5-.2-1-.5-1.4"/>
      <path class="st0" d="M19.9,20c-.3.3-.8.5-1.4.3-.6-.1-1.3-.6-2.1-1.3-.8-.8-1.3-1.5-1.4-2.1-.1-.6,0-1.1.3-1.4.3-.3.6-.4,1-.4s.2,0,.4,0c.6,0,1.3.6,2.1,1.4.8.8,1.3,1.5,1.4,2.1.1.6,0,1.1-.3,1.4M19.7,15.6c-.8-.8-1.7-1.3-2.6-1.3-.9,0-1.6.2-2.1.8-.6.6-.8,1.3-.7,2.1,0,.9.6,1.8,1.4,2.6.8.8,1.6,1.2,2.5,1.3.1,0,.3,0,.4,0,.7,0,1.3-.3,1.8-.8.6-.6.8-1.3.7-2.1,0-.9-.6-1.8-1.4-2.6"/>
      <path class="st0" d="M23.7,13.1c-.3-.1-.8-.2-1.4-.2h-1.1c-.3,0-.6,0-.8,0-.2,0-.4-.2-.6-.4-.2-.2-.2-.4-.2-.7,0-.2.1-.4.3-.5.2-.2.5-.3.9-.2.4,0,.8.3,1.4.7h0s.3-.2.3-.2l-1.7-1.8-.3.2h0c0,.2,0,.2,0,.3h0c0,.1,0,.2-.4.3-.3,0-.5.2-.7.3-.4.3-.6.7-.6,1.2,0,.5.2,1,.5,1.4.3.3.6.6,1,.7.2,0,.5,0,.8,0h1c.5,0,.8,0,1,0,.3,0,.6.2.8.5.2.3.3.6.3.8,0,.3-.1.5-.3.6-.4.3-.8.4-1.4.2-.3,0-.7-.3-1.1-.6h0s-.3.2-.3.2l1.8,1.8.3-.2h0c0,0,0-.3,0-.3h0c0-.1,0-.2.5-.3.3,0,.6-.2.8-.4.4-.3.7-.8.7-1.3,0-.5-.1-1-.5-1.5-.3-.3-.6-.6-.9-.7"/>
      <path class="st0" d="M31.7,5.6c-.3-.6-.3-.9-.3-1,0-.2.2-.3.4-.5h0s-.2-.4-.2-.4l-2,1,.2.3h0c.3-.1.5-.1.6,0,.1,0,.3.2.6.9l1.2,2.5c.3.6.5,1.1.5,1.4,0,.6-.2,1-.8,1.3-.5.3-1,.2-1.4-.2-.2-.2-.5-.6-.7-1.1l-1.5-3.1c-.2-.4-.2-.6-.2-.7,0,0,.1-.2.4-.4h0s-.2-.4-.2-.4l-2.4,1.2.2.3h0c.3-.1.5-.2.6-.1,0,0,.2.1.4.6l1.5,3c.3.6.6,1.1,1,1.4.4.3.8.5,1.2.5s.7,0,1.1-.3c.9-.4,1.3-1.1,1.3-2,0-.5-.2-1-.5-1.7l-1.2-2.5Z"/>
      <path class="st0" d="M38.2,2.3c0-.2.2-.3.5-.4h0s-.1-.4-.1-.4l-2.1.7v.4c.1,0,.2,0,.2,0,.3,0,.5,0,.6,0,.1,0,.3.3.5,1l1,3.1-4.5-3.7-1.6.5v.4c.1,0,.2,0,.2,0,.2,0,.3,0,.4,0,0,0,.2,0,.4.2h.1c0,.1,1.4,4.6,1.4,4.6.2.6.2.9.2,1,0,.1-.2.3-.5.4h0s.1.4.1.4l2.1-.7v-.4c-.1,0-.2,0-.2,0-.3,0-.5,0-.6,0-.1,0-.3-.3-.5-1l-1.2-3.7,5.2,4.3h.3c0,0-1.7-5.6-1.7-5.6-.2-.6-.2-.9-.2-1"/>
      <path class="st0" d="M43.6,7.6c-.1,0-.2,0-.3,0-.2,0-.3,0-.4,0,0,0-.2-.2-.3-.7l-.9-4.7c0-.4,0-.6,0-.7,0,0,.2-.2.6-.3h0s0-.4,0-.4l-2.7.5v.4c0,0,.2,0,.2,0,.3,0,.5,0,.6,0,0,0,.2.2.3.7l.9,4.7c.1.5,0,.7,0,.7,0,0-.2.2-.6.3h0s0,.4,0,.4l2.7-.5v-.4c0,0-.2,0-.2,0Z"/>
      <path class="st0" d="M45.9,7.1c-.1,0-.2,0-.2,0,0,0,0,0,0-.3l-.5-5.5c0-.2,0-.3,0-.3,0,0,.1,0,.3,0,.1,0,.2,0,.3,0,.6,0,1.1.2,1.6.5.6.5.9,1.3,1,2.4,0,1.2-.1,2.1-.7,2.6-.4.4-.9.6-1.6.6h-.2ZM47.7.7c-.6-.3-1.3-.4-2.1-.3l-2.4.2v.4s.1,0,.1,0c.4,0,.5,0,.6.1,0,0,.1.2.2.7l.4,4.8c0,.5,0,.6,0,.7,0,0-.2.2-.6.2h0s0,.4,0,.4l2.5-.2c.7,0,1.2-.2,1.6-.5.2-.1.5-.3.7-.6.3-.4.6-.8.7-1.3.1-.5.2-1,.1-1.6-.1-1.5-.7-2.5-1.8-3"/>
      <path class="st0" d="M55.1,3.9c0,1.1-.3,2-.7,2.4-.4.5-.8.7-1.3.7-.5,0-.9-.3-1.2-.8-.3-.5-.4-1.4-.4-2.5,0-1.1.3-1.9.7-2.4.3-.5.7-.7,1.2-.7h0c.5,0,.9.3,1.2.8.3.5.4,1.4.4,2.5M53.5,0c-.8,0-1.5.3-2.1.9-.6.7-1,1.6-1,2.8,0,1.1.2,2,.7,2.8.5.7,1.2,1.1,2,1.2h.1c.7,0,1.4-.3,1.9-.9.6-.7,1-1.6,1.1-2.8,0-1.2-.2-2.1-.7-2.9-.5-.7-1.2-1.1-2-1.1"/>
      <path class="st0" d="M61.2,1.1c0,0,0,.2-.1.2h0s0,0,0,0c0,0,0,0-.4-.2-.3-.2-.5-.3-.7-.3-.5,0-.9,0-1.3.3-.4.3-.6.8-.7,1.3,0,.4,0,.8.2,1.2.1.2.2.4.4.6l.6.7c.4.4.6.7.7.9.1.3.2.6.1.9,0,.4-.2.6-.4.8-.2.2-.4.2-.7.2-.5,0-.8-.4-1-.9-.1-.3-.2-.7-.3-1.2h0c0,0-.4-.1-.4-.1l-.2,2.5h.4c0,0,0,0,0,0v-.2c0,0,.2,0,.2,0,0,0,0,0,.4.3.3.2.6.3.8.3.1,0,.3,0,.4,0,.4,0,.8-.1,1.1-.4.4-.3.7-.8.8-1.4,0-.4,0-.8,0-1.2-.1-.3-.4-.7-.8-1.2l-.6-.7c-.2-.3-.4-.5-.5-.7,0-.2-.1-.4,0-.7,0-.3.2-.5.4-.6.2-.1.4-.2.6-.1.3,0,.5.2.8.5.2.3.4.8.4,1.5h0c0,0,.4.2.4.2l.2-2.5h-.3c0,0,0,0,0,0Z"/>
      <path class="st0" d="M71.6,12.1c-.3-.2-.4-.3-.4-.4,0,0,0-.2.2-.7l1.9-4.4c.2-.4.3-.5.4-.6,0,0,.3,0,.6,0h0s.1-.3.1-.3l-1.7-.8-3.8,4,.3-5.5-1.7-.8-.2.3h0c.3.2.5.4.5.4,0,0,0,.3-.2.7l-1.8,4c-.3.6-.4.8-.5.9-.1,0-.4,0-.7,0h0s-.1.3-.1.3l2,.9v-.3c.1,0,0,0,0,0-.3-.2-.4-.3-.4-.4,0-.1,0-.4.3-1.1l1.5-3.4-.4,5.8h.2c0,0,4.2-4.3,4.2-4.3l-1.7,3.9c-.2.5-.4.7-.4.7-.1,0-.3,0-.6,0h0s-.2.3-.2.3l2.4,1.1.2-.4h0Z"/>
      <path class="st0" d="M76.7,13.6h0c-.5.4-.9.6-1.2.6h0c-.3,0-.7-.2-1.2-.5-.6-.3-.7-.5-.8-.5,0,0,0-.2,0-.3l1.4-2.2.7.5c.3.2.4.4.4.5,0,.1,0,.3-.2.8h0c0,0,.3.3.3.3l1.4-2.3-.3-.2h0c-.3.4-.5.6-.6.6-.1,0-.3,0-.6-.2l-.7-.5,1.2-2c0-.1.1-.2.2-.2h.1c0,0,1,.7,1,.7.5.3.6.5.7.6,0,.1,0,.4-.2.9h0c0,0,.3.3.3.3l.9-1.5-4-2.6-.2.3h0c.3.3.4.4.4.5,0,0,0,.3-.3.6l-2.6,4c-.3.4-.4.5-.5.5-.1,0-.3,0-.6-.1h0s-.2.3-.2.3l4.1,2.6,1.4-1.5-.4-.2Z"/>
      <path class="st0" d="M80.9,19c-.1-.2-.2-.3-.2-.4,0,0,0-.3,0-.7l.6-3.3,2.2-.7c.5-.1.9-.2,1.1-.2.1,0,.3,0,.5.2h0c0,0,.3-.2.3-.2l-1.7-1.4-.3.3h0c.2.2.2.3.3.3,0,0,0,.1,0,.3h-.1c-.1.2-.3.2-.5.3l-1.5.5.3-1.6c0-.1,0-.2,0-.3,0-.1,0-.2.1-.3,0,0,.1-.1.2,0,0,0,.1,0,.4.3h0c0,0,.3-.2.3-.2l-2.1-1.8-.2.3h0c.2.2.3.4.3.7,0,.2,0,.8-.2,1.6l-.4,1.9-2.3.7c-.6.2-1,.3-1.2.3-.1,0-.3,0-.5-.1h0s-.2.2-.2.2l1.7,1.4.2-.3h0c-.2-.2-.2-.3-.3-.4,0-.1,0-.2,0-.3,0,0,0,0,.3-.2.1,0,.3-.1.6-.2l1.6-.5c-.2,1.1-.4,1.8-.4,2,0,.3-.2.5-.2.5h-.2c0,0-.2,0-.4-.2h0c0,0-.2.2-.2.2l2.1,1.8.2-.3h0Z"/>
      <path class="st0" d="M83.1,20.1l3.5-3.3c.3-.3.5-.4.6-.4,0,0,.2,0,.5.3h0c0,0,.3-.2.3-.2l-1.9-2-.3.3h0c.3.4.3.5.3.6,0,0,0,.3-.4.6l-3.5,3.3c-.4.3-.5.4-.6.4,0,0-.3,0-.6-.3h0c0,0-.3.2-.3.2l1.9,2,.3-.3h0c-.3-.4-.3-.6-.3-.6s0-.2.4-.6Z"/>
      <path class="st0" d="M87.3,25.3h0s.1-.4.1-.4h-.1c-.4,0-.7,0-1-.1-.4-.1-.8-.4-1-.7-.4-.5-.5-1-.3-1.6.2-.7.7-1.3,1.4-1.8.8-.6,1.6-1,2.2-1,.7,0,1.2.1,1.5.6.3.4.4,1,.2,1.5-.1.3-.3.7-.6,1h0c0,0,.2.4.2.4l2-1.7-.2-.3h0c0,0-.2,0-.2,0h-.2c0-.1,0-.2-.2-.6-.1-.3-.3-.6-.5-.9-.5-.7-1.3-1.1-2.2-1.1h0c-.9,0-1.8.4-2.6,1-.8.6-1.4,1.4-1.6,2.2-.3.9,0,1.8.5,2.5.4.5.9.8,1.5.9.3,0,.5,0,.8,0s.2,0,.3,0"/>
      <path class="st0" d="M92.5,25.7l-1.8,2-.9-1.5,2.6-.6ZM89.7,31.1c0-.2,0-.3,0-.4,0,0,.1-.2.5-.6l4.2-5-.2-.3-5.5,1.1c-.8.2-1.3.2-1.5.2-.2,0-.3,0-.5-.2h0c0,0-.3.1-.3.1l1,1.6.3-.2h0c0-.3-.1-.4-.1-.4,0-.1,0-.2.2-.3,0,0,.2,0,.3-.1.2,0,.6-.1,1.2-.3l1.1,1.8-.7.8c-.1.1-.2.2-.3.3-.1.1-.2.1-.2.2-.1,0-.2,0-.2,0,0,0-.1,0-.3-.3h0c0,0-.3.1-.3.1l1.2,2.1.3-.2h0Z"/>
      <path class="st0" d="M97.7,34c.2,0,.3.2.5.4h0c0,0,.3,0,.3,0l-.8-2.1h-.3c0,.1,0,.2,0,.2,0,.4,0,.5,0,.6,0,.1-.3.3-.9.6l-3,1.2,3.4-4.8-.6-1.5h-.4c0,.1,0,.2,0,.2,0,.1,0,.3,0,.4,0,0,0,.2-.2.4h0c0,.1-4.4,1.9-4.4,1.9-.5.2-.8.3-1,.3-.2,0-.3-.2-.5-.5h0c0,0-.4,0-.4,0l.8,2.1h.4c0-.1,0-.2,0-.2,0-.3,0-.5,0-.6,0-.1.3-.3.9-.6l3.6-1.4-3.9,5.5h0s.1.3.1.3l5.4-2.2c.5-.2.8-.3,1-.2"/>
      <path class="st0" d="M93.9,41c-.6-.2-.9-.6-1-1-.1-.5,0-.9.5-1.4.4-.5,1.2-.8,2.3-1.1.6-.1,1.1-.2,1.6-.2s.7,0,1,.1c.6.2.9.6,1,1,.1.5,0,.9-.4,1.4-.4.5-1.2.8-2.3,1.1-1.1.3-2,.3-2.5,0M95.4,42.3c.4,0,.8,0,1.3-.2,1.1-.3,2-.8,2.5-1.5.5-.7.7-1.4.5-2.2-.2-.8-.7-1.4-1.4-1.7-.8-.4-1.8-.5-3-.2-1.1.3-1.9.8-2.5,1.5-.6.7-.7,1.5-.5,2.3.2.8.7,1.3,1.4,1.7.5.2,1.1.4,1.7.4"/>
      <path class="st0" d="M101,45.9h0c-.1,0-.2,0-.2,0,0,0,0,0,0-.1,0,0,0,0,.1-.5,0-.3.1-.6.1-.8,0-.5-.3-.9-.7-1.1-.4-.3-.9-.4-1.5-.3-.4,0-.8.2-1.1.5-.2.2-.3.4-.5.6l-.5.8c-.3.4-.5.7-.6.9-.2.2-.5.3-.8.4-.4,0-.7,0-.9-.2-.2-.2-.3-.4-.4-.6,0-.5.1-.9.6-1.3.2-.2.6-.4,1.1-.6h0s0-.4,0-.4l-2.4.6v.4s.1,0,.1,0h.2s0,.1,0,.1c0,0,0,.1-.1.5,0,.3-.1.6,0,.9,0,.6.3,1,.8,1.3.4.3.8.4,1.2.4s.2,0,.3,0c.4,0,.8-.2,1.1-.4.3-.2.6-.6.9-1.1l.5-.8c.2-.3.4-.5.5-.7.2-.1.4-.2.6-.3.3,0,.5,0,.7.2.2.1.3.3.3.5,0,.3,0,.6-.3.9-.2.3-.7.6-1.3.8h0s0,.4,0,.4l2.4-.5v-.3Z"/>
      <path class="st0" d="M49.2,96.6c-.3,0-.6-.1-.6-.4-.3-.8-.3-1.8,0-3.1,0-.3.3-.5.6-.6.2,0,.6.1.7.5.1,1.2.2,2.1,0,2.9-.1.4-.5.6-.7.6"/>
      <path class="st0" d="M52.2,96.5c-.3,0-.7-.1-.7-.5v-2.5c0-.4,0-.7.2-.9.1-.1.3-.2.5-.2.4,0,.8.3.8.9v2.4c0,.2,0,.4-.2.5-.1.2-.3.3-.6.3"/>
      <path class="st0" d="M43.2,98.5c-.1,0-.2,0-.4,0-.3,0-.5-.3-.5-.6,0-.2.1-.4.4-.5.1,0,.2,0,.3,0,.3,0,.5,0,.7.2.1.2.1.4,0,.7,0,.1-.3.2-.5.2"/>
      <path class="st0" d="M57.9,98.7c-.2,0-.4,0-.5-.2,0-.1-.1-.3,0-.5.1-.3.3-.6.7-.6h.2c.3,0,.4.2.5.5,0,.3-.2.5-.5.7-.1,0-.3.1-.4.1"/>
      <path class="st0" d="M44.7,97.3c0,0-.2,0-.3,0l-.6-.5c0-.1,0-.2,0-.3.9-.9,2.1-1.4,3.4-1.6h0c.3,0,.4.2.4.4,0,.3,0,.6-.4.8-.9.2-1.5.4-2,.8-.2.2-.4.3-.6.3"/>
      <path class="st0" d="M56.5,97.5c0,0-.1,0-.2-.1-.7-.7-1.5-1-2.3-1.2-.1,0-.2,0-.2-.3,0-.6,0-.8,0-.8,1.4.1,2.5.6,3.6,1.6v.2c.1,0,0,.1,0,.1l-.7.5h-.2Z"/>
      <path class="st0" d="M54.2,102.6c-.1,0-.3,0-.4-.2-.8-.5-1.6-.9-2.7-1.3-.3-.2-.3-.5-.2-.6,0-.3.4-.7.8-.7h.2c.5.3,1,.5,1.5.7.6.2,1.1.4,1.5.8.1,0,.2.2.3.3,0,0,0,.2-.1.3l-.4.6c-.1.1-.3.2-.4.2"/>
      <path class="st0" d="M43.5,101.8h-.2c0-.1,0-.3,0-.5,0-1.5,1.5-2.4,2.9-3.4.5-.3,1-.6,1.4-1,.2-.1.3-.2.4-.2,0,0,.2,0,.2,0l.7.4c.1,0,.2.1.2.2,0,0,0,.2-.1.2-.5.4-1,.7-1.5,1-.9.5-1.8,1.1-2.3,2-.3.5-.8.8-1.6,1h0Z"/>
      <path class="st0" d="M47.5,102.5c0,0-.2,0-.3,0l-.6-.5c-.3-.3-.2-.6.2-1,.5-.6,1.2-1,1.9-1.5.7-.5,1.4-1,2-1.6.2-.3.5-.4.7-.5h.2c.2,0,.4,0,.5,0,.2,0,.5,0,.6,0,0,.1-.2.6-.3.8-.7,1-1.6,1.6-2.4,2.1-.8.5-1.6,1-2,1.9-.1.3-.2.3-.4.3"/>
      <path class="st0" d="M57.8,101.3c-.2,0-.3,0-.5,0-.3,0-.6-.2-.9-.5-.4-.3-.7-.6-1.2-.8-.3-.1-.6-.3-.9-.4-.4-.2-.8-.3-1.2-.5-.2-.1-.3-.2-.3-.4,0-.2.2-.6.4-.9.1-.1.2-.2.3-.2,0,0,.2,0,.3.1.4.3.9.5,1.4.7,1.1.5,2.3,1,3.3,2.4,0,0,0,.2,0,.2,0,0,0,.1-.2.2-.2,0-.4.1-.6.1"/>
      <path class="st0" d="M38,95.6c.7,0,1.1.1,1.3.4,0,.2,0,.4-.1.7-.2.3-.1.5,0,.6,0,0,.2.1.3.1.3,0,.8-.4,1-1.2,0-.3.3-.5.9-.6.4-.2.5-.5.4-.8,0-.2-.2-.4-.4-.4,0,0-.1,0-.2.1-.2.2-.5.4-.9.5-.1,0-.2,0-.3,0-.7,0-1.2-.2-1.5-.7l-.9-1.5c-.1-.2-.3-.3-.4-.3h0s0,0,0,0c0,.1,0,.3,0,.5l.5.9c0,.2,0,.3,0,.4,0,.1-.2.2-.4.2h0c-1.3.1-2.5-.5-3.5-2-.1-.2-.3-.3-.4-.3h0s-.1.1-.1.1c0,.1,0,.3.1.5l.5.7c.2.2.1.3.1.3,0,0-.1,0-.2.1-1.2,0-2.3-.4-3.5-1.3-.2-.1-.3-.1-.4-.1-.2.1-.2.2-.1.4l.2.4c0,0,0,.2,0,.3,0,0-.1,0-.3.1l-1.9.2c-.3,0-.5.1-.5.3s.3.3.7.3c2-.2,3.4,0,4.3.2,0,0,.2,0,.2.1,0,0,0,.2,0,.3l-.7.7c-.2.2-.3.3-.2.5,0,0,0,.1.3.1,0,0,.2,0,.3,0,1.1-.7,2-1.1,2.6-1.1.3,0,.5,0,.7,0,.2,0,.3.1.4.3,0,.2,0,.3,0,.5l-.4.8c0,.2,0,.4,0,.5h.2c.1,0,.2,0,.4-.2.6-.7,1.4-1.6,2.2-1.6h.1ZM37.7,99.5c-.3,0-.5,0-.5-.2,0-.1,0-.3,0-.4l.7-1.1c0-.2,0-.3,0-.4,0,0-.2-.1-.3-.1-.2,0-.5.2-.7.4-.9.9-1.8,1.5-2.9,1.5-.3,0-.5,0-.8,0-.3,0-.4-.2-.5-.4,0-.2,0-.3.2-.6l.9-1.1c0-.2.1-.4,0-.5h0s-.2,0-.2,0c0,0-.2,0-.3,0l-2.1,1c-.2.1-.5.2-.7.2-.4,0-.8-.1-1.1-.4-.1-.1-.2-.2-.2-.3v-.2c.5-.2.8-.5,1.1-.9.1-.2.1-.3.1-.4,0-.1-.2-.2-.5-.2-.8.1-1.4.2-2,.2-1.3.1-2.1,0-2.5-.2-.2-.2-.3-.4-.3-.5,0-.2.2-.5.7-.7l2.1-.8c.2,0,.3-.2.4-.3,0-.1,0-.3-.2-.4,0-.1-.1-.2-.1-.3,0-.1.1-.2.3-.3.3-.2.5-.3.8-.3.6,0,1.4.2,2.3,1,.2,0,.3.2.4.1.2-.2.2-.3.1-.5l-.3-.8c0-.2,0-.4,0-.5,0,0,.2-.1.4-.2,1.1,0,2.1.5,3.2,1.9.2.2.4.3.6.3h0s.1-.1.1-.1c0-.1,0-.4-.1-.6l-.4-.8c0-.2,0-.4,0-.5,0-.1.3-.2.6-.3.2,0,.3,0,.5,0,.8,0,1.2.2,1.4.7l1.1,1.8c.2.3.4.4.6.4.2,0,.4-.2.6-.5,0-.3.3-.4.4-.4.3,0,.9.3,1.7,1,.3.3.6.4,1,.4.2,0,.4,0,.6-.2.9-.4,1.8-.6,2.6-.7.4,0,.8,0,1.1,0,.3,0,.4.3.4.6,0,.3-.4.7-1.2.7-.1,0-.2,0-.3,0,0,0-.2,0-.4,0-.8,0-2,.9-3,1.5-.4.3-.7.3-.9.4-.2,0-.4,0-.5.2-.3,0-.7.5-1.1,1-.7.9-1.6,1.9-2.8,2.1"/>
      <path class="st0" d="M20.6,88.3c.5,0,.8,0,1,.3,0,0,0,.2,0,.3,0,.2,0,.6.4.6h1.6c.2-.1.3-.1.3-.2,0-.1,0-.2,0-.3-.3-.7-.5-.8-.8-.7h-.2c-.1,0-.3,0-.5,0-.7-.4-1-1.5-.9-3.5,0-.2,0-.4,0-.5h-.1c-.1,0-.2.1-.3.5l-.2,1c0,.4-.2.4-.3.4,0,0-.2,0-.3,0-.8-.4-1.3-1.2-1.6-2.4,0-.4.1-2.4-.6-1.2-.3.2-.7-.6-1-1.2,0-.2-.2-.3-.3-.3-.2.1-.2.3-.2.4,0,.3,0,.4-.2.6-.2,0-.3.2-.3.3,0,.1.1.2.4.2.7.1,1.3.9,1.8,2.2,0,.2,0,.2,0,.3h-1.9c-.1,0-.2,0-.3,0-.3,0-.3.1-.3.2,0,.2.3.4.5.4l2,.3c.6,0,1.1.3,1.6,1,.1.2.2.4.2.5,0,0,0,.1-.2.2-.9.3-1.6.5-2.2.6-.3,0-.4.1-.5.2,0,.1.1.2.5.4.2,0,.5.1.8,0,.4,0,.7-.1,1.1-.2.4,0,.7-.2,1.1-.2M27.2,91.7c-.1,0-.2,0-.4-.1-1.3-1-2.7-1.5-4.3-1.3-.6,0-1.2.2-1.8.4-.1,0-.2,0-.3-.2,0-.1,0-.3,0-.6,0-.4-.2-.5-.5-.5,0,0-.2,0-.3,0-.3,0-.6,0-.8.1-1.8.2-3-.3-3.7-1.5,0-.1,0-.3,0-.4,0,0,.2-.1.3-.1l2.5-.3c.3,0,.4-.1.4-.2,0-.1,0-.3-.4-.4-2.5-.4-4.1-1.2-4.5-2.2,0-.1-.1-.3,0-.4,0,0,.2-.1.4-.2l1.9.2c.3,0,.4,0,.5-.2,0-.1,0-.3-.4-.4l-1.9-1.1c-.2-.2-.3-.4-.2-.5,0-.2.3-.3.7-.3.3,0,.6,0,.8,0,.3,0,.5,0,.6-.2.2-.2.2-.6.2-1.2v-.6c0-.4,0-.7.2-.7.1,0,.4,0,1,.9.3.4.5.6.7.6.3,0,.4-.4.5-1.1,0-.3.2-.3.3-.3.1,0,.3,0,.4.2.8.4.8,2.4.7,4.3,0,.1,0,.3.1.4,0,0,.2.1.3.1.1,0,.3,0,.4-.6l.3-1.2c0-.3.2-.5.5-.5.2,0,.4,0,.7.3.7.7.9,1.7.9,4.3,0,.3,0,.4.1.5,0,0,.2.1.3,0,.2,0,.4-.2.6-.6,0-.2.2-.3.3-.3,0,0,.2.1.3.4.3,2.2,1.3,3.8,3,5,.2.2.2.4.2.5,0,.1-.1.2-.3.2"/>
      <path class="st0" d="M26.6,87.2c-.3,0-.5-.2-.5-.4,0-.2,0-.4.1-.5.2-.2.5-.3.8-.3.2,0,.5,0,.6.2.1.1.2.3.2.5-.2.3-.5.5-1.1.6h0Z"/>
      <path class="st0" d="M21.8,93.4c0,0-.2,0-.3,0-.4-.2-.5-.6-.5-.7,0-.3.1-.6.3-.7.2,0,.3-.1.5-.1.4,0,.7.3.8.9,0,.2,0,.3-.1.4-.1.1-.3.2-.6.2"/>
      <path class="st0" d="M28.3,90.8c-.2,0-.5-.2-.9-.8-.3-.5-.7-.8-1.1-.9-.3-.1-.5-.4-.4-.7,0-.3.2-.4.5-.5h.2c.3,0,.7-.1,1.1-.3.1,0,.3,0,.4-.1.3,0,.5.2.6.3,0,.2,0,.5-.2.6-.4.3-.5.6-.4,1.1.3.7.3,1.1.3,1.3h0Z"/>
      <path class="st0" d="M23.6,93.7c-.3,0-.4-.1-.5-.4,0-.5,0-.9-.2-1.2-.2-.3-.2-.6,0-.9,0-.2.2-.3.4-.3.2,0,.4,0,.5.1.3.3.8.5,1.3.5.5,0,.9,0,1.1.3.2.2.2.3.2.3-.2,0-.3,0-.4,0h0c-.5,0-1.2.2-1.5.9-.2.3-.5.5-.7.6"/>
      <path class="st0" d="M8.9,75.7c-.2,0-.3.1-.3.2,0,.1.1.3.3.3.8,0,1.4,0,1.8.3.1.1.2.2.3.2h0s.1-.1.1-.1c0-.1,0-.3,0-.4-.3-.4-.2-.9.4-1.7.1-.2.2-.3.1-.4h0s-.2-.1-.2-.1c0,0-.1,0-.2,0-.1,0-.3,0-.4,0-.3,0-.6,0-.7-.3-.3-.4-.3-1,0-1.8.3-.9.6-1.8.9-2.7,0-.2,0-.4,0-.5h-.1c-.2,0-.3.2-.3.3-.2.5-.4,1-.6,1.4-.3.7-.5,1.2-.7,1.2-.3,0-.8-.7-1.1-1.2-.5-.6-.4-1.3,0-2.2,0-.2,0-.4,0-.4h-.2c-.1,0-.2,0-.3.2-.2.4-.4.6-.5.6-.2,0-.5-.3-.8-.7,0,0-.2-.1-.3-.1-.1,0-.3.1-.3.2,0,.2,0,.4,0,.5h.1c.3.5.9,1,.8,1.1h-.1c-.3,0-.5,0-.9,0h-.2c-.2,0-.2.1-.3.2,0,.1,0,.3.4.3,1.7.2,3,1.5,2.9,2.3,0,.3-.2.4-.6.4-.3,0-.7,0-1.2-.2h-.2c-.2,0-.3,0-.3.2,0,.1,0,.3.4.3,1.8.1,3.1,1.2,3.1,1.8,0,.4-.5.6-.8.6h0ZM14.8,80.6c-.1,0-.2,0-.3,0-1-.5-2-1.2-2.9-2.2-.5-.8-1.1-1.3-1.9-1.4-1.5-.2-2.6-.7-3.1-1.5-.1-.2-.1-.3,0-.3,0,0,.1-.1.3-.1h.8c.3,0,.4-.2.4-.2,0-.2-.2-.4-.5-.5-2.3-.4-3.5-1.1-3.6-2.1,0-.2,0-.4,0-.5,0,0,.2-.1.4-.2.1,0,.3,0,.5,0,0,0,.2,0,.2,0,0,0,.3,0,.3-.2,0,0,0-.2-.5-.4-.8-.2-1.5-.8-1.9-1.3-.1-.2-.2-.5,0-.7,0-.1.2-.2.4-.3.1,0,.2,0,.4,0,.2,0,.4.1.5.1.2,0,.3-.1.3-.2,0-.2,0-.5-.4-.8-.1-.2-.1-.4,0-.5,0-.1.3-.2.5-.2.2,0,.3,0,.5,0,.3,0,.6-.2.9-.5.1,0,.2-.1.3-.1.2,0,.4.1.6.4,0,.4.4.7.7.7.1,0,.3-.1.5-.6.1-.5.3-.8.6-.9.1,0,.2,0,.4.1.5.3.5,1.2,0,2.6,0,.2,0,.4,0,.5h0s.2,0,.2,0c.2,0,.5-.3.7-.8.1-1.1.5-1.6,1-1.7.1,0,.2,0,.4,0,.4,0,.6.2.8.5.4.6.3,1.9-.3,3.6,0,.3,0,.5,0,.7,0,0,.2.1.3.1.1,0,.3,0,.5-.3.2-.3.4-.4.6-.4.1,0,.2,0,.3.1.2.2.2.7,0,1.5-1.4,2.9-.9,5.2,1.7,6.7.2.2.3.4.2.6,0,.1-.1.2-.3.2"/>
      <path class="st0" d="M14.2,79c-.1,0-.3-.1-.3-.3-.1-1.3-.3-2-.7-2.3-.2-.3-.2-.6,0-.8,0-.1.2-.2.4-.2,0,0,.2,0,.3,0,.5.2,1.1.3,1.6.4.3,0,.5.2.5.5,0,.2,0,.4-.2.5-.7.2-1.1.5-1.1,1.6,0,.5-.2.8-.4.8"/>
      <path class="st0" d="M15.2,74.9c-.1,0-.2,0-.4,0-.4,0-.6-.3-.7-.6,0-.3.2-.6.5-.7.1,0,.3,0,.4,0,.3,0,.5,0,.6.2.1.1.2.4.2.7,0,.3-.3.4-.7.4"/>
      <path class="st0" d="M8.8,80.4c-.4,0-.6-.2-.7-.4-.1-.3-.1-.7,0-1,.1-.2.3-.3.6-.3.3,0,.6.1.7.6,0,.3,0,.6,0,.8,0,.2-.3.3-.6.3"/>
      <path class="st0" d="M10.3,81.3c-.2,0-.4,0-.5-.2,0,0,0-.2,0-.4.2-.7.3-1.2.2-1.6,0-.5.3-.7.6-.7.2,0,.5.1.6.3.2.5.6.8,1,1,.8.4,1,.8,1,.9,0,0-.1.1-.3.1,0,0-.2,0-.3,0-.4-.2-.7-.3-1-.3-.2,0-.4.1-.6.3-.2.2-.4.4-.7.4"/>
      <path class="st0" d="M2.2,55.5c0,0,0,.2.1.5.6.9,1.2,2,1,2.6,0,.2-.2.3-.4.3-.1,0-.4,0-.4.2,0,.2,0,.3.1.4.1.2.3.2.6.3.4.2.7.3.5.9v.6c.4.3.7.5.9.4.2,0,.3-.1.3-.3,0-.2,0-.6-.4-.9-.2,0-.3-.2-.4-.3,0,0,0-.3.4-.6.8-.9.9-1.1.8-1.2h0c0,0-.1,0-.1,0,0,0-.2,0-.3.1-.1,0-.2,0-.3,0-.4,0-.5-.2-.6-.9,0-.9.1-1,.5-1.3.9-.6,1-.7,1-.9,0-.1-.2-.2-.6-.2-.1,0-.2,0-.3,0,0,0-.1,0-.2,0,0,0,0-.2,0-.4,0-.7.4-1.3,1-1.9.2-.2.3-.4.2-.6,0-.1-.3-.1-.4-.1-.5,0-.9.2-1.1.5-.2.2-.3.6-.2,1l-.2,1.5c0,.2-.1.5-.3.5,0,0-.2,0-.3-.1-.5-.5-.7-.5-.8-.5h0s0,0,0,0ZM6.1,66.2h-.2c-.5-.3-.7-.8-.8-1.3-.4-2-.8-2.5-1.5-2.8-.9-.4-1-.8-1-1.1,0-.8-.3-1.1-.7-1.2-1-.3-1.5-.8-1.7-1.4-.2-.7-.1-.9,0-1.1,0,0,.1-.1.2-.1.2,0,.5,0,1,.3,0,0,.2,0,.2,0,.1,0,.2,0,.2-.2,0-.1,0-.4,0-.7l-.7-1.2c-.3-.6-.2-1.2.2-1.7.4-.5.6-.6.7-.6,0,0,.1,0,.2.1.5.7.7.8.8.8.3,0,.3-.5.3-.7,0-1.2.3-2.6,1.1-2.7.1,0,.3,0,.4,0,.2.2.4.2.7.2.4,0,.7-.3,1.2-.7.2-.1.3-.2.4-.2.1,0,.3,0,.4.5.2.9,0,1.7-.8,2.4-.2.4-.3.6-.2.7,0,0,0,.1.2,0,.2,0,.5-.2,1-.5.1,0,.2-.1.3-.2.2,0,.3.2.3.5.2,1-.6,1.9-2.4,2.8-.3.1-.4.3-.4.5,0,.2.2.3.4.3.1,0,.2,0,.3-.1.4-.3.7-.4,1-.5.3,0,.5,0,.6.3,0,.3,0,.8-.7,1.5-.4.6-.6.9-1,1.1-.2,0-.3.2-.4.3,0,.1,0,.3.1.4.2.2.2.5,0,.9-.7.6-.6,1.9.2,4,.3.4.3.6.2.8,0,0-.1.2-.2.2"/>
      <path class="st0" d="M8.9,61.6c-.2,0-.4,0-.7-.2-.3-.2-.3-.5-.2-.7,0-.2.3-.5.6-.5.5,0,.8.1.9.3.1.2,0,.4,0,.7-.2.1-.4.2-.6.2"/>
      <path class="st0" d="M.9,63.9c-.2,0-.3,0-.5-.1-.2-.2-.3-.5-.2-.8,0-.3.3-.6.5-.6,0,0,.2,0,.3,0,.2,0,.4,0,.5.2.1.2.2.5,0,.9-.2.3-.4.5-.6.5"/>
      <path class="st0" d="M4.4,65.7c0,0-.2,0-.2,0-.5-.5-.9-.7-1.4-.7-.2,0-.3,0-.4.2-.1,0-.3,0-.4.1-.2,0-.4,0-.5-.2-.1-.1-.1-.3,0-.6.3-.5.6-1,.8-1.5.1-.2.3-.3.5-.4.4,0,.7.3.7.6l.2.7.9,1.1c.1.2.2.4,0,.6h-.1Z"/>
      <path class="st0" d="M7.1,65.1s-.1,0-.3-.3c-.1-.3,0-.7,0-1.1,0-.4.1-.9-.1-1.2-.1-.2,0-.5,0-.7.1-.2.3-.3.4-.3h.2c.4.3.9.5,1.4.7.3,0,.6.4.5.7,0,.3-.3.4-.7.5-.6,0-.9.5-1.2,1.3-.2.3-.3.4-.3.4"/>
      <path class="st0" d="M74.5,88.6c-.2,0-.5,0-.6-.2-.1-.1-.1-.3,0-.5.1-.3,0-.7-.4-1-.3-.4-.4-.9-.2-1.2.2-.4.6-.6,1.1-.7.4,0,.8.1,1,.4.2.3.2.8,0,1.4-.3.3-.4.6-.2,1,0,.2,0,.4,0,.6-.1.2-.3.3-.5.3"/>
      <path class="st0" d="M87.3,77.2c-.2,0-.4,0-.5-.4,0-.4-.3-.6-.9-.6-.6-.2-.9-.6-.8-1.1.1-.6.7-1.1,1.3-1.2.6,0,1,.4,1.1,1.2-.1.4,0,.7.3.9.2.2.3.4.2.7,0,.3-.4.5-.7.5"/>
      <path class="st0" d="M94.1,62.4c-.2,0-.4,0-.5-.3-.1-.3-.4-.4-.7-.4,0,0-.2,0-.2,0-.9-.2-1-.7-1-1,0-.6.6-1.3,1.2-1.3.4,0,.8.3,1.1.9v.2c0,.3.2.5.5.7.4.2.4.5.4.7,0,.3-.4.6-.6.6"/>
      <path class="st0" d="M77.6,93.5c-.4,0-.8-.2-1.1-.8,0-.4-.2-.7-.6-.7-.3,0-.5-.3-.5-.6,0-.3.4-.7.7-.7.2,0,.3,0,.5.2.1.2.4.3.7.3.1,0,.3,0,.4,0,.7,0,1.2.3,1.2.9,0,.6-.6,1.5-1.2,1.5"/>
      <path class="st0" d="M92.1,79.9c-.3,0-.6,0-.9-.2-.2-.3-.4-.4-.7-.4h-.2c0,0-.2,0-.2,0-.2,0-.4,0-.5-.1-.1,0-.2-.2-.2-.4,0-.3.2-.7.7-.8h.2c0,0,.2,0,.3,0,.2,0,.4-.2.7-.4.2-.1.4-.2.6-.2.4,0,.7.2.8.4.3.4.3,1,0,1.4-.1.2-.3.5-.8.5"/>
      <path class="st0" d="M99.3,63.5c-.2,0-.4,0-.6,0-.1-.1-.4-.2-.7-.2-.2,0-.3,0-.4.1,0,0-.2,0-.2,0-.5,0-.7-.3-.7-.6,0-.2,0-.3.1-.5.1-.1.2-.2.4-.2h.2s.2,0,.2,0c.3,0,.5-.2.7-.6.3-.3.6-.4.8-.4.3,0,.6.1.7.4.3.4.3,1.1.1,1.5-.1.3-.4.4-.7.5"/>
      <path class="st0" d="M62.9,97.3c-.4,0-.7,0-1.1-.1-1.3-.4-2.4-1-3.3-1.7-1.8-.9-3.2-1.3-4.5-1.3-.4,0-.5-.4-.4-.6,0-.3.2-.6.5-.6,1.7.3,3.4.8,5.2,1.6.3.1.7.2,1,.2.4,0,.8-.2,1.2-.4l.7-.3c3.4-1.5,6.3-2.8,9.4-3,.4,0,.7,0,1.1,0,.3,0,.5,0,.5.1s-.1.2-.9.3c0,0-.2,0-.3,0-.6,0-1.2.2-1.9.6-.9.4-1.7.8-2.5,1.2-1.5.8-2.8,1.4-3.8,1.5-.1,0-.2,0-.3,0-1.1.1-1.7.4-1.7.8,0,.2.2.4.6.4.3,0,.6,0,.9,0,1.4-.1,2.6-.7,3.7-1.2,1.8-1.2,4-2.5,6.3-2.9h.3c0,0,.2,0,.3,0,0,0,0,.1-.3.5-1.5,1.6-4.2,2.8-6.5,3.7-.6.2-1.2.4-1.7.6-.9.4-1.6.7-2.4.7"/>
      <path class="st0" d="M65.8,99.2c-2.2.2-3.5-.3-4.1-1.4.5.1,1,.2,1.6.1,1.8-.1,3.8-1.1,5.5-1.9,1.4-.7,2.6-1.2,3.4-1.3.5,0,.7,0,.7.2,0,0,0,.2-.2.3l-5.9,2.4c-.4.1-.5.3-.5.5,0,.1.2.2.4.2,1.6-.4,2.8-1.1,4-1.7,1.1-.6,2.1-1.1,3-1.2.1,0,.3,0,.4,0,.2,0,.3,0,.3.1,0,0,0,.2-.3.3-2.3,1.3-4.8,2.4-7.7,3.3-.2,0-.4,0-.5,0"/>
      <path class="st0" d="M60.7,94.2c-.6,0-1.4-.2-1.6-.6h0c1.2-.1,2.1-.9,3.2-1.9.6-.5,1.2-1,1.9-1.5.3-.2.6-.3.9-.3.4,0,.8-.1,1.3-.4.9-.5,1.6-.8,2.2-.8.5,0,.9,0,1.3.3.3.2.3.3.3.3-.1,0-.2,0-.3,0-.2,0-.4,0-.6,0-.9,0-1.7.4-2.5,1.1l-2.2.6c-.6.2-1.2.5-1.2.8,0,0,0,.2.3.2h.2s1.1-.3,1.1-.3c.4,0,.7-.3,1.1-.5.4-.3.9-.5,1.5-.6.6-.1,1.1-.3,1.6-.5.3-.1.6-.2.9-.3h0c.3,0,.4.1.4.3,0,.2,0,.4-.3.5-.4.1-.9.2-1.3.3-.7.2-1.4.3-2.1.6-2.2.8-4.1,1.7-5.7,2.6-.2.1-.4.2-.7.2"/>
      <path class="st0" d="M74.8,90.5c-.3,0-.5-.1-.6-.3,0-.2,0-.4.2-.5.1-.4.6-.7,1.3-1.2,1.1-.8,2.6-1.8,3.9-3.6.9-1.4,2.5-2.7,4.4-4.1.8-.6,1.6-1.3,2.5-2,.3-.3.4-.4.4-.4,0,0,0,0,0,.3-.2,1.1-1.2,2.2-3,3.5-1.9,1.5-4,3.1-4.7,4.5-.2.3-.2.5-.2.6h0s.1,0,.1,0c.1,0,.3,0,.9-.5,1.3-1.6,2.6-2.8,3.9-3.6,1.5-1.1,2.6-2.3,3.2-3.6.1-.3.2-.3.2-.3,0,0,0,.1,0,.8,0,1.2-.8,2.5-2.3,3.9-2.1,2.1-3.9,3.5-5.6,4.2-2.1.5-3.4,1.2-4,2.1-.2.3-.4.4-.6.4"/>
      <path class="st0" d="M81.8,89.1c-.5,0-.9,0-1.4,0-.5,0-.9,0-1.4,0-.3,0-.4,0-.4-.1,0,0,0-.2.3-.3,4.3-1.4,6.7-3.9,8.5-6.5.2-.2.4-.3.5-.3h.2c0,.1,0,.2,0,.4-1.1,2.1-2.8,3.4-4.4,4.6l-.5.4c-.3.2-.5.5-.4.7,0,.1.1.2.3.2,0,0,.2,0,.3,0,2.2-1.5,4.1-3.4,5.5-5.6.1-.2.2-.2.2-.2,0,0,.1,0,.1.3.2.7-.3,1.5-1.4,2.6-1.5,1.7-2.7,2.8-3.9,3.5-.6.2-1.3.3-2.2.4"/>
      <path class="st0" d="M77,86.8c0,0-.2,0-.2,0,0,0,0-.2,0-.4.2-.4.3-1.3.5-2.4.3-1.1.8-1.9,1.7-2.6,1.7-1.5,3-2.7,4-3.9.1-.1.1-.1.1-.1,0,0,0,0,0,.4,0,.6-.6,1.1-1.4,2-.5.5-1.1,1-1.7,1.7l-1.5,1.7c-.1.3-.2.5-.1.6h0s.2,0,.2,0c.2,0,.4-.2.7-.5,1-1.3,1.9-2.6,3-3.4.3-.2.4-.3.4-.3,0,0,.1.1,0,.5-.1.6-.6,1.3-1.5,2-.9.6-1.7,1.6-2.6,3.1-.4.7-1,1.3-1.7,1.6"/>
      <path class="st0" d="M88.4,78.7c-.2,0-.3-.1-.3-.2,0-.2,0-.4,0-.6,1-1,1.7-2.6,2.1-5l.4-1c.8-2.2,2-5.2,3.5-7,.3-.3.4-.3.4-.3,0,0,0,0,0,.5-.5,1.7-1.2,3.2-1.9,4.7-.6,1.2-1.1,2.3-1.5,3.4,0,.3,0,.5,0,.6h0s.1,0,.1,0c.1,0,.2,0,.4-.3,1.1-1.4,1.7-3.5,2.4-5.4.5-1.4.9-2.8,1.5-4,.3-.4.4-.5.4-.5,0,0,.1,0,.1.7,0,2.4-1,5.3-2.8,8.7-.3.5-.8.8-1.2,1.2-.5.4-1,.8-1.2,1.3-.6,1.1-1,1.9-2,2.8-.2.2-.3.3-.5.3"/>
      <path class="st0" d="M89,74.6c0,0-.1,0-.3-.2-2.1-3.2,0-6.9,2.1-9.5.2-.2.4-.3.5-.3.1,0,.2.2,0,.4-.6.8-.8,1.2-1,2.2-.3,1.1-.6,1.7-.9,2.1-.2.2-.3.5-.5.8-.3.6-.4,1.1-.2,1.3h0s.1,0,.1,0c.2,0,.3-.2.4-.3.6-1.1,1.1-2.3,1.5-3.4.4-1.2.8-2.2,1.2-2.7.2-.2.3-.3.4-.3h.2c0,.2.1.3.1.5-.3,1.2-1.1,2.9-2.3,5.2-.5.7-.8,1.5-.9,2.6-.1.8-.3,1.6-.5,1.6"/>
      <path class="st0" d="M91.9,75.9h-.2c0,0,0-.2.2-.5,1.5-1.4,2.6-2.8,3.2-4.5.4-2.1,1.1-3.2,2.3-4,.3-.2.5-.2.6-.2,0,0,0,.1-.4.6-.7.9-1.1,1.9-1.5,3-.4,1-.8,2.1-1.5,2.9-.2.3-.3.5-.2.6h0s.1,0,.1,0c0,0,.2,0,.4-.1.5-.4,1-1.5,1.4-2.8.5-1.4,1.1-3,2-4,.3-.2.4-.2.4-.2s0,0-.1.6c-.3.8-.6,1.6-.9,2.4-.5,1.5-1,3.1-2,4.4-.4.4-.8.6-1.3.8-.3.1-.6.2-.9.3-.3.1-.6.2-.9.3-.3.2-.6.2-.8.3"/>
      <path class="st0" d="M95,59.2c0,0-.2,0-.3-.2-1.9-1.5-2.4-4-1.5-7.8,0-.2,0-.3.1-.4h.1c.6.8.5,1.2.3,2-.2.8-.5,2,.2,4.1.1.3.3.3.4.3h0s.1-.1.1-.1c0,0,0-.2,0-.4-.4-1.3-.5-2.3-.2-3.1,0-.4.1-.8,0-1,0-.2,0-.3,0-.3h0c0,0,.1,0,.3.1.3.3.5.8.3,2.4-.1.7-.1,1.5.1,2.4.3.7.3,1.2.1,1.7,0,.1-.1.2-.2.2"/>
      <path class="st0" d="M95.4,63.3c-.1,0-.3,0-.3-.1-.1-.1-.1-.3-.1-.5,0-.9.2-1.7.4-2.5.2-1,.4-1.9.4-3-.1-3.7.3-5.9,1.2-6.9.2-.2.3-.2.4-.2.1,0,.2.1.2.4.2.9,0,1.8-.6,2.8-.4,1.3-.5,2.5-.4,3.9,0,.1,0,.3.1.4,0,0,.2.1.3.1.2,0,.4-.2.4-.6-.2-1.5,0-2.8.4-3.9.4-.9.5-1.8.3-2.7,0-.3,0-.3,0-.3,0,0,0,0,.3.2.3.3.6.6.6,2,0,1.8-.2,3.3-.7,4.6-.4.7-.7,1.3-1.1,1.9-.4.7-.9,1.3-1.1,2.1-.2.4-.3.8-.2,1.8,0,.4-.2.5-.5.6"/>
      <path class="st0" d="M97,61h0c0,0,0-.2,0-.6l1.9-3.1c.4-.6.6-2.2.7-5.2,0-.3,0-.4,0-.4h0s.2,0,.2,0c.3.2.6.5.4,1.2l-.4,2.6-.3,1.7c0,.2,0,.3,0,.4h0s.1,0,.1,0c.1,0,.3-.2.3-.5,0-.8.1-1.5.5-2.3.4-1.3.2-2.5,0-3.4,0-.2,0-.2,0-.2,0,0,0,0,.3.3.7.8.9,1.6.6,2.3-.2.5-.3,1.1-.2,1.6,0,1-.2,1.8-.7,2.2l-2.7,2.6c-.4.3-.7.5-.9.5"/>
    </g>
    <g>
      <g>
        <path class="st0" d="M121.9,39.3c0-15.2,8-28.2,26.2-29.3.9,0,6.6-.3,13.2,2.2,3.3,1.4,5.9,3.5,7,6.2.2.6.4,1.1.5,1.7,0,.7.2,1.2.2,1.8.3,3.3-.3,4.5-2.5,4.7-.5,0-.9,0-1.3,0-3.2.1-3.4-.8-4.2-3.7-.5-1.8-1.5-3.2-2.8-4.3-.9-.7-1.9-1.3-2.9-1.7-6.4-2.6-15.9-.1-18.7,6.2-.7,1.6-1.6,3.2-2.1,4.9-.1.4-.2.7-.3,1.1,0,.1,0,.3,0,.4h0c-.4,1.9-.6,3.9-.6,6,0,13.2,7.3,23.5,18.9,23.5,8.5,0,13.5-5.5,15.7-10.3.6-1.1,1.2-2,2-2s1.4,1.4,1.4,2.6c0,2.3-.8,5.1-2.4,7.8-3.4,5.5-10.5,10.9-21,10.9-16.7,0-26.3-13.3-26.3-28.7Z"/>
        <path class="st0" d="M206.5,27c7.5-1,12.3-4.2,10.3,6.4-.3,3.4-.4,6.9-.4,10.4h0v2.6c0,2.2,0,4.3,0,6.5,0,.5,0,1,0,1.5v11.5c0,.9-.7,1.6-1.6,1.6h-6.7c-.9,0-1.6-.7-1.6-1.6v-2.3c-1.8-1-3.6,2.1-5.8,2.8-6.4,3.2-16.6,2.4-19.9-4.9-2.8-5.4-1.6-14-1.3-20.3.5-5.1.4-6.7-3.4-10.2-2.2-3.2,2.9-3.9,5.2-4.1,2.6-.2,5.6-1.6,7.9-.7,1.1.5,1.7,1.8,1.6,3-.2,2.8-1,6.2-1.4,12.1-.1,6.5-2.2,17.5,5.8,19.9,4.8,1.1,9.4-1.1,10.7-6.8.3-1.4.5-2.9.5-4.3v-6.2s0,0,0,0c0-2.9.1-5.8-.2-7.7-.2-2.3-2.2-3.6-3.4-5.3-1.3-2.4,1.1-3.3,3.6-3.7h0Z"/>
        <path class="st0" d="M224.6,62.8c.9-1.3,1.9-2.7,2.3-4.3.5-2.2.2-5.9.3-8.9,0-9.4,0-23.4,0-29.3,0-5.5-8.9-6.5.9-10.4,7.5-3.1,11.3-3.4,10.2,5.8-.1,3-.2,6.3-.2,9.1,0,6.1,0,23.7,0,30.5,0,1.7,0,3.1.7,4.7.5,1.8,4.1,4.5,2.7,6.6-2.6,2-6.4,1-9.5,1.2-3.7,0-11.7.5-7.6-4.9v-.2c.1,0,.1,0,.1,0Z"/>
        <path class="st0" d="M273.4,56.2c.5,0,1.1.4,1.1,1.7,0,.8-.3,1.8-.9,2.9-1.5,2.9-5.2,7-12.1,7-7.3,0-11.1-4.9-11.1-14.6,0-3.7.5-14.2.5-18.2,0-1.5-.4-2.3-1.6-2.4-3-.4-4.7-.6-4.7-2.2,0-1.2.4-2.3,1.8-2.9,2.4-1.1,4.9-2.5,6.7-4.4,3.1-3.5,3.3-7.8,5.6-7.8s2.2,1.1,2.2,3.2c0,1.6-.4,7.9-.4,8.2s0,.3.4.3c.7,0,8.7-.4,9.6-.4,1.6,0,2.6.4,2.6,2.4,0,1.4-.8,3.2-1.5,3.9-.2.2-.7.5-1.4.5s-8-.4-9-.4-.6,0-.7.7c-.1,1.5-.4,13-.4,17.1s1,9.5,6,9.5c2.6,0,4.5-1.6,5.6-2.8.6-.6.9-1,1.5-1h0Z"/>
        <path class="st0" d="M309,27c7.5-1,12.3-4.2,10.3,6.4-.3,3.4-.4,6.9-.4,10.4h0v2.6c0,2.2,0,4.3,0,6.5,0,.5,0,1,0,1.5v11.5c0,.9-.7,1.6-1.6,1.6h-6.7c-.9,0-1.6-.7-1.6-1.6v-2.3c-1.8-1-3.6,2.1-5.8,2.8-6.4,3.2-16.6,2.4-19.9-4.9-2.8-5.4-1.6-14-1.3-20.3.5-5.1.4-6.7-3.4-10.2-2.2-3.2,2.9-3.9,5.2-4.1,2.6-.2,5.6-1.6,7.9-.7,1.1.5,1.7,1.8,1.6,3-.2,2.8-1,6.2-1.4,12.1-.1,6.5-2.2,17.5,5.8,19.9,4.8,1.1,9.4-1.1,10.7-6.8.3-1.4.5-2.9.5-4.3v-6.2s0,0,0,0c0-2.9.1-5.8-.2-7.7-.2-2.3-2.2-3.6-3.4-5.3-1.3-2.4,1.1-3.3,3.6-3.7h0Z"/>
        <path class="st0" d="M339.8,42.6c-.3,3.1,0,7-.1,10.3,0,3.5,0,4.2.5,6.7.6,2.4,1,2.5,1.9,3.7.5.7,1.2,1.7,1.3,2.5,0,1.6-1.6,2.2-2.5,2.2-4,0-6.1,0-10.2,0-6.6-.9-2.2-5-1.3-8.1.6-2,.4-3.3.5-6.1,0-3.2,0-6.8,0-10.1-.1-2.7.5-6.1-.9-7.8-.7-1-1.9-1.9-2.4-2.9-1-2.1,1.9-3.2,3.6-4,1.8-.7,3.6-1.7,5.5-2,2.5-.3,3.4,3.2,4.2,4.6.2.3.5.6.9.5,1.1-.5,1.7-1.3,3-2.2,2.1-1.6,4.9-3,7.6-3.3,8-1.3,10.9,8.9,5.8,13.6-1.3,1.1-3.3,1.9-4.8.8-1.5-1.1-1.9-4.1-3.4-5.5-4.3-3.3-8.8,3.3-9.1,7.2v.2h0Z"/>
        <path class="st0" d="M395.5,32c1.6,2.5,2.5,5.7,2.5,9.4,0,1.6,0,3.3-.1,5v20.1c0,.2,0,.5-.2.7-.2.4-.7.7-1.2.7h-6.8c-.8,0-1.4-.6-1.4-1.4v-3.4c-.2-.3-.4-.5-.6-.5s-.6.5-.9.8c-2.6,2.6-7,4.5-11.7,4.5-6.9,0-12.2-3.6-12.2-10.1,0-6.4,4.6-10.5,11.8-12.7,5.3-1.5,11.7-1.7,12.6-2.4.4-.3.9-1,.9-3.5,0-4.1-1.4-7.6-4.5-8.9-.9-.4-1.9-.6-3-.6-.3,0-.6,0-.8,0-3.2.2-6.1,2.1-7.1,5.8-.8,2.7-.9,3.3-4.6,3-2.1-.2-2.5-1.5-1.9-5.4.4-2.5,2.3-4.6,4.9-6,2.5-1.2,5.8-2,9.7-2,2,0,3.8.2,5.5.6,3.8,1.1,6.8,3.3,9.1,6.1,0,0,0,.1.1.2h0ZM388.2,51.1c0-2.4-.2-3.2-.8-3.2-3.4,0-6.1.3-8.4,1.1-4.3,1.4-6.2,4.3-6.2,7.2,0,3.4,2.5,5.3,6,5.3,5.5,0,9.4-4.1,9.4-10.4Z"/>
      </g>
      <g>
        <path class="st0" d="M131.7,91.2c0,.7-.2,1.3-.5,1.8-.3.5-.8.9-1.5,1.2s-1.4.4-2.4.4-.8,0-1.2,0c-.4,0-.8-.1-1.1-.2-.4-.1-.7-.2-1-.4v-2.3c.6.2,1.1.5,1.7.7.6.2,1.2.3,1.8.3s.7,0,1-.2.4-.3.5-.4c.1-.2.2-.4.2-.6s-.1-.6-.3-.8c-.2-.2-.5-.4-.8-.6-.3-.2-.7-.4-1.2-.6-.3-.1-.6-.3-.9-.5-.3-.2-.6-.4-.9-.7-.3-.3-.5-.6-.7-1s-.3-.9-.3-1.4.2-1.3.5-1.8c.3-.5.8-.9,1.4-1.2s1.3-.4,2.1-.4,1.2,0,1.8.2c.6.1,1.1.3,1.7.6l-.8,2c-.5-.2-1-.4-1.5-.5-.4-.1-.9-.2-1.3-.2s-.6,0-.8.1-.4.2-.5.4-.2.4-.2.6,0,.5.2.7c.2.2.4.4.7.6.3.2.7.4,1.2.6.6.3,1.1.6,1.5.9.4.3.8.7,1,1.1s.3.9.3,1.6Z"/>
        <path class="st0" d="M137.7,85.3c.8,0,1.6.2,2.2.5.6.3,1.1.8,1.4,1.4.3.6.5,1.4.5,2.2v1.2s-5.8,0-5.8,0c0,.7.2,1.2.6,1.6.4.4.9.6,1.6.6s1.1,0,1.6-.2c.5-.1,1-.3,1.5-.5v1.9c-.4.2-.9.4-1.4.5-.5.1-1.1.2-1.8.2s-1.7-.2-2.4-.5c-.7-.3-1.2-.8-1.6-1.5-.4-.7-.6-1.5-.6-2.6s.2-1.9.5-2.6c.4-.7.9-1.2,1.5-1.6.6-.4,1.4-.5,2.2-.5ZM137.7,87.1c-.5,0-.9.2-1.2.5-.3.3-.5.8-.6,1.4h3.5c0-.4,0-.7-.2-1-.1-.3-.3-.5-.6-.7-.3-.2-.6-.2-1-.2Z"/>
        <path class="st0" d="M147.8,94.7c-.9,0-1.7-.2-2.3-.5s-1.1-.8-1.4-1.5c-.3-.7-.5-1.6-.5-2.6s.2-2,.6-2.7c.4-.7.9-1.2,1.6-1.5.7-.3,1.4-.5,2.3-.5s1.2,0,1.6.2c.5.1.9.3,1.2.4l-.7,1.9c-.4-.2-.7-.3-1.1-.4-.3,0-.7-.1-1-.1s-.8.1-1.1.3c-.3.2-.5.5-.6.9s-.2.9-.2,1.5,0,1.1.2,1.5.4.7.7.9.6.3,1,.3,1,0,1.4-.2.8-.3,1.2-.6v2.1c-.4.2-.8.4-1.2.5s-.9.2-1.6.2Z"/>
        <path class="st0" d="M158,85.3c.1,0,.3,0,.4,0,.2,0,.3,0,.4,0l-.2,2.3c0,0-.2,0-.3,0-.1,0-.3,0-.4,0-.3,0-.6,0-.9.1-.3,0-.6.2-.8.4s-.4.4-.6.7c-.1.3-.2.7-.2,1.1v4.6s-2.5,0-2.5,0v-9s1.9,0,1.9,0l.4,1.5h.1c.2-.3.4-.6.7-.8.3-.3.6-.5.9-.6.3-.2.7-.2,1.1-.2Z"/>
        <path class="st0" d="M164.2,85.3c.8,0,1.6.2,2.2.5.6.3,1.1.8,1.4,1.4.3.6.5,1.4.5,2.2v1.2s-5.8,0-5.8,0c0,.7.2,1.2.6,1.6.4.4.9.6,1.6.6s1.1,0,1.6-.2c.5-.1,1-.3,1.5-.5v1.9c-.4.2-.9.4-1.4.5s-1.1.2-1.8.2-1.7-.2-2.4-.5c-.7-.3-1.2-.8-1.6-1.5-.4-.7-.6-1.5-.6-2.6,0-1.1.2-1.9.5-2.6.4-.7.9-1.2,1.5-1.6s1.4-.5,2.2-.5ZM164.2,87.1c-.5,0-.9.2-1.2.5-.3.3-.5.8-.6,1.4h3.5c0-.4,0-.7-.2-1-.1-.3-.3-.5-.6-.7-.3-.2-.6-.2-1-.2Z"/>
        <path class="st0" d="M174.4,92.7c.3,0,.5,0,.8,0s.5-.1.8-.2v1.8c-.3.1-.6.2-1,.3s-.8.1-1.3.1-1,0-1.5-.3c-.4-.2-.8-.5-1-.9s-.4-1-.4-1.8v-4.4h-1.2v-1s1.4-.8,1.4-.8l.7-1.9h1.6v1.9h2.5v1.9s-2.5,0-2.5,0v4.4c0,.3,0,.6.3.8s.5.3.8.3Z"/>
        <path class="st0" d="M181.8,85.3c1.2,0,2.1.3,2.8.8.6.5,1,1.3,1,2.4v6s-1.7,0-1.7,0l-.5-1.2h0c-.3.3-.5.6-.8.8-.3.2-.6.4-.9.5-.3,0-.8.1-1.3.1s-1-.1-1.4-.3c-.4-.2-.8-.5-1-.9s-.4-1-.4-1.6c0-1,.3-1.7,1-2.1.7-.5,1.7-.7,3-.8h1.6s0-.4,0-.4c0-.5-.1-.8-.4-1-.2-.2-.6-.3-1-.3s-.9,0-1.3.2c-.4.1-.8.3-1.3.5l-.8-1.7c.5-.3,1-.5,1.6-.6.6-.1,1.2-.2,1.8-.2ZM182.1,90.4c-.8,0-1.3.2-1.7.4-.3.3-.5.6-.5,1s.1.6.3.8c.2.2.5.2.9.2.5,0,1-.2,1.3-.5.4-.3.5-.8.5-1.3v-.7s-1,0-1,0Z"/>
        <path class="st0" d="M193.5,85.3c.1,0,.3,0,.4,0,.2,0,.3,0,.4,0l-.2,2.3c0,0-.2,0-.3,0-.1,0-.3,0-.4,0-.3,0-.6,0-.9.1s-.6.2-.8.4c-.2.2-.4.4-.6.7-.1.3-.2.7-.2,1.1v4.6s-2.5,0-2.5,0v-9s1.9,0,1.9,0l.4,1.5h.1c.2-.3.4-.6.7-.8.3-.3.6-.5.9-.6.3-.2.7-.2,1.1-.2Z"/>
        <path class="st0" d="M198.7,94.5h-2.5v-9s2.5,0,2.5,0v9ZM201,82c-.2.2-.4.3-.6.6-.3.2-.5.5-.8.7-.3.2-.6.5-.9.7-.3.2-.5.4-.7.5h-1.6v-.2c.2-.2.4-.5.6-.7.2-.3.5-.6.7-.9s.4-.6.6-.8h2.8v.2Z"/>
        <path class="st0" d="M205.4,85.3c1.2,0,2.1.3,2.8.8.6.5,1,1.3,1,2.4v6s-1.7,0-1.7,0l-.5-1.2h0c-.3.3-.5.6-.8.8-.3.2-.6.4-.9.5-.3,0-.8.1-1.3.1s-1-.1-1.4-.3c-.4-.2-.8-.5-1-.9-.2-.4-.4-1-.4-1.6,0-1,.3-1.7,1-2.1.7-.5,1.7-.7,3-.8h1.6s0-.4,0-.4c0-.5-.1-.8-.4-1-.2-.2-.6-.3-1-.3s-.9,0-1.3.2c-.4.1-.8.3-1.3.5l-.8-1.7c.5-.3,1-.5,1.6-.6.6-.1,1.2-.2,1.8-.2ZM205.7,90.4c-.8,0-1.3.2-1.7.4-.3.3-.5.6-.5,1s.1.6.3.8c.2.2.5.2.9.2.5,0,1-.2,1.3-.5.4-.3.5-.8.5-1.3v-.7s-1,0-1,0Z"/>
        <path class="st0" d="M219.5,94.7c-1,0-1.8-.4-2.5-1.2-.6-.8-1-2-1-3.5,0-1.5.3-2.7,1-3.5.6-.8,1.5-1.2,2.5-1.2s.8,0,1.1.2c.3.1.6.3.9.5.2.2.4.4.6.7h0c0-.2,0-.4-.1-.8,0-.3,0-.7,0-1v-2.9s2.5,0,2.5,0v12.6s-1.9,0-1.9,0l-.5-1.2h0c-.2.2-.4.5-.6.7-.2.2-.5.4-.8.5s-.7.2-1.1.2ZM220.4,92.7c.7,0,1.2-.2,1.4-.6s.4-1,.4-1.8v-.3c0-.9-.1-1.6-.4-2-.3-.5-.8-.7-1.5-.7s-1,.2-1.3.7c-.3.5-.5,1.1-.5,2,0,.9.2,1.5.5,2,.3.4.7.7,1.3.7Z"/>
        <path class="st0" d="M231.2,85.3c.8,0,1.6.2,2.2.5.6.3,1.1.8,1.4,1.4.3.6.5,1.4.5,2.2v1.2s-5.8,0-5.8,0c0,.7.2,1.2.6,1.6.4.4.9.6,1.6.6s1.1,0,1.6-.2c.5-.1,1-.3,1.5-.5v1.9c-.4.2-.9.4-1.4.5-.5.1-1.1.2-1.8.2s-1.7-.2-2.4-.5c-.7-.3-1.2-.8-1.6-1.5-.4-.7-.6-1.5-.6-2.6,0-1.1.2-1.9.5-2.6.4-.7.9-1.2,1.5-1.6.6-.4,1.4-.5,2.2-.5ZM231.2,87.1c-.5,0-.9.2-1.2.5-.3.3-.5.8-.6,1.4h3.5c0-.4,0-.7-.2-1-.1-.3-.3-.5-.6-.7-.3-.2-.6-.2-1-.2Z"/>
        <path class="st0" d="M247.4,84.6c-.5,0-.9,0-1.3.3-.4.2-.7.5-.9.8-.3.3-.4.8-.6,1.3s-.2,1.1-.2,1.7.1,1.6.3,2.1c.2.6.5,1,1,1.4.4.3,1,.5,1.7.5s1,0,1.5-.2c.5-.1,1-.3,1.6-.5v2.1c-.5.2-1,.4-1.5.5-.5,0-1.1.1-1.7.1-1.2,0-2.2-.3-3-.8-.8-.5-1.4-1.2-1.7-2.1s-.6-2-.6-3.2c0-.9.1-1.7.4-2.5.2-.7.6-1.4,1.1-1.9.5-.5,1-1,1.7-1.3s1.5-.4,2.4-.4c.6,0,1.2,0,1.8.2.6.1,1.2.4,1.7.6l-.8,2c-.4-.2-.9-.4-1.3-.5s-.9-.2-1.3-.2Z"/>
        <path class="st0" d="M261.4,85.5v9s-1.9,0-1.9,0l-.3-1.2h-.1c-.2.3-.4.6-.7.8-.3.2-.6.3-1,.4s-.7.1-1.1.1c-.6,0-1.2-.1-1.7-.3-.5-.2-.9-.6-1.1-1.1-.3-.5-.4-1.1-.4-1.9v-5.9s2.5,0,2.5,0v5.3c0,.6.1,1.1.3,1.5.2.3.6.5,1.1.5s.9-.1,1.2-.3c.3-.2.5-.6.6-1,.1-.4.2-1,.2-1.6v-4.3s2.5,0,2.5,0Z"/>
        <path class="st0" d="M266.8,94.5h-2.5v-12.6s2.5,0,2.5,0v12.6Z"/>
        <path class="st0" d="M273.5,92.7c.3,0,.5,0,.8,0,.3,0,.5-.1.8-.2v1.8c-.3.1-.6.2-1,.3s-.8.1-1.3.1-1,0-1.5-.3c-.4-.2-.8-.5-1-.9s-.4-1-.4-1.8v-4.4h-1.2v-1s1.4-.8,1.4-.8l.7-1.9h1.6v1.9h2.5v1.9s-2.5,0-2.5,0v4.4c0,.3,0,.6.3.8s.5.3.8.3Z"/>
        <path class="st0" d="M285.5,85.5v9s-1.9,0-1.9,0l-.3-1.2h-.1c-.2.3-.4.6-.7.8-.3.2-.6.3-1,.4s-.7.1-1.1.1c-.6,0-1.2-.1-1.7-.3-.5-.2-.9-.6-1.1-1.1-.3-.5-.4-1.1-.4-1.9v-5.9s2.5,0,2.5,0v5.3c0,.6.1,1.1.3,1.5.2.3.6.5,1.1.5s.9-.1,1.2-.3c.3-.2.5-.6.6-1,.1-.4.2-1,.2-1.6v-4.3s2.5,0,2.5,0Z"/>
        <path class="st0" d="M293.5,85.3c.1,0,.3,0,.4,0,.2,0,.3,0,.4,0l-.2,2.3c0,0-.2,0-.3,0-.1,0-.3,0-.4,0-.3,0-.6,0-.9.1s-.6.2-.8.4c-.2.2-.4.4-.6.7-.1.3-.2.7-.2,1.1v4.6s-2.5,0-2.5,0v-9s1.9,0,1.9,0l.4,1.5h.1c.2-.3.4-.6.7-.8.3-.3.6-.5.9-.6.3-.2.7-.2,1.1-.2Z"/>
        <path class="st0" d="M299.7,85.3c1.2,0,2.1.3,2.8.8.6.5,1,1.3,1,2.4v6s-1.7,0-1.7,0l-.5-1.2h0c-.3.3-.5.6-.8.8-.3.2-.6.4-.9.5-.3,0-.8.1-1.3.1s-1-.1-1.4-.3c-.4-.2-.8-.5-1-.9s-.4-1-.4-1.6c0-1,.3-1.7,1-2.1.7-.5,1.7-.7,3-.8h1.6s0-.4,0-.4c0-.5-.1-.8-.4-1-.2-.2-.6-.3-1-.3s-.9,0-1.3.2c-.4.1-.8.3-1.3.5l-.8-1.7c.5-.3,1-.5,1.6-.6.6-.1,1.2-.2,1.8-.2ZM300,90.4c-.8,0-1.3.2-1.7.4-.3.3-.5.6-.5,1s.1.6.3.8c.2.2.5.2.9.2.5,0,1-.2,1.3-.5.4-.3.5-.8.5-1.3v-.7s-1,0-1,0Z"/>
      </g>
    </g>
  </g>
  <g>
    <g>
      <rect class="st0" x="494" y="46.9" width="1.7" height="2.7"/>
      <path class="st0" d="M476.6,45.5v-20h-.8v20.4c.2-.1.3-.2.5-.3h.2Z"/>
      <path class="st0" d="M490.7,46.9h-1.7v1.8c.3,0,.5,0,.8,0h0c.3,0,.5,0,.8,0v-1.8Z"/>
      <polygon class="st0" points="490.4 48.7 490.4 48.7 490.4 48.7 490.4 48.7"/>
      <rect class="st0" x="478.3" y="25.4" width=".8" height="20"/>
      <rect class="st0" x="481.6" y="46.9" width="1.7" height="2.7"/>
      <rect class="st0" x="480.8" y="25.4" width=".8" height="20"/>
      <path class="st0" d="M489.8,45.5h6.6c-.4-2.5-2.5-4.6-4.9-5.3v-1.5h-.8v-1.8s0-.4-.5-.5v-1.5c.3-.5,1-1.6,1.3-1.9,0,0-.7.2-1.1.9h-.3v-.2s0-.2-.3-.2c-.2,0-.3.2-.3.2v.2h-.3c-.4-.8-1.1-.9-1.1-.9.3.3,1,1.4,1.3,1.9v1.5c-.4.1-.5.5-.5.5v1.8h-.8v1.5c-2.4.7-4.5,2.8-4.9,5.3h6.4ZM489.9,33.9h0v.8h0v-.8ZM489.3,39.1h1.1c.1,0,.3.1.3.3s-.1.3-.3.3h-1.1c-.1,0-.3-.1-.3-.3s.1-.3.3-.3Z"/>
      <polygon class="st0" points="489.3 48.7 489.3 48.7 489.3 48.7 489.3 48.7"/>
      <rect class="st0" x="484" y="46.9" width="1.7" height="2.7"/>
      <path class="st0" d="M484,25.4h-.8v16.8c.2-.4.5-.7.8-1v-15.8Z"/>
      <path class="st0" d="M491.5,48.9c.6.1,1.2.4,1.7.7v-2.7h-1.7v2h0Z"/>
      <path class="st0" d="M498.9,49.6h6.5c-.5-1.2-1.5-2.1-2.6-2.7h-3.9v2.7Z"/>
      <path class="st0" d="M496.4,25.4h-.8v15.8c.3.3.5.7.8,1v-16.8Z"/>
      <rect class="st0" x="498.1" y="25.4" width=".8" height="20"/>
      <path class="st0" d="M506.4,25.4h-.8v22.1c.3.4.6.7.8,1.1v-23.2Z"/>
      <path class="st0" d="M503.9,45.9v-20.4h-.8v20h.2c.2.2.4.3.5.4Z"/>
      <rect class="st0" x="500.6" y="25.4" width=".8" height="20"/>
      <rect class="st0" x="496.4" y="46.9" width="1.7" height="2.7"/>
      <path class="st0" d="M486.5,25.4h-.8v14.4c.3-.2.5-.3.8-.4v-13.9Z"/>
      <path class="st0" d="M489,25.4h-.8v6.3h0c.3.1.5.2.8.5v-6.8Z"/>
      <path class="st0" d="M491.5,31.7v-6.3h-.8v6.8c.3-.2.5-.4.8-.5h0Z"/>
      <path class="st0" d="M494,36.9v-11.5h-.8v13.9c.3.1.5.3.8.4v-2.9Z"/>
      <path class="st0" d="M488.2,48.9h0v-2h-1.7v2.7c.6-.3,1.1-.6,1.7-.7Z"/>
      <path class="st0" d="M504.5,56.3h-.4c-.5,0-.9.4-.9.9v3.8h2.1v-3.8c0-.5-.4-.9-.9-.9Z"/>
      <path class="st0" d="M496.4,68h5.9v-2.9c0-1,.8-1.8,1.8-1.8h.5c1,0,1.8.8,1.8,1.8v2.9h.7v-5.6h-10.7v5.6Z"/>
      <path class="st0" d="M499.5,56.3h-.3c-.4,0-.8.4-.8.8v3.9h1.9v-3.9c0-.4-.4-.8-.8-.8Z"/>
      <path class="st0" d="M504.5,64.3h-.2c-.5,0-.8.4-.8.8v2.8s0,0,0,0h1.8s0,0,0,0v-2.8c0-.5-.4-.8-.8-.8Z"/>
      <path class="st0" d="M490,49.9h-.2c-3,0-5.5,2.6-5.5,5.7v5.3h.8v-5.3s0,0,0,0h1.5v5.3h6.7v-5.3h1.5s0,0,0,0v5.3h.8v-5.3c0-3.1-2.5-5.6-5.5-5.7ZM493.4,54.6h-8.3c.4-2.4,2.5-4,4.8-4.1h0c2.3,0,4.4,1.7,4.8,4.1h-1.3Z"/>
      <path class="st0" d="M489.9,51.6h0s0,0,0,0,0,0,0,0h0c-1.4,0-2.7.8-3.4,1.9h6.7c-.7-1.2-1.9-1.9-3.4-1.9Z"/>
      <path class="st0" d="M495,62.5h-.4c-.2,0-.4.2-.4.4v5.1h1.3v-5.1c0-.2-.2-.4-.4-.4Z"/>
      <rect class="st0" x="508.1" y="54.6" width="3.2" height="6.3"/>
      <rect class="st0" x="510.6" y="25.4" width=".8" height="28.1"/>
      <rect class="st0" x="508.1" y="62.5" width="3.2" height="5.6"/>
      <path class="st0" d="M504.3,53.8c-.5,0-.9.4-1,.9h-6.9v6.3h.8v-5.3h4.2v5.3h.8v-5.3h4.2v5.3h.8v-6.3h-1.9c0-.5-.5-.9-1-.9Z"/>
      <polygon class="st0" points="508.9 53.4 508.9 25.4 508.1 25.4 508.1 49.9 508.1 53.5 508.9 53.5 508.9 53.4"/>
      <path class="st0" d="M496.4,53.5h6.1c.5-.7,1.1-1,1.8-1s1.4.4,1.8,1h1.1v-2.3h-12c.5.7,1,1.5,1.2,2.3Z"/>
      <path class="st0" d="M472.6,68h.7s0-2.9,0-2.9c0-1,.8-1.8,1.8-1.8h.5c1,0,1.8.8,1.8,1.8v2.9h0s5.9,0,5.9,0v-5.6h-10.7v5.6Z"/>
      <path class="st0" d="M475.4,64.3h-.2c-.5,0-.8.4-.8.8v2.8s0,0,0,0h1.8s0,0,0,0v-2.8c0-.5-.4-.8-.8-.8Z"/>
      <path class="st0" d="M480.8,46.9h-3.9c-1.2.6-2.1,1.5-2.6,2.7h6.5v-2.7Z"/>
      <rect class="st0" x="468.4" y="54.6" width="3.2" height="6.3"/>
      <path class="st0" d="M474.1,25.4h-.8v23.2c.2-.4.5-.8.8-1.1v-22.1Z"/>
      <rect class="st0" x="468.4" y="25.4" width=".8" height="28.1"/>
      <rect class="st0" x="468.4" y="62.5" width="3.2" height="5.6"/>
      <polygon class="st0" points="470.9 53.4 470.9 53.5 471.6 53.5 471.6 49.9 471.6 25.4 470.9 25.4 470.9 53.4"/>
      <path class="st0" d="M485.1,62.5h-.4c-.2,0-.4.2-.4.4v5.1h1.3v-5.1c0-.2-.2-.4-.4-.4Z"/>
      <path class="st0" d="M472.6,51.2v2.3h1.1c.4-.6,1-1,1.8-1s1.4.4,1.8,1h6.1c.3-.8.7-1.6,1.2-2.3h-12Z"/>
      <path class="st0" d="M480.6,56.3h-.3c-.4,0-.8.4-.8.8v3.9h1.9v-3.9c0-.4-.4-.8-.8-.8Z"/>
      <path class="st0" d="M475.6,56.3h-.4c-.5,0-.9.4-.9.9v3.8h2.1v-3.8c0-.5-.4-.9-.9-.9Z"/>
      <path class="st0" d="M475.4,53.8c-.5,0-.9.4-1,.9h-1.9v6.3h.8v-5.3h4.2v5.3h.8v-5.3h4.2v5.3h.8v-6.3h-6.9c0-.5-.5-.9-1-.9Z"/>
      <polygon class="st0" points="489.9 62.5 489.9 62.5 489.5 62.5 486.5 62.5 486.5 68 489.5 68 489.9 68 489.9 68 490.1 68 493.2 68 493.2 62.5 490.1 62.5 489.9 62.5"/>
    </g>
    <path class="st0" d="M585.5,34.5v20.7l-12-19.8c-2.2-3.7-4.1-6.8-5.2-10h-17.5c4.2,2,5.1,4.9,5.1,9.1v24.4c0,4.3-.9,7.2-5.1,9.1h15.9c-4.2-1.9-5.1-4.8-5.1-9.1v-22.4l12.9,20.7c1.8,2.8,4.5,7.2,6.6,10.8h10v-33.5c0-4.2.9-6.9,5.1-9.1h-15.9c4.2,2.2,5.1,4.9,5.1,9.1ZM540.7,57.8v-23.3c0-4.2.9-7,5.1-9.1h-20.4c4.2,2,5.1,4.9,5.1,9.1v24.4c0,4.3-.9,7.2-5.1,9.1h20.4c-4.2-1.9-5.1-4.8-5.1-9.1v-1.1ZM621.9,62.9c-2.3,0-3.8,0-5.7-.1v-13.8c1.1-.2,3.1-.5,5.3-.5,5.9,0,8.9,3,8.9,7.3s-3.5,7.1-8.5,7.1ZM670.8,68h22.4c-4.9-2-6-4.2-7.7-9.1l-9.1-25.6c-.6-1.6-.9-2.8-.9-4,0-1.7,1.1-2.8,2.7-4h-22.7c2,1.1,2.8,2.3,2.8,4s-.3,2.4-.7,3.4l-8.9,26.1c-1.5,4.5-3.4,7.2-7.6,9.1h17.1c-3.5-1.4-4.4-2.6-4.4-4.5s.4-2.6,1-4.5l1.5-4.3c1.4-.5,3.4-.7,5.7-.7,4.3,0,7.9,1.5,10.3,3.9,1.6,1.6,3,3.5,3,5.7s-1.1,3.2-4.6,4.5ZM658.1,49.6l6.2-18.6,7.6,20.8c-3.2-2.2-6.3-2.8-9.3-2.8s-3.5.3-4.4.6ZM627.3,45.8c4.7-1.5,10.1-4.6,10.1-10.4s-5.9-9.9-16.4-9.9h-20.2c4.2,2,5.1,4.9,5.1,9.1v24.4c0,4.3-.9,7.2-5.1,9.1h23.5c10.2,0,16.9-4.6,16.9-12.3s-8.4-12.1-17.8-12.1-5.1.2-7.2.5v-13.3c1.1-.1,2.2-.2,3.7-.2,4.8,0,7.3,2.6,7.3,6.3s-1.6,5.8-3.7,7.3l3.8,1.6ZM720.9,63.2h-3.9c-3.2,0-6.7,0-6.7-4.4v-24.5c0-4.1,1-6.9,5.1-8.9h-20.4c4.2,2,5.1,4.9,5.1,9.1v24.4c0,4.3-.9,7.2-5.1,9.1h35.8v-11.8c-2.1,4.4-4.6,6.9-9.9,6.9Z"/>
  </g>
</svg>