<?xml version="1.0" encoding="UTF-8"?>
<svg id="Capa_1" xmlns="http://www.w3.org/2000/svg" version="1.1" viewBox="0 0 589.6 283.5">
  <!-- Generator: Adobe Illustrator 29.4.0, SVG Export Plug-In . SVG Version: 2.1.0 Build 152)  -->
  <defs>
    <style>
      .st0 {
        fill: #ff4026;
      }

      .st1 {
        fill: #fff;
      }
    </style>
  </defs>
  <g>
    <path class="st0" d="M179.5,169.9c-4.2-1.9-7.6-4.5-10-7.8-2.4-3.3-3.8-6.9-4-10.9h16.6c.3,2.5,1.6,4.5,3.7,6.2,2.2,1.7,4.8,2.4,8,2.4s5.6-.6,7.3-1.9c1.7-1.2,2.6-2.9,2.6-4.8s-1-3.7-3.2-4.7-5.6-2.2-10.3-3.5c-4.9-1.1-8.8-2.4-11.9-3.7-3.1-1.2-5.8-3.1-7.9-5.8s-3.3-6-3.3-10.5,1-6.9,3.1-9.9c2.1-3,5.1-5.3,8.9-7.1s8.5-2.6,13.7-2.6c7.8,0,14,1.9,18.5,5.9,4.6,3.8,7.2,9.1,7.6,15.7h-15.7c-.3-2.6-1.3-4.6-3.2-6.2-1.9-1.5-4.5-2.3-7.7-2.3s-5.2.5-6.9,1.7-2.4,2.6-2.4,4.5,1.1,3.8,3.3,5c2.2,1.1,5.6,2.3,10.2,3.5,4.7,1.1,8.6,2.4,11.6,3.7,3.1,1.2,5.7,3.2,7.9,5.9s3.4,6.1,3.5,10.4c0,3.8-1,7.2-3.1,10.1-2.1,3-5.1,5.3-8.9,7s-8.4,2.5-13.5,2.5-10.1-1-14.3-2.9h0Z"/>
    <path class="st0" d="M230.3,96.2c-1.9-1.8-2.9-4.1-2.9-6.9s1-5.1,2.9-6.9,4.4-2.8,7.2-2.8,5.3,1,7.2,2.8,2.9,4.1,2.9,6.9-1,5.1-2.9,6.9-4.4,2.8-7.2,2.8-5.3-1-7.2-2.8ZM245.6,106.7v65h-16.4v-65s16.4,0,16.4,0Z"/>
    <path class="st0" d="M296.4,108.5c3.7,1.9,6.5,4.4,8.7,7.4v-9.3h16.6v65.5c0,6-1.2,11.4-3.7,16.2-2.4,4.7-6,8.5-10.9,11.3s-10.7,4.2-17.6,4.2-16.9-2.2-22.7-6.5c-5.9-4.3-9.3-10.2-10-17.6h16.3c.9,3,2.7,5.3,5.6,7.1s6.3,2.6,10.4,2.6,8.6-1.4,11.6-4.3c3-2.9,4.5-7.2,4.5-13v-10.1c-2.1,3.1-5.1,5.6-8.7,7.6-3.8,2-7.9,3.1-12.7,3.1s-10.5-1.4-15-4.2-8.1-6.8-10.7-11.9c-2.6-5.2-3.9-11-3.9-17.6s1.3-12.4,3.9-17.5,6.2-9,10.7-11.7c4.5-2.7,9.5-4.1,15.1-4.1s9.1,1,12.8,2.9h0ZM302.7,129c-1.6-2.9-3.7-5.1-6.4-6.5-2.6-1.5-5.5-2.3-8.6-2.3s-5.9.8-8.5,2.3-4.7,3.7-6.3,6.5c-1.6,2.9-2.4,6.3-2.4,10.1s.8,7.3,2.4,10.3c1.6,3,3.8,5.2,6.4,6.7s5.4,2.4,8.4,2.4,5.9-.8,8.6-2.3c2.6-1.5,4.8-3.8,6.4-6.5s2.4-6.3,2.4-10.3-.8-7.4-2.4-10.3h0Z"/>
    <path class="st0" d="M388.8,113.1c4.8,4.9,7.2,11.7,7.2,20.5v38.2h-16.4v-36c0-5.2-1.3-9.2-3.8-11.9-2.6-2.8-6.1-4.2-10.6-4.2s-8.1,1.4-10.7,4.2c-2.6,2.8-3.9,6.7-3.9,11.9v36h-16.4v-65h16.4v8.1c2.2-2.8,5-5.1,8.4-6.6,3.4-1.6,7.2-2.4,11.2-2.4,7.8,0,14,2.4,18.8,7.3h0Z"/>
    <path class="st0" d="M424.2,84.9v86.9h-16.4v-86.9s16.4,0,16.4,0Z"/>
  </g>
  <g>
    <path class="st1" d="M1255.9,204.8c-9.5-4.3-17-10.1-22.5-17.5s-8.5-15.5-9.1-24.4h37.1c.7,5.6,3.5,10.3,8.3,13.9,4.8,3.7,10.8,5.5,18,5.5s12.5-1.4,16.4-4.2,5.9-6.4,5.9-10.8-2.4-8.3-7.2-10.6c-4.8-2.4-12.5-4.9-23-7.8-10.9-2.6-19.8-5.3-26.7-8.1-6.9-2.8-12.9-7.1-17.9-12.9s-7.5-13.6-7.5-23.4,2.3-15.4,7-22.1c4.6-6.7,11.3-11.9,20-15.8,8.7-3.8,18.9-5.8,30.6-5.8,17.3,0,31.2,4.3,41.5,13,10.3,8.7,16,20.4,17.1,35.1h-35.2c-.5-5.8-2.9-10.4-7.2-13.8-4.3-3.4-10-5.1-17.2-5.1s-11.8,1.2-15.4,3.7-5.4,5.9-5.4,10.3,2.5,8.6,7.4,11.2c4.9,2.5,12.5,5.1,22.9,7.8,10.5,2.6,19.2,5.3,26,8.1s12.7,7.1,17.7,13,7.6,13.6,7.7,23.3c0,8.4-2.3,15.9-7,22.6-4.6,6.7-11.3,11.9-20,15.6-8.7,3.8-18.8,5.7-30.4,5.7s-22.6-2.1-32.1-6.4h.2Z"/>
    <path class="st1" d="M1369.6,39.8c-4.3-4.1-6.4-9.2-6.4-15.4s2.1-11.3,6.4-15.4c4.3-4.1,9.7-6.2,16.2-6.2s11.9,2.1,16.2,6.2c4.3,4.1,6.4,9.2,6.4,15.4s-2.1,11.3-6.4,15.4-9.7,6.2-16.2,6.2-11.9-2.1-16.2-6.2ZM1403.9,63.3v145.6h-36.8V63.3h36.8Z"/>
    <path class="st1" d="M1517.4,67.4c8.2,4.3,14.7,9.9,19.4,16.7v-20.8h37.1v146.7c0,13.5-2.7,25.5-8.1,36.1s-13.6,19-24.4,25.2c-10.9,6.2-24,9.3-39.4,9.3s-37.6-4.8-50.9-14.5c-13.2-9.6-20.7-22.8-22.5-39.4h36.5c1.9,6.7,6.1,12,12.5,15.9s14.1,5.9,23.3,5.9,19.4-3.2,26-9.6c6.7-6.4,10-16.1,10-29v-22.6c-4.7,6.8-11.3,12.5-19.6,17.1-8.3,4.6-17.8,6.8-28.5,6.8s-23.5-3.2-33.6-9.5c-10.2-6.3-18.2-15.2-24-26.7-5.9-11.5-8.8-24.7-8.8-39.6s2.9-27.8,8.8-39.2c5.9-11.4,13.8-20.1,23.9-26.3,10.1-6.1,21.3-9.2,33.8-9.2s20.4,2.1,28.6,6.4v.3ZM1531.6,113.1c-3.5-6.4-8.2-11.3-14.2-14.7-6-3.4-12.3-5.1-19.2-5.1s-13.1,1.7-18.9,5-10.5,8.2-14.1,14.6-5.4,14-5.4,22.7,1.8,16.4,5.4,23,8.3,11.6,14.2,15.1c5.9,3.5,12.1,5.3,18.8,5.3s13.2-1.7,19.2-5.1c6-3.4,10.7-8.3,14.2-14.7s5.3-14.1,5.3-23-1.8-16.6-5.3-23h0Z"/>
    <path class="st1" d="M1724.3,77.6c10.7,11,16,26.2,16,45.9v85.4h-36.8v-80.4c0-11.6-2.9-20.5-8.7-26.7-5.8-6.2-13.7-9.3-23.7-9.3s-18.2,3.1-24,9.3c-5.9,6.2-8.8,15.1-8.8,26.7v80.4h-36.8V63.3h36.8v18.1c4.9-6.3,11.2-11.3,18.8-14.8,7.6-3.6,16-5.4,25.1-5.4,17.3,0,31.4,5.5,42.1,16.4Z"/>
    <path class="st1" d="M1803.6,14.4v194.5h-36.8V14.4h36.8Z"/>
  </g>
</svg>